<?xml version="1.0" encoding="utf-8"?>
<!-- Generator: Adobe Illustrator 27.5.0, SVG Export Plug-In . SVG Version: 6.00 Build 0)  -->
<svg version="1.1" id="Layer_1" xmlns="http://www.w3.org/2000/svg" xmlns:xlink="http://www.w3.org/1999/xlink" x="0px" y="0px"
	 viewBox="0 0 230 251" style="enable-background:new 0 0 230 251;" xml:space="preserve">
<style type="text/css">
	.st0{fill:#FFFFFF;}
</style>
<g id="Group_69" transform="translate(-12981 -3166)">
	<rect id="Rectangle_85" x="12981" y="3166" class="st0" width="230" height="115"/>
	<g id="Path_404" transform="translate(12981 3261.275)">
		<path d="M0,0h230v155.7H0V0z"/>
		<path class="st0" d="M9,9v137.7h212V9H9 M0,0h230v155.7H0V0z"/>
	</g>
	<rect id="Rectangle_86" x="13102" y="3300" class="st0" width="35" height="35"/>
	<rect id="Rectangle_91" x="13102" y="3354" class="st0" width="35" height="34"/>
	<rect id="Rectangle_89" x="13006" y="3300" class="st0" width="36" height="35"/>
	<rect id="Rectangle_93" x="13006" y="3354" class="st0" width="36" height="34"/>
	<rect id="Rectangle_87" x="13151" y="3300" class="st0" width="35" height="35"/>
	<rect id="Rectangle_90" x="13151" y="3354" class="st0" width="35" height="34"/>
	<rect id="Rectangle_88" x="13054" y="3300" class="st0" width="36" height="35"/>
	<rect id="Rectangle_92" x="13054" y="3354" class="st0" width="36" height="34"/>
</g>
</svg>
