<svg xmlns="http://www.w3.org/2000/svg" width="230" height="251" viewBox="0 0 230 251">
  <g id="Group_69" data-name="Group 69" transform="translate(-12981 -3166)">
    <rect id="Rectangle_85" data-name="Rectangle 85" width="230" height="115" transform="translate(12981 3166)"/>
    <g id="Path_404" data-name="Path 404" transform="translate(12981 3261.275)" fill="none">
      <path d="M0,0H230V155.725H0Z" stroke="none"/>
      <path d="M 9 9 L 9 146.724609375 L 221 146.724609375 L 221 9 L 9 9 M 0 0 L 230 0 L 230 155.724609375 L 0 155.724609375 L 0 0 Z" stroke="none" fill="#000001"/>
    </g>
    <rect id="Rectangle_86" data-name="Rectangle 86" width="35" height="35" transform="translate(13102 3300)"/>
    <rect id="Rectangle_91" data-name="Rectangle 91" width="35" height="34" transform="translate(13102 3354)"/>
    <rect id="Rectangle_89" data-name="Rectangle 89" width="36" height="35" transform="translate(13006 3300)"/>
    <rect id="Rectangle_93" data-name="Rectangle 93" width="36" height="34" transform="translate(13006 3354)"/>
    <rect id="Rectangle_87" data-name="Rectangle 87" width="35" height="35" transform="translate(13151 3300)"/>
    <rect id="Rectangle_90" data-name="Rectangle 90" width="35" height="34" transform="translate(13151 3354)"/>
    <rect id="Rectangle_88" data-name="Rectangle 88" width="36" height="35" transform="translate(13054 3300)"/>
    <rect id="Rectangle_92" data-name="Rectangle 92" width="36" height="34" transform="translate(13054 3354)"/>
  </g>
</svg>
