<svg xmlns="http://www.w3.org/2000/svg" xmlns:xlink="http://www.w3.org/1999/xlink" width="497.066" height="817.99" viewBox="0 0 497.066 817.99">
  <defs>
    <clipPath id="clip-path">
      <rect id="Rectangle_49" data-name="Rectangle 49" width="497.066" height="817.99" fill="none"/>
    </clipPath>
  </defs>
  <g id="Group_37" data-name="Group 37" transform="translate(0.001)">
    <g id="Group_36" data-name="Group 36" transform="translate(-0.001)" clip-path="url(#clip-path)">
      <path id="Path_238" data-name="Path 238" d="M212.148,350.982c-3.023-6.651-6.23-13.911-9.682-21.886a367.474,367.474,0,0,1-21.175-56.423c-2.666-8.743-12.374-40.79-17.467-48.445a97.455,97.455,0,0,0-12.664-20.139c-1.252-2.122-1.2-3.99,1.334-4.888,1.712-.606,4.344.939,5.72,2.037,1.732,1.381,3.785,4.619,5.958,4.35a47.659,47.659,0,0,0,7.134-2.661c.975-.285,1.658-.164,1.909-1.4.565-4.129-2.838-8.689-.205-12.461.944-1.1,1.986-.5,3.118-.064,2.4.916,2.315,2.723,2.8,5.058,1.378,4.008.3,6.39.878,9.933.916,2.315,3.816,3.4,5.384,5.2,2.977,3.007.993,6.959-1.86,9.261-.647.629-1.753,1.037-1.842,2.027,3.192,9.9,17,45.445,19.151,55.748a106.841,106.841,0,0,0,7.352,19.746,97.673,97.673,0,0,1,3.685,9.595c-1.05,14.7.444,31.16.475,45.414" transform="translate(-100.914 295.116)"/>
      <path id="Path_239" data-name="Path 239" d="M173.044,281.27a74.6,74.6,0,0,0,6.256,5.037,1.273,1.273,0,0,0,.08.626,15.711,15.711,0,0,0,2.41,2.915,40.662,40.662,0,0,0,4.239,3.439,40,40,0,0,0,9.477,5.037l.072.023c-3.423,2.669-8.335,5.651-15.535,11.106a211.53,211.53,0,0,0-20.5,20.113c-2.633,3.136-1.288,2.959.583,6.192,3.423,6.32,7.2,13.251,10.141,19.81,2.658,5.594,6.115,9.759,6.608,16.012a2.076,2.076,0,0,1-.526,1.191c-6.441-.472-12.833-.908-19.161-.808q-12.54.2-24.711.529h-.018c-.79-.688.126-2.276.459-2.951,2.607-5.325,9.246-4.924,14.257-5.676,3.623-.457,6.9-2.433,5.083-5.509a41.952,41.952,0,0,1-4.94-9.11c-3.58-3.721-6.672-14.329-7.88-19.4s5.571-14.129,10.231-20.536c7.811-10.721,12.54-20.888,19.466-28.188.313-.264.593-.5.857-.739,1.5,1.147,2.507,1.239,3.051.885" transform="translate(-37.607 439.103)"/>
      <path id="Path_240" data-name="Path 240" d="M118.377,67.892c2.268-2.543,4.634-5.135,7.18-7.708a53.756,53.756,0,0,1,7.655-6.728l.262-.169a1.563,1.563,0,0,1,.236.2,1.934,1.934,0,0,1,.405.508,10.326,10.326,0,0,1,.659,1.219c.346.729.911,2.173,1.383,3.487.955,2.7,1.868,5.681,2.761,8.727,3.587,12.494,6.487,25.376,9.361,38.406q2.105,9.788,4.244,19.689,1.082,4.954,2.173,9.931l1.162,5,.642,2.522c.19.724.239.929.387,1.363-.167.167-.344.326-.526.477l-.79.68c-.77.7-1.581,1.393-2.3,2.107l-4.439,4.213c-2.972,2.787-5.869,5.666-8.807,8.535q-8.8,8.61-17.48,17.493C99.472,201.49,78.333,222.48,56.306,245.269c-7.824,4.552-15.922,8.54-23.12,13.626q-10.9,7.71-21.173,15.417C17.571,259.6,23.745,244.674,29.126,229.2c7.585-21.778,15.4-40.126,23.362-62.427,2.62-7.313,5.035-15.127,7.388-23.087,11.478-15.9,23.118-32.995,34.935-48.73a7.341,7.341,0,0,0,0-1.211q2.933-3.61,5.715-6.969a56.913,56.913,0,0,0,5.183-3.949c4.008-4.883,8.132-9.841,12.669-14.932" transform="translate(309.352 83.45)" fill="#b2b0ff"/>
      <path id="Path_241" data-name="Path 241" d="M16.834,243.927c-2.289,1.532-4.637,2.956-7.008,4.337,22.025-22.792,43.166-43.78,66.243-67.426q8.7-8.857,17.48-17.493c2.938-2.853,5.833-5.735,8.812-8.542l4.439-4.211c.718-.7,1.527-1.4,2.294-2.107l.79-.683a6.607,6.607,0,0,0,.526-.475c-.146-.436-.2-.642-.385-1.365l-.639-2.515-1.16-5q-1.089-4.981-2.176-9.933-2.136-9.9-4.244-19.687C98.935,95.8,96.033,82.911,92.448,70.42c-.893-3.046-1.807-6.025-2.764-8.727-.47-1.316-1.037-2.761-1.381-3.49a9.954,9.954,0,0,0-.662-1.216,1.808,1.808,0,0,0-.405-.508,1.323,1.323,0,0,0-.234-.2l-.264.172a53.663,53.663,0,0,0-7.652,6.718c-2.546,2.576-4.911,5.165-7.18,7.708-4.537,5.094-8.66,10.041-12.653,14.914a56.876,56.876,0,0,1-5.181,3.949c-.077.051-.154.115-.231.164L59.2,79.968l1.052-1.886C64.635,73,68.943,68.077,73.128,63.707c2.079-2.2,4.119-4.257,6.143-6.128.5-.475,1.008-.926,1.517-1.373.554-.493.875-.788,1.65-1.393a51.138,51.138,0,0,1,5.06-3.454,10.611,10.611,0,0,1,1.9,1.6,7.7,7.7,0,0,1,1.578,2.107,13.664,13.664,0,0,1,1.268,2.579c.236.552.436,1.091.629,1.624.808,2.14,1.455,4.211,2.107,6.254,1.239,4.108,2.317,8.014,3.328,11.745,2.012,7.46,3.685,14.216,5.168,20.2,2.936,11.968,5,20.824,6.164,26.033.847,3.821,1.678,7.562,2.512,11.322l1.316,5.617c.241.932.48,1.863.726,2.8l.393,1.378.105.359.221.621.429,1.255.67,1.883-4.316,4.016c-1.419,1.3-3.349,3.264-5.692,5.53-4.681,4.616-11.06,11-18.72,18.786-13.061,13.254-29.931,30.588-48.709,50.215-7.324,5.876-14.6,11.868-21.745,16.641" transform="translate(355.837 80.432)"/>
      <path id="Path_242" data-name="Path 242" d="M71.121,71.378C59.3,87.116,47.665,104.214,36.189,120.108q2.163-7.321,4.285-14.745L70.033,68.33c.721.21,1.016.921,1.091,1.842a7.009,7.009,0,0,1,0,1.206" transform="translate(333.053 107.01)"/>
      <path id="Path_243" data-name="Path 243" d="M186.224,47.357c-.5.205-.336.629,1.919,4.532,1.8,2.633,3.046,4.955,5.217,7.7,3.893,5.124,6.844,11.219,10.924,16.22,1.25,1.54,2.448,2.882,3.613,4.126l1.735,1.809c.765.831.611.493.867.677.264.074.2.246.231.446v.162a4.447,4.447,0,0,1-.139.526l-.344,1.216c-.475,1.637-1.016,3.346-1.7,5.2-.819,2.189-5.586,11.891-6.364,14.106-1.055,2.972-8.494,29.584-20.19,62.135-6.941,19.328-8.478,23.7-16.274,44.139-1.6,4.175-10.305,25.307-11.778,29.4-1.54,4.237-2.335,8.648-3.762,12.707-11.114,31.747-19.825,56.626-20.683,59.074-1.209,3.834-2.694,7.329-4.039,11.057-1.147,3.056-3.074,8.809-5.62,16.428-1.891,1.452-3.79,2.9-5.638,4.36-2.017,1.542-2.507,2.73-2.271,3.451l-.044.031L35.365,376.422v-.062a1.468,1.468,0,0,0,.47-.167,21.681,21.681,0,0,0,4.211-10.518,69.971,69.971,0,0,0-.385-12.4q.958-4.63,2.019-9.479c2.107-4.878,5.358-9.456,6.508-14.547,1.173-6.007.716-16.677,2.227-21.935,2.245-7.57,7.108-14.868,11.517-33,1.578-6.413,2.451-11.889,3.754-18.291,2.045-6.2,4.257-12.7,6.633-19.4,8.509-23.893,10.464-29.261,20.251-54.452l14.955-36.125c2.022-5.186,3.295-10.547,5.189-15.512,14.85-38.8,26.969-69,28.142-71.994,1.727-4.655,3.7-8.9,5.576-13.408,1.753-4.126,4.924-12.261,9.217-23.072l2.438-6.161.413-1.055c.223.231.464.557.7.839l1.663,2.05c4.419,5.558,9.179,11.555,14.185,17.855l1.147.762,4.752,3.128,5.907,7.475a.694.694,0,0,0-.375.11.7.7,0,0,0-.259.3" transform="translate(195.587 23.244)" fill="#b2b0ff"/>
      <path id="Path_244" data-name="Path 244" d="M155.809,40.1c-5-6.3-9.766-12.3-14.183-17.855l-1.665-2.05c-.236-.282-.48-.608-.7-.837l-.413,1.052-2.438,6.161c-4.285,10.811-7.46,18.958-9.215,23.072-1.878,4.506-3.849,8.755-5.576,13.408-1.17,2.995-13.29,33.2-28.137,71.991-1.894,4.965-3.161,10.326-5.191,15.512L73.346,186.68c-9.784,25.191-11.742,30.559-20.251,54.452-2.368,6.705-4.586,13.2-6.633,19.4.529-2.658,1.15-5.455,1.917-8.576,1.9-7.747,5.751-15.3,7.934-23.5,2.263-8.471,5.466-15.44,7.883-24.121a90.258,90.258,0,0,0,2.3-15.16c2.528-7.75,5.13-15.322,7.865-22.52,10.344-27.418,20.4-49.91,30.772-76.469,5.017-12.848,10.457-25.371,15.825-37.7l7.98-18.34,3.857-9.084,4.424-10.724.652-1.6.323-.788c.144,0,.341.375.511.541l2.107,2.612,3.977,4.953,5.876,7.229c3.831,4.673,7.465,9.094,10.983,13.382a22.544,22.544,0,0,1,1.373,4.183l-1.3-.855-4.755-3.128Z" transform="translate(214.824 18.724)"/>
      <path id="Path_245" data-name="Path 245" d="M86.665,184.275c-2.353,7.963-4.768,15.774-7.388,23.087-7.965,22.3-15.776,40.652-23.362,62.43-5.394,15.476-11.565,30.4-17.113,45.114q-3,2.256-5.938,4.5c2.543-7.621,4.475-13.374,5.617-16.428,1.347-3.718,2.83-7.211,4.039-11.057.86-2.448,9.569-27.326,20.685-59.074,1.424-4.062,2.222-8.471,3.759-12.707,1.475-4.093,10.177-25.222,11.781-29.4,7.8-20.449,9.33-24.811,16.274-44.139,11.683-32.54,19.115-59.133,20.177-62.117.79-2.215,5.545-11.917,6.364-14.1.688-1.845,1.229-3.567,1.7-5.2l.344-1.216c.046-.172.133-.462.141-.526V63.28c-.036-.2.028-.37-.234-.446-.262-.185-.1.154-.867-.677l-1.732-1.809c-1.168-1.245-2.371-2.587-3.616-4.124-4.077-5-7.031-11.1-10.924-16.223-2.168-2.748-3.423-5.068-5.217-7.7-2.256-3.9-2.422-4.326-1.919-4.532a.7.7,0,0,1,.631-.408c.821-.049,2.338.885,4.655,3.687L123.973,54.35l5.512,6.731.48.59c.059.1.208.19.19.3l-.126.354-.526,1.422-.88,2.438-1.316,3.687Q124.673,77.28,122,84.783c-5.833,16.379-13.954,32.327-20.01,49.235-3.977,11.057-7.511,23.272-11.037,35.543q-2.125,7.375-4.285,14.714" transform="translate(282.578 42.84)"/>
      <path id="Path_246" data-name="Path 246" d="M166.507,118.942a17.711,17.711,0,0,0-1.547,3.241c-.736,2.335-2.787,4.4-3.308,6.79-.639,2.946.18,5.1-.567,8.006-.228.86-2.33,4.527-2.528,5.4a155.2,155.2,0,0,1-4.167,24.562c-2.022,7.539-2.453,9.243-5.086,17.146-.526,1.614-3.911,9.689-4.378,11.275-.485,1.642-.226,3.456-.652,5.037l-6.207,22.974a38.822,38.822,0,0,1-1.355,4.265c-1.021,2.984-2.882,12.792-6.225,24.149-.888,3.041-3.582,5.743-4.434,8.979-.577,2.107-4.042,14.347-4.529,16.49-3.492,15.317-3.8,21.853-4.845,25.9-1.363,3.965-2.13,8.088-3.136,12.166-.99,4.711-2.3,9.356-3.646,14-1.286,4.657-2.633,9.3-3.718,13.99-.418,2.725.77,5.733-.021,8.386a60.005,60.005,0,0,0-1.937,10.865,19.294,19.294,0,0,0-.064,2.751c-.072,1.694.5,2.748,1.414,2.592v.059l76.513-29.564.036-.033a1,1,0,0,0,.362.506c.221.485.526.426,3.3-.744a53.726,53.726,0,0,0,5.381-2.964c3.536-2.338,7.937-3.626,11.368-6.123,4.213-3.069,6.128-6.012,10.408-8.979,1.268-.87,7.729-3.949,8.986-4.845a416.62,416.62,0,0,1,34.442-25.838c11.28-7.462,13.813-9.156,26.153-16.615,2.52-1.535,15.761-8.727,18.193-10.234,2.52-1.578,4.583-3.749,6.969-5.266,18.655-11.943,33.454-20.985,34.914-21.866,2.194-1.473,4.46-2.543,6.713-3.829,1.193-.652,2.987-1.73,5.289-3.11l3.423-2.032a23.62,23.62,0,0,1,2.245-1.242.778.778,0,0,1,.346-.087c.062.095-.082.19-.139.264a6.924,6.924,0,0,0,.085.69c.067.5.133,1.011.2,1.535l.659,5.917c.477,4.56.952,9.459,1.37,14.562.447,5.468-.926,11.337-.4,17.1.38,3.77,1.955,25.671,2.225,29.43.58,6.726,1.091,12.474,1.36,17.28.059,1.188.11,2.335.105,3.315.031.441.077.444-.054.644a1.065,1.065,0,0,1-.139.146l-.482.416-1.114.857c-.719.559-1.447,1.1-2.161,1.606-5.668,4.106-9.443,6.774-12.515,8.663-6.318,3.49-12.358,7.526-18.532,11.365-14.008,9.012-28.7,17.067-42.764,25.935-3.918,2.669-6.905,6.685-11.034,9.074-5.489,3.328-10.86,6.7-15.917,10.464-1.357.947-2.5,1.919-3.705,2.92-2.3,1.771-3.264,3.29-2.371,3.741-2.294,1.5-4.565,2.984-6.762,4.393a1,1,0,0,0-.334-.529c-.2-.49-.526-.449-3.341.572a51.117,51.117,0,0,0-5.517,2.682c-3.667,2.1-8.109,3.159-11.688,5.412-4.388,2.794-6.492,5.579-10.975,8.219-1.316.79-7.993,3.344-9.315,4.129l-11.388,7.755c-3.19,2.132-6.967,4.565-11.106,7.4a46.166,46.166,0,0,0-6.32,4.97,13.923,13.923,0,0,0-1.493,1.753c-.4.618-.7,1.239-1.052,1.866-.657,1.265-1.5,2.484-2.04,3.826-.693,1.581-1.316,3-1.894,4.316s-.934,2.558-1.365,3.7c-.837,2.294-1.545,4.3-2.145,6.348-1.316,4.077-2.579,8.281-4.591,15.242-.387,1.427-1.747,5.735-3.064,10.054-1.273,4.321-2.538,8.637-2.866,10.036-.672,2.9-.565,5.907-1.157,8.689-4.534,21.7-8.088,38.7-8.44,40.377-.431,2.617-1.191,5-1.776,7.542-1.316,5.294-4.142,22.32-8.832,42.273-1.25,5.343-4.391,10.5-5.645,16.146l-.857,3.61a35.311,35.311,0,0,1-5.445,4.208c-6.3,2.974-9.774,11.517-9.774,11.517-2.194,3.657-5.715,31.029,6.582,21.981-1.44,6.967-2.507,12.543-3.354,17.021a43.936,43.936,0,0,1-4.74,13.649,54.334,54.334,0,0,1-13.664,15.14,45.478,45.478,0,0,1-4.157,2.73c-6.736-6.723-25.966-2.117-27.118,6.823-.059.123-.131.287-.2.467a88.571,88.571,0,0,1-13.924-.636c-4.452-.411-9.271.4-13.69-1.147a138.368,138.368,0,0,1-17.069-7.08c-1.422-.744-2.735-1.365-4.137-2-2.412-1.381-4.18-1.7-4.314-.762a75.121,75.121,0,0,1-6.256-5.04,1.025,1.025,0,0,0,.382-.434c.429-.326.264-.608-1.337-3.061-1.288-1.6-2.107-3.1-3.523-4.793a27.376,27.376,0,0,1-3.423-6.11,83.978,83.978,0,0,0,24.172,19.695A32.041,32.041,0,0,0,47.1,686.234a28.09,28.09,0,0,0,5.951-7.637,128.929,128.929,0,0,0,1.925-19.887,199.985,199.985,0,0,0-2.933-38.283A113.441,113.441,0,0,1,49.8,596.36,76.6,76.6,0,0,1,53.123,577.2c4.247-13.916,11.062-26.928,15.74-40.7A104.262,104.262,0,0,0,75.04,508a124.341,124.341,0,0,0-2.245-28.814c-.9-4.85-2-9.656-3.2-14.439-1.132-4.5-2.676-8.871-3.949-13.328a132.411,132.411,0,0,1-4.811-24.652,101.7,101.7,0,0,1,8.122-49.453c6.318-14.283,15.479-27.1,23.431-40.482,2.528-4.249,5.017-8.622,7.252-13.115a229.427,229.427,0,0,1,9.61-46.587,401.531,401.531,0,0,0,15.8-56.99,435.83,435.83,0,0,0,6.6-59.813c.436-9.417.5-18.822,1.609-28.2a246.566,246.566,0,0,1,4.937-27.424c6.641-28.337,17.113-55.91,22.764-84.46,1.842,2.256,3.713,4.509,5.543,6.8q3.968,4.811,7.765,9.772l3.777,4.973,1.873,2.5.931,1.252.439.593.1.172c.213.231.056.408-.026.772l-.629,3.033-1.316,6.056q-1.374,6.055-2.743,12.086c-.867,4.624-.185,9.566-1.506,14.142-1.635,6.189-3.233,12.307-4.388,18.494-.352,1.609-.526,3.1-.736,4.65-.493,2.861-.174,4.637.79,4.36-.652,2.574-1.316,5.163-1.984,7.793a1.712,1.712,0,0,0-.6-.162c-.521-.192-.693-.064-1.747,1.414" transform="translate(125.394 31.702)" fill="#b2b0ff"/>
      <path id="Path_247" data-name="Path 247" d="M40.768,152.516c-4.5,2.874-9.23,5.912-14.234,9.143a54.464,54.464,0,0,1,5.64-4.226,68.435,68.435,0,0,1,8.594-4.917" transform="translate(388.21 238.851)" fill="#b2b0ff"/>
      <path id="Path_248" data-name="Path 248" d="M117.71,288.43c2.345,0,4.665,0,6.959.121,2.936.036,5.871.187,8.827.3v.1a80.173,80.173,0,0,1-15.786-.516" transform="translate(61.517 451.703)" fill="#b2b0ff"/>
      <path id="Path_249" data-name="Path 249" d="M76.467,33.921l.2-.631c-.962,5.166-2.091,10.716-3.359,16.587a60.421,60.421,0,0,1,.967-6.954,78.114,78.114,0,0,1,2.191-9" transform="translate(232.286 52.135)" fill="#b2b0ff"/>
      <path id="Path_250" data-name="Path 250" d="M103.265,143.033q-1.051,4.858-2.02,9.479a17.742,17.742,0,0,1,.352-4.052,22.952,22.952,0,0,1,1.668-5.427" transform="translate(134.018 224)" fill="#b2b0ff"/>
      <path id="Path_251" data-name="Path 251" d="M189.067,192.308c-.074.554-.141,1.1-.213,1.645a9.242,9.242,0,0,1-.47,1.776,7.749,7.749,0,0,1-2.543,2.122c-3.305,1.953-6.369,3.531-9.3,5.312C168.41,208.01,154.9,219.955,146,225.783c-7.619,4.865-16.346,7.85-24.485,11.848a68.764,68.764,0,0,0-8.594,4.917,54.46,54.46,0,0,0-5.64,4.226,198.8,198.8,0,0,1-16.061,13.744c-4.157,3.041-13.988,8.2-17.408,8.607a1.485,1.485,0,0,1-.593-.139c-.893-.454.069-1.973,2.371-3.741,1.209-1,2.348-1.976,3.705-2.92,5.058-3.762,10.431-7.139,15.917-10.464,4.129-2.389,7.108-6.4,11.034-9.074,14.062-8.868,28.755-16.926,42.764-25.938,6.174-3.839,12.2-7.875,18.532-11.363,3.074-1.889,6.846-4.557,12.515-8.663.713-.511,1.442-1.052,2.161-1.609l1.114-.855.482-.416a.946.946,0,0,0,.128-.139c.131-.2.085-.2.054-.642,0-.98-.046-2.127-.105-3.315-.264-4.806-.79-10.554-1.36-17.28-.262-3.759-1.842-25.661-2.225-29.43-.526-5.758.847-11.627.4-17.1-.418-5.1-.89-10.005-1.37-14.562l-.662-5.925c-.067-.529-.133-1.039-.2-1.537-.026-.234-.072-.47-.085-.688.056-.077.2-.172.139-.264a.778.778,0,0,0-.346.087,23.62,23.62,0,0,0-2.245,1.242l-3.423,2.032c-2.3,1.381-4.1,2.458-5.289,3.11-2.253,1.286-4.519,2.356-6.713,3.829-1.46.88-16.259,9.923-34.914,21.866-2.386,1.527-4.45,3.708-6.969,5.266-2.433,1.506-15.674,8.689-18.193,10.231-12.34,7.462-14.873,9.156-26.153,16.618A416.767,416.767,0,0,0,39.86,193.183c-1.257.89-7.719,3.975-8.986,4.845-4.28,2.966-6.184,5.91-10.405,8.979-3.423,2.5-7.834,3.782-11.37,6.123a53.729,53.729,0,0,1-5.381,2.964c-2.771,1.168-3.082,1.229-3.3.744a.993.993,0,0,1-.359-.506c-.239-.721.262-1.909,2.268-3.451,1.842-1.452,3.746-2.9,5.64-4.36q2.933-2.248,5.938-4.5,10.266-7.706,21.173-15.417c7.2-5.083,15.294-9.074,23.12-13.626,2.368-1.378,4.719-2.8,7.008-4.337,7.141-4.781,14.421-10.77,21.74-16.638a223.718,223.718,0,0,1,18.75-13.916c13.167-8.424,24.919-14.414,37.809-22.512,6.238-3.911,12.664-7.37,19.03-10.739l9.5-4.96c1.316-.657,3.808-2.053,5.812-2.936a9.585,9.585,0,0,1,2.807-.757,2.978,2.978,0,0,1,.642,0c.352.046.19.287.1.334-.2.049-.044.241.036.446l.264.6c1.345,9.99,2.456,18.247,3.521,26.148,1.021,7.426,1.989,14.514,2.784,22.589a278.751,278.751,0,0,1,1.509,37.311c-.1,2.356-.226,4.575-.436,6.7" transform="translate(307.463 153.729)"/>
      <path id="Path_252" data-name="Path 252" d="M93.5,319.764a44.442,44.442,0,0,0,4.157-2.733,54.327,54.327,0,0,0,13.664-15.137,43.87,43.87,0,0,0,4.74-13.649c.847-4.478,1.917-10.056,3.354-17.023a36.009,36.009,0,0,0,5.848-5.745c1.168-1.378,2.23-2.592,3.218-3.685-1.206,4.214-2.368,7.963-3.485,11.365L121.033,285.1c-.6,1.8-1.119,3.528-1.737,5.2q-.431,1.262-.852,2.492l-.955,2.4a80.77,80.77,0,0,1-8.163,16.851A47.165,47.165,0,0,1,95.8,325.291a7.981,7.981,0,0,0-2.3-5.527" transform="translate(128.661 409.984)"/>
      <path id="Path_253" data-name="Path 253" d="M47.983,383.339l.855-3.61c1.257-5.648,4.4-10.8,5.648-16.143,4.691-19.956,7.519-36.98,8.832-42.276.582-2.535,1.345-4.924,1.776-7.539.352-1.673,3.906-18.678,8.44-40.377.593-2.776.482-5.794,1.157-8.689.328-1.4,1.581-5.717,2.864-10.038,1.316-4.316,2.679-8.627,3.066-10.054,2.012-6.962,3.262-11.165,4.591-15.242.6-2.053,1.316-4.054,2.145-6.348.431-1.144.8-2.386,1.365-3.7s1.2-2.738,1.894-4.316c.544-1.342,1.383-2.561,2.04-3.826.359-.626.66-1.247,1.052-1.866a13.708,13.708,0,0,1,1.493-1.753,46.5,46.5,0,0,1,6.318-4.971c4.139-2.835,7.919-5.266,11.109-7.4l11.388-7.755c1.316-.788,7.993-3.346,9.315-4.126,4.475-2.635,6.582-5.427,10.975-8.222,3.58-2.248,8.022-3.295,11.688-5.412a51.125,51.125,0,0,1,5.517-2.682c2.828-1.021,3.143-1.052,3.341-.57a.982.982,0,0,1,.334.526c.2.729-.349,1.883-2.448,3.323-10.7,7.552-22.23,14.963-34.321,22.114a161.067,161.067,0,0,1-15.563,7.768,72.893,72.893,0,0,0-15.242,8.424l-1.055.965c-.311.341-.562.708-.849,1.052-.513.79-.942,1.745-1.409,2.633a34.151,34.151,0,0,0-2.333,5.676,54.66,54.66,0,0,0-1.74,6.053c-.557,2.04-.991,4.134-1.381,6.248-1.7,8.383-2.825,16.957-4.691,24.719-3.505,15.124-7.352,27.726-10.444,42.6-2.961,14.408-7.6,28.142-10.336,41.7-2.792,13.87-4.437,24.224-6.5,35.155-3.118,2.815-6.277,5.686-8.894,7.963" transform="translate(208.714 260.155)"/>
      <path id="Path_254" data-name="Path 254" d="M171.032,298.165c-2.956-.113-5.892-.264-8.827-.3-2.294-.113-4.614-.115-6.959-.123s-4.752,0-7.162-.136A46.411,46.411,0,0,1,134,295.06l-.069-.023A40.053,40.053,0,0,1,124.448,290a40.986,40.986,0,0,1-4.239-3.439,15.829,15.829,0,0,1-2.41-2.918,1.292,1.292,0,0,1-.079-.624c.136-.942,1.9-.618,4.314.762,1.4.636,2.715,1.257,4.137,2a138.145,138.145,0,0,0,17.07,7.08c4.419,1.545,9.238.742,13.69,1.147a88.277,88.277,0,0,0,13.924.636c-.051.116-.092.213-.149.352.139,1.173.236,2.207.328,3.167" transform="translate(23.982 442.389)"/>
      <path id="Path_255" data-name="Path 255" d="M126.362,129.829c.926-5.071,4.532-15.581,6.738-18.219a1.588,1.588,0,0,1,.262-.172c-2.8,11.527-5.792,23.7-8.866,36.374a128.918,128.918,0,0,1,1.866-17.983" transform="translate(44.239 174.52)"/>
      <path id="Path_256" data-name="Path 256" d="M133.54,156.138a145.319,145.319,0,0,1,7.493-21.183c-3.567,14.745-7.206,29.964-10.819,45.458,1.029-8.4,1.935-17.8,3.326-24.275" transform="translate(21.895 211.349)"/>
      <path id="Path_257" data-name="Path 257" d="M141.273,420.764a67.969,67.969,0,0,0,12.753,29.31,27.358,27.358,0,0,0,3.423,6.107c1.422,1.7,2.235,3.192,3.523,4.793,1.611,2.453,1.765,2.735,1.337,3.061a1.024,1.024,0,0,1-.382.434c-.544.354-1.552.264-3.043-.872-.262-.2-.541-.431-.834-.7a62.926,62.926,0,0,1-19.874-36.238c-2.1-11.609-.454-23.546-.439-35.361V390.2c-.031-14.262-1.524-30.724-.48-45.435.105-1.473.2-2.951.367-4.385,1.758-15.609,4.8-28.481,7.034-43.546,2.168-14.591,6.338-28.5,8.63-42.127,3.185-18.735,4.555-31.067,7.634-47A366.976,366.976,0,0,1,172.294,163.4c-22.61,99.979-41.742,205.124-31.021,257.362" transform="translate(-26.49 255.899)"/>
      <path id="Path_258" data-name="Path 258" d="M159.263,2.977c-14.829,57.557-25.874,99.076-37.023,145.271-3.187,13.2-6.379,26.78-9.674,41.221q-1.647,7.225-3.331,14.745-2.525,11.3-5.163,23.433c-3.087,14.219-7.108,31.239-11.694,50.21-.567-.477-.9-1.686-.457-3.99,2.294-12.864,4.945-26.238,7.824-39.936,2.389-11.2,6.846-22.227,9.441-33.767,3.423-15.55,4.316-34.429,8.134-50.074,3.687-15.191,8.078-27.631,11.753-42.389,3.564-14.283,8.812-27.793,12.112-41.221,4.524-18.445,6.626-30.659,10.516-46.392.973-3.929,1.919-7.575,2.846-10.967l1-3.757.554-2.037c.249-.526.526-.957.79-1.432A3.5,3.5,0,0,1,158.681.023,4.314,4.314,0,0,1,161.314.6a21.039,21.039,0,0,1,5.078,4.426l.88.983.69.808,1.316,1.581c1.706,2.089,3.231,4.072,4.639,5.953.208.264.4.529.6.808-8.36-8.322-14.886-13.587-15.253-12.179" transform="translate(87.193 0)"/>
      <path id="Path_259" data-name="Path 259" d="M81.385,108.935c.213-1.55.385-3.041.736-4.652,1.155-6.184,2.753-12.3,4.388-18.494,1.316-4.573.639-9.515,1.506-14.142q1.37-6.032,2.743-12.084l1.316-6.056.631-3.031c.082-.367.239-.544.026-.775l-.1-.172-.439-.59-.931-1.255-1.873-2.5L85.609,40.21q-3.807-4.95-7.765-9.769C76,28.152,74.159,25.9,72.3,23.641q.547-2.779,1.034-5.571c5.058,5,10.269,10.139,13.723,14.319a73.041,73.041,0,0,1,5.319,7.588c.816,1.316,1.606,2.651,2.384,4s1.463,2.6,2.576,4.391c.416.359-.015.921-.08,1.375L96.851,51.1l-.726,2.217-1.193,3.8-.2.634a78.436,78.436,0,0,0-2.191,9,60.421,60.421,0,0,0-.967,6.954A161.2,161.2,0,0,1,89.6,94.814C88.67,99.9,84.95,110.395,82.7,113a1.387,1.387,0,0,1-.526.3c-.96.28-1.278-1.5-.788-4.357" transform="translate(214.019 28.299)"/>
      <path id="Path_260" data-name="Path 260" d="M120.274,156.148c-2.184,8.2-6.033,15.753-7.932,23.5-.77,3.12-1.378,5.92-1.917,8.576-1.316,6.4-2.184,11.876-3.754,18.291-4.414,18.134-9.271,25.43-11.517,33-1.511,5.266-1.055,15.928-2.23,21.935-1.147,5.089-4.406,9.669-6.5,14.547a22.873,22.873,0,0,0-1.668,5.432,17.742,17.742,0,0,0-.352,4.052,69.941,69.941,0,0,1,.385,12.394A21.64,21.64,0,0,1,80.572,308.4a1.382,1.382,0,0,1-.467.169c-.911.159-1.486-.9-1.411-2.589a18.969,18.969,0,0,1,.062-2.753,59.8,59.8,0,0,1,1.937-10.862c.79-2.653-.4-5.661.021-8.386,1.083-4.691,2.433-9.333,3.716-13.99,1.347-4.642,2.658-9.287,3.646-14,1.006-4.077,1.776-8.2,3.136-12.166,1.055-4.047,1.355-10.583,4.85-25.9.485-2.145,3.949-14.383,4.527-16.49.855-3.236,3.546-5.938,4.434-8.979,3.344-11.36,5.207-21.168,6.228-24.149a39.373,39.373,0,0,0,1.352-4.265l6.21-22.974c.426-1.581.164-3.395.649-5.037.47-1.581,3.839-9.659,4.378-11.273,2.633-7.9,3.066-9.607,5.089-17.149a155.791,155.791,0,0,0,4.167-24.562c.2-.87,2.3-4.537,2.528-5.394.744-2.912-.074-5.06.565-8.009.529-2.392,2.574-4.455,3.308-6.79a17.881,17.881,0,0,1,1.547-3.241c1.055-1.475,1.229-1.606,1.719-1.419a1.712,1.712,0,0,1,.6.162c.672.305,1.178,1.073.9,2.515-1.27,7.454-2.848,15.189-4.691,23.069-1.486,6.456-5.312,12.425-7.041,19.027a90.768,90.768,0,0,0-2.061,13.9,90.265,90.265,0,0,1-2.3,15.158c-2.422,8.681-5.625,15.65-7.888,24.121" transform="translate(150.862 91.031)"/>
      <path id="Path_261" data-name="Path 261" d="M256.239,50.264c-5.663,28.55-16.123,56.123-22.764,84.46a246.613,246.613,0,0,0-4.937,27.426c-1.109,9.371-1.175,18.776-1.609,28.193a436.227,436.227,0,0,1-6.6,59.813,401.526,401.526,0,0,1-15.8,56.99,229.428,229.428,0,0,0-9.61,46.587c-2.235,4.493-4.724,8.866-7.252,13.115-7.955,13.38-17.113,26.2-23.431,40.482a101.7,101.7,0,0,0-8.122,49.453,132.41,132.41,0,0,0,4.811,24.652c1.275,4.46,2.823,8.832,3.949,13.331,1.2,4.781,2.3,9.589,3.195,14.437a124.2,124.2,0,0,1,2.248,28.814,104.145,104.145,0,0,1-6.177,28.5c-4.675,13.775-11.493,26.79-15.738,40.7a76.389,76.389,0,0,0-3.328,19.156,113.439,113.439,0,0,0,2.245,24.067,200.4,200.4,0,0,1,2.936,38.283,129.22,129.22,0,0,1-1.927,19.887,28.052,28.052,0,0,1-5.953,7.637,32.034,32.034,0,0,1-20.76,7.732,83.944,83.944,0,0,1-24.172-19.692,67.91,67.91,0,0,1-12.753-29.31C73.983,622.747,93.118,517.6,115.7,417.61q3.133-13.853,6.32-27.526c3.616-15.491,7.254-30.713,10.819-45.458q2.952-12.229,5.822-23.98c3.087-12.669,6.053-24.847,8.866-36.374.667-2.735,1.316-5.422,1.96-8.081,4.583-18.971,8.6-35.982,11.691-50.21q2.644-12.163,5.163-23.433,1.686-7.537,3.331-14.745c3.295-14.444,6.487-28.024,9.674-41.221C190.5,100.374,201.543,58.865,216.372,1.3c.364-1.409,6.892,3.857,15.242,12.184a257.565,257.565,0,0,1,25.879,29.969c-.069.416-.151.829-.226,1.242q-.481,2.794-1.029,5.571" transform="translate(30.086 1.676)" fill="#f3f2ff"/>
      <path id="Path_262" data-name="Path 262" d="M165.394,370.636c-10.906,1.64-32.122-.526-44.152-.662-2.943-.164-6.487,1.121-7.147-1.316a4.161,4.161,0,0,1-.054-2.489c1.106-3.87,7.785-6.156,11.27-6.782,3.575-.5,6.056-.89.044-4.011C111.1,348,103.071,344.709,92.938,335.132c-5.93-7.7-5.64-10.713-6.62-18.881-1.157-9.638-.557-11.322-1.283-19.015v-.095c-.092-.957-.2-1.991-.339-3.159.056-.139.1-.236.149-.352.072-.18.144-.341.2-.467,1.165-8.953,20.4-13.546,27.118-6.821a7.962,7.962,0,0,1,2.281,5.543c0,.308.028.613,0,.944-.788,16.323-1.186,4.3-1.578,12.879-.567,12.584.054,11.565-.074,17.642-.038,1.881,16.772,13.331,21.283,16.556,15.64,11.8,22.82,16.556,34.691,27.188a5.834,5.834,0,0,1,.434.439c2.009,2.261-2.207,2.73-3.808,3.1" transform="translate(109.997 443.407)"/>
      <path id="Path_263" data-name="Path 263" d="M175.662,197.32c.2,2.7.493,5.024.811,7.213a6.914,6.914,0,0,1-1.486.875c-.772-.426-1.55-.849-2.325-1.273l-.439-.246c-.19-6.374-.952-11.5-.844-13.277a16.4,16.4,0,0,0,.077-2.884c-.031-.634-.28-7.082-.639-15.309-.046-1.052-.813-2.107-.821-3.213,0-1.052.9-6.69.955-7.788a90.337,90.337,0,0,0-.015-11.121,8.017,8.017,0,0,1,2.764.208c1.139,4.791,3.338,9.864,3.48,14.462.174,5.794-.89,10.716-.626,16.359.251,5.458-1.265,10.87-.89,15.994" transform="translate(-116.355 235.315)"/>
      <path id="Path_264" data-name="Path 264" d="M42.968,194.883c.844-.634,1.283-1.863,2.194-2.489s6.035-3.02,6.975-3.6a90.465,90.465,0,0,0,9.184-6.274,8.078,8.078,0,0,1,1.381,2.4c-3.318,3.636-6.271,8.309-10.005,11.016-4.691,3.41-9.356,5.3-13.872,8.689-4.37,3.285-9.695,5.073-13.721,8.268-2.107,1.678-3.875,3.236-5.5,4.74a6.772,6.772,0,0,1-1.56-.734c-.08-.875-.169-1.758-.262-2.633-.018-.164-.031-.331-.049-.5,5.163-3.749,8.968-7.257,10.5-8.163a16.622,16.622,0,0,0,2.428-1.56c.523-.413,5.717-4.247,12.312-9.174" transform="translate(388.874 285.848)"/>
      <path id="Path_265" data-name="Path 265" d="M195.724,165.754c1.8,4.673,2.191,9.051,4.029,13.569,1.781,4.375,1.884,9.3,3.687,13.364.944,2.135,1.881,3.949,2.8,5.612a7.263,7.263,0,0,1-1.147,1.219c-.844-.09-1.7-.172-2.548-.262l-.482-.051c-1.978-5.142-4.142-9.069-4.545-10.557a12.342,12.342,0,0,0-.742-2.371c-.208-.508-2.266-5.692-4.927-12.286-.339-.847-1.36-1.447-1.678-2.348s-1.042-5.769-1.3-6.682a67.118,67.118,0,0,0-3.161-9.076,9.182,9.182,0,0,1,2.664-.762c2.422,3.523,5.923,6.923,7.354,10.631" transform="translate(-185.706 242.934)"/>
      <path id="Path_266" data-name="Path 266" d="M48.557,203.979c-.47.79-3.759,4.5-4.293,5.284a67.275,67.275,0,0,0-4.945,8.24,9.091,9.091,0,0,1-2.292-1.552c1.152-4.124,1.517-8.992,3.446-12.469,2.433-4.38,5.545-7.483,7.834-11.789,2.215-4.172,5.933-7.406,7.9-11.391,1.032-2.094,1.814-3.967,2.515-5.748a7.287,7.287,0,0,1,1.671.1c.475.706.96,1.414,1.437,2.12l.264.4c-2.679,4.817-4.306,8.989-5.191,10.269a12.26,12.26,0,0,0-1.352,2.107c-.264.482-2.918,5.384-6.274,11.655-.423.785-.231,1.953-.719,2.769" transform="translate(339.956 273.347)"/>
      <path id="Path_267" data-name="Path 267" d="M58.124,355.266c-12.3,9.048-8.781-18.322-6.582-21.978,0,0,3.469-8.545,9.777-11.514a35.916,35.916,0,0,0,5.445-4.213c2.633-2.276,5.792-5.148,8.92-7.962a102.068,102.068,0,0,1,12.009-9.828c9.012-4.9,13.4-13.9,22.143-19.081,5.291-6.215,9.651-11.755,14.686-18.255,5.679-8.863,13.587-18.668,20.09-26.782.264-.96-.616-1.732-1-2.548-1.845-3.161-2.3-7.57,1.555-9.317,2.107-1.127,5.2-1.106,6.88-2.948,1.8-3.1,1.64-5.715,4.352-8.968,1.286-2.009,1.842-3.731,4.416-3.734,1.211,0,2.4-.2,2.895,1.168,1.121,4.457-3.685,7.516-4.621,11.586-.205,1.247.475,1.375,1.283,1.986A47.354,47.354,0,0,0,166.1,227.9c1.935,1.021,5-1.273,7.108-1.948,1.678-.526,4.688-1.052,6.056.128,2.053,1.74,1.437,3.508-.49,5.047a97.58,97.58,0,0,0-19,14.316,8.7,8.7,0,0,1-3.593,2.664c-3.749,5.032-6.962,11.919-12.23,19.2A162.317,162.317,0,0,1,127.69,289.3a141.552,141.552,0,0,1-11.735,11.776,154.931,154.931,0,0,1-12.825,11.865c-5.165,6.238-10.731,9.772-16.772,15.225-9.074,8.735-12.274,10.108-19.174,17.691-.991,1.085-2.053,2.3-3.22,3.685a36.041,36.041,0,0,1-5.84,5.725" transform="translate(189.938 325.939)"/>
      <path id="Path_268" data-name="Path 268" d="M130.315,317.836c7.077.529,14.216,1.093,21.386,1.055,18.447-.064,39.964-3.462,58.586-3.423,1.8,0,3.562.028,5.312.054a4.161,4.161,0,0,0,.054,2.489c.657,2.433,4.214,1.147,7.147,1.316,12.045.126,33.246,2.3,44.152.665,1.606-.375,5.822-.844,3.829-3.11,13.69.4,27.118,1.493,40.1,1.35,8.424-.092,15.712-.3,22.561-.526A11.22,11.22,0,0,1,336,319.221c-1.422.754-2.833,1.517-4.249,2.276-.264.144-.541.282-.811.429-19.879-.056-35.922.508-41.463.334-3.015-.049-5.907-.3-8.974-.19-1.978,0-22.1,0-47.767.054-3.287,0-6.662.734-10.1.7-3.318-.036-20.734-1.16-24.149-1.255-16.7-.462-20.228-.434-35.9-.408-26.4.046-47.416,2.3-49.82,2.343-1.786.033-10.005-1.052-11.776-1.052-6.038.028-9.795,1.373-15.851,1.491-4.927.1-9.972-1.368-14.886-1.491a68.106,68.106,0,0,1-7.08-.685c-3.405-.649-3.736-.79-3.623-1.316-.344-.9.68-2,4.457-2.12q11-.466,22.44-.79,12.156-.335,24.711-.526c6.333-.085,12.725.351,19.161.824" transform="translate(8.43 494.044)"/>
      <path id="Path_269" data-name="Path 269" d="M130.567,190.166q1.89-8.61,3.7-17.231,3.687-17.379,7.5-34.714c.38-1.727-1.878-2.517-2.32-.611q-4.053,17.5-8.276,34.955-2.063,8.557-4.06,17.131c-1.316,5.561-3.161,11.247-2.871,16.941.1,1.876,2.633,2.558,2.946.3.8-5.648,2.161-11.2,3.387-16.769" transform="translate(36.549 213.775)"/>
      <path id="Path_270" data-name="Path 270" d="M139.433,212.366c-2.04.026-3.726-.182-5.956.021-4.113.262-8.329.657-12.443,1.08-5.063.508-.911.074-17.018,1.229l-2.836.3-.264,3.487c3.564.757,7.108,1.509,10.649,2.525,6.033,1.6,12.079,2.841,18.1,3.983,1.581.341,3.015.529,4.521.749,3.241.567,5.03.2,3.847-.942-2.633-1.9-13.092-4.375-18.016-5.332-6.092-1.386-12.186-2.9-18.276-4.411l-.262,3.454,8.424-.631c11.989-1.316,13.2-.916,29.14-2.712,3.192-.377,4-1.468,3.541-2.125-.015-.436-.251-.454-3.149-.67" transform="translate(95.409 332.473)"/>
      <path id="Path_271" data-name="Path 271" d="M136.884,207.787a41.117,41.117,0,0,0,4.126,3.2c3.023,1.966,6.2,3.854,9.325,5.643,1.563.9,1.968,1.137,2.756,1.627l.688.434.364.231.059.049c.09.077.177.154.151.169s-.044.018-.139-.013l-.056-.018a.519.519,0,0,1,.244.139c.013.039-.085.067-.226.051l-1.735-.264-2.089-.377c-5.353-.937-10.7-1.511-16.01-1.989-1.388-.167-2.658-.2-3.985-.264-2.856-.21-4.391.344-3.295,1.352,2.4,1.581,11.676,2.915,16.023,3.331l7.565,1.073,11.9,1.789a16.8,16.8,0,0,0,.824-1.581,11.244,11.244,0,0,1,.352-1.288,4.224,4.224,0,0,0,.056-.441l-9.051-5.3-4.142-2.512c-2.764-1.7-5.958-3.626-11.727-7.044-2.368-1.409-3.387-1.052-3.641-.341-.318.282-.177.567,1.665,2.35" transform="translate(8.146 320.752)"/>
      <path id="Path_272" data-name="Path 272" d="M135.841,225.748a4.737,4.737,0,0,1,4.709,3.436,18.1,18.1,0,0,1,1.139,5.756c0,1.658.126,2.62-1.347,3.654a4.833,4.833,0,0,1-3.988.847c-2.689-.772-3.192-4.819-3.762-7.008a6.6,6.6,0,0,1,.323-4.355c.631-.947,2.256-1.173,2.507-2.33" transform="translate(15.717 353.535)"/>
    </g>
  </g>
</svg>
