<?xml version="1.0" encoding="UTF-8"?><svg id="Layer_1" xmlns="http://www.w3.org/2000/svg" width="464.8" height="237.16" xmlns:xlink="http://www.w3.org/1999/xlink" viewBox="0 0 464.8 237.16"><defs><style>.cls-1{fill:none;}.cls-2{clip-path:url(#clippath);}</style><clipPath id="clippath"><rect class="cls-1" width="464.8" height="237.16"/></clipPath></defs><g class="cls-2"><g id="Group_6"><path id="Path_2" d="m50.87,44.32c3.89,1.48,7.43,3.74,10.42,6.63,2.66,2.63,4.75,5.79,6.12,9.28,1.31,3.29,2,6.8,2.02,10.34h-16.67c.06-3.68-1.6-7.17-4.48-9.46-2.99-2.52-7.13-3.78-12.43-3.78-2.14,0-4.27.2-6.36.62-1.91.37-3.77,1.01-5.5,1.9-1.49.75-2.79,1.82-3.8,3.15-.93,1.28-1.42,2.84-1.39,4.42,0,3.03,1.54,5.27,4.62,6.75s7.97,2.89,14.7,4.23c4.75.9,9.46,2.06,14.09,3.47,3.78,1.13,7.37,2.81,10.66,4.99,2.86,1.93,5.2,4.54,6.82,7.58,1.7,3.49,2.52,7.34,2.39,11.22.06,3.95-.81,7.86-2.52,11.42-1.7,3.43-4.19,6.42-7.26,8.71-3.44,2.52-7.31,4.38-11.43,5.49-4.9,1.31-9.95,1.95-15.02,1.9-4.36,0-8.69-.64-12.87-1.88-4.16-1.17-8.07-3.08-11.55-5.64-3.43-2.54-6.25-5.8-8.26-9.55-2.2-4.24-3.28-8.97-3.16-13.74h16.66c-.06,2.37.55,4.71,1.76,6.75,1.17,1.88,2.72,3.5,4.55,4.74,1.89,1.28,3.98,2.24,6.18,2.85,2.18.61,4.43.93,6.69.94,2.37,0,4.74-.21,7.07-.63,2.2-.36,4.33-1.06,6.31-2.07,1.74-.87,3.27-2.12,4.48-3.65,1.16-1.54,1.76-3.43,1.7-5.35,0-1.31-.32-2.61-.94-3.76-.81-1.34-1.97-2.45-3.34-3.2-2.01-1.15-4.15-2.05-6.38-2.7-3.3-1.01-6.65-1.81-10.05-2.4-4.02-.77-8-1.7-11.92-2.83-3.68-1.03-7.19-2.6-10.41-4.66-3-1.93-5.52-4.51-7.39-7.55-2.01-3.54-3-7.56-2.84-11.63-.05-3.59.77-7.13,2.4-10.33,1.63-3.15,3.96-5.88,6.81-8,3.2-2.34,6.79-4.11,10.6-5.21,4.51-1.31,9.19-1.94,13.89-1.89,5.12-.11,10.22.74,15.02,2.52"/><rect id="Rectangle_12" x="82.58" y="67.15" width="16.67" height="65.02"/><path id="Path_3" d="m175.13,128.84c.08,4.97-.71,9.91-2.33,14.6-1.41,4.12-3.69,7.9-6.68,11.07-2.99,3.08-6.6,5.47-10.6,7.02-4.5,1.69-9.28,2.52-14.09,2.45-3.76.01-7.51-.53-11.11-1.63-3.39-1.04-6.61-2.6-9.53-4.61-2.78-1.95-5.19-4.36-7.13-7.15-1.94-2.79-3.23-5.97-3.79-9.32h18.3c.51,1.26,1.31,2.38,2.33,3.27,1.04.91,2.19,1.67,3.42,2.28,1.2.58,2.48,1.01,3.79,1.26,1.22.24,2.46.36,3.71.37,5.9,0,10.21-1.77,12.93-5.3,2.76-3.54,4.13-8.21,4.13-14.01v-3.16c-2.49,2.42-5.43,4.33-8.66,5.62-3.35,1.33-6.92,2-10.52,1.96-4.12.02-8.19-.86-11.93-2.59-3.72-1.72-7.07-4.14-9.86-7.15-2.87-3.14-5.14-6.79-6.69-10.75-1.66-4.27-2.49-8.82-2.46-13.4-.04-4.6.8-9.18,2.46-13.47,1.54-3.99,3.81-7.66,6.69-10.82,2.79-3,6.14-5.43,9.86-7.14,7.27-3.28,15.57-3.45,22.96-.45,3.35,1.46,6.38,3.57,8.91,6.2v-6.95h15.9v61.8Zm-17.97-36.35c-.84-2.17-2.07-4.18-3.62-5.91-1.5-1.66-3.3-3-5.32-3.96-4.09-1.93-8.84-1.93-12.93,0-2.01.95-3.81,2.27-5.32,3.9-1.57,1.72-2.8,3.73-3.63,5.91-.88,2.35-1.32,4.85-1.31,7.36-.02,2.47.42,4.93,1.31,7.24.85,2.13,2.08,4.09,3.63,5.78,1.5,1.62,3.31,2.93,5.32,3.84,2.03.93,4.23,1.4,6.46,1.39,2.24,0,4.45-.49,6.47-1.45,2.01-.95,3.81-2.28,5.32-3.91,1.56-1.69,2.79-3.65,3.62-5.78.89-2.27,1.34-4.68,1.32-7.11.02-2.49-.43-4.97-1.32-7.3"/><path id="Path_4" d="m246.01,132.17h-16.65v-38c-.03-1.21-.17-2.41-.4-3.6-.26-1.51-.79-2.96-1.56-4.29-.87-1.47-2.11-2.69-3.59-3.55-2.02-1.06-4.3-1.56-6.58-1.45-3.43-.14-6.77,1.19-9.16,3.66-2.33,2.49-3.58,5.8-3.48,9.21v38h-16.65v-64.76h15.91v6.28c2.04-2.38,4.52-4.35,7.3-5.8,2.95-1.46,6.2-2.19,9.49-2.13,3.58-.04,7.12.67,10.41,2.08,3.07,1.32,5.8,3.29,8.02,5.79,2.28,2.62,4.02,5.68,5.1,8.99,1.26,3.77,1.88,7.72,1.84,11.7v37.85Z"/><path id="Path_5" d="m275.69,9.82c0,5.42-4.4,9.82-9.82,9.82s-9.82-4.4-9.82-9.82c0-5.42,4.39-9.81,9.81-9.82,5.42,0,9.82,4.38,9.83,9.8v.02"/><path id="Path_6" d="m187.95,147.65h58.06v16.38h-19.51v72.49h-19.04v-72.49h-19.51"/><rect x="257.77" y="67.16" width="16.65" height="169.24"/><path id="Path_7" d="m389.52,200.59v35.93h-17.9v-36.56c0-9.78-3.55-14.85-11.3-14.85s-12.95,5.72-12.95,15.62v35.8h-17.9v-36.56c0-9.78-3.55-14.85-11.43-14.85s-12.82,5.97-12.82,15.74v35.67h-17.9v-65.38h15.61l1.65,8.13c4.06-5.08,9.65-8.76,19.3-8.89,8,0,15.36,2.79,19.42,11.04,4.7-6.98,12.57-11.04,22.47-11.04,12.44,0,23.74,6.86,23.74,30.22"/><path id="Path_8" d="m431.16,170.38c19.8,0,33.39,12.19,33.64,31.36.02,2.04-.15,4.08-.51,6.09h-47.36v.51c.76,9.39,6.09,15.23,15.36,15.23,7.24,0,12.32-3.17,13.84-9.27h17.65c-2.03,12.7-13.08,22.85-30.22,22.85-22.09,0-35.29-13.08-35.29-33.26s13.2-33.52,32.88-33.52m15.74,25.77c-1.27-8-6.85-12.44-14.98-12.44s-13.58,4.7-14.6,12.44h29.58Z"/></g></g></svg>