<svg id="Group_29" data-name="Group 29" xmlns="http://www.w3.org/2000/svg" xmlns:xlink="http://www.w3.org/1999/xlink" width="555.22" height="499.002" viewBox="0 0 555.22 499.002">
  <defs>
    <clipPath id="clip-path">
      <rect id="Rectangle_45" data-name="Rectangle 45" width="555.221" height="499.002" fill="none"/>
    </clipPath>
  </defs>
  <g id="Group_28" data-name="Group 28" clip-path="url(#clip-path)">
    <path id="Path_11" data-name="Path 11" d="M126.857,35.379c13.481-4.494,67.012-19.327,109.849,3.744s49.662,39.4,49.662,39.4a90.277,90.277,0,0,1,12.483,12.9c4.95,6.6,33.766,49.932,32.123,96.056s-35.036,107.623-68.387,137.312-79.557,49.014-145.9,42.732l-20.928-5.7-11.381-5.6-9.049-5.761-11.546-7.408,9.07-19.786L152.9,162.641,135.054,58.367Z" transform="translate(106.409 44.271)" fill="#ffcfbf"/>
    <path id="Path_12" data-name="Path 12" d="M184.265,28.023a2.21,2.21,0,0,0,2.081.75c6.052-.52,11.338,2.079,16.643,4.16a83.8,83.8,0,0,1,23.594,15.354,33.443,33.443,0,0,1,8.592,13.94,79.7,79.7,0,0,1,3.141,16.643,178.614,178.614,0,0,1,1.705,18.559,118.038,118.038,0,0,0,11.65,45.769c3.226,6.845,7.034,13.356,10.257,20.181a72.244,72.244,0,0,1,7.53,30.687,14.19,14.19,0,0,0,.416,4.16,7.656,7.656,0,0,1,.147,4.16,10.609,10.609,0,0,0-.563,3.183c.4,9.572-3.349,17.913-8.029,25.86-6.7,11.381-15.915,20.7-25.548,29.564S215.2,277.327,204.82,285.42a109.676,109.676,0,0,0-11.525,11.3c-7.034,7.365-11.111,16.5-15.541,25.425a48.775,48.775,0,0,1-24.8,24.029,52.587,52.587,0,0,1-18.351,4.285h-.374c-6.073,1.206-12.878,2.642-18.724.646-.582-.208-1.414-1.457-1.748-1a93.618,93.618,0,0,1-29.772-23.218c-1.436-1.6-4.867-6.927-6.532-8.32a22.134,22.134,0,0,1-3.474-4.662c-.79-1.041-1.705-1.956-2.559-2.954a52.608,52.608,0,0,1-7.989-12.752s-1.54-3.143-2.372-4.953c-1.289-2.807-2.7-5.574-4.013-8.32-5.513-11.653-8.2-24.155-11.215-36.555a153.987,153.987,0,0,1-3.1-50.513c.811-9.259,2.538-18.372,3.995-27.525a108.246,108.246,0,0,1,9.235-30.9c2.455-4.993,4.889-9.988,7.074-15.085a117.531,117.531,0,0,1,9.841-18.327c1.27-1.937,18.039-22.492,23.57-28.752,7.261-8.2,14.564-16.208,23.72-22.45a195.805,195.805,0,0,1,47.6-22.884,86.952,86.952,0,0,1,16.5-3.912" transform="translate(69.911 46.754)" fill="#fef6f0"/>
    <path id="Path_13" data-name="Path 13" d="M94.456,48.56s-34.6,10.61-62.519,48.5S.96,194.63.96,194.63a99.172,99.172,0,0,0,11.213-2.081c7.429-1.641,32.395-14.562,39.677-22.073s32-41.339,36.115-58.649,6.6-46.436,6.6-46.436Z" transform="translate(1.602 81.019)" fill="#fef6f0"/>
    <path id="Path_14" data-name="Path 14" d="M438.85,494c1.705-3.661,1.436-4.579-1.665-6.241a25.6,25.6,0,0,0-5.948-2.415c-6.826-1.913-13.606-3.995-20.515-5.617-10.588-2.516-17.081-9.153-21.054-19.055-7.616-18.975-14.791-38.137-23.613-56.611-4.037-8.446-7.616-17.123-11.693-25.548-9.881-20.494-19.015-41.339-28.232-62.166a6.232,6.232,0,0,1,0-6.343c2.268-3.768,4.16-7.8,6.367-11.61,8.237-14.063,12.4-29.417,14.479-45.27.6-4.662.459-9.342.915-13.983a123.642,123.642,0,0,0-.624-26.337,104.5,104.5,0,0,0-6.241-23.135,8.64,8.64,0,0,1-.539-4.68c.416-2.247.6-4.536,1.145-6.74,3.493-14.564,6.927-29.337,9.9-44.128,2.287-11.421,5.929-22.511,8.32-33.932Q366.47,68.542,374.9,37.314a37.448,37.448,0,0,1,7.053-13.833c3.5-4.411,6.887-8.9,10.3-13.38a15.794,15.794,0,0,0,2.6-4.512A3.952,3.952,0,0,0,393.932.8a4.571,4.571,0,0,0-4.95-.144A10.062,10.062,0,0,0,386.9,2.424c-2.5,2.228-4.451,4.953-6.74,7.386-1.6,1.686-2.351,1.436-4.16.416-4.328-2.538-7.554-.56-7.867,4.536a19.152,19.152,0,0,0,0,2.412A29.072,29.072,0,0,1,367.01,27.1q-2.93,10.863-5.721,21.764c-8.32,32.245-14.834,64.91-23.322,97.136-1.809,6.906-3.37,13.876-5.054,20.8a32.85,32.85,0,0,1-4.974-8.32A89.257,89.257,0,0,0,313.5,134.973a8.825,8.825,0,0,0-5.265-3.725c6.116,3.848,25.091,35.68,31.333,62.727a133.718,133.718,0,0,1-2.081,70.735c-6.241,20.806-27.047,76.979-62.415,104.023s-47.85,35.37-114.03,42.609-105.75-45.958-105.75-45.958a70.318,70.318,0,0,0,9.737,12.232,153.476,153.476,0,0,0,27.9,20.806,113.825,113.825,0,0,0,20.68,9.633c6.906,2.185,14.023,3.432,21.075,4.953a87.741,87.741,0,0,0,26.359,1.289c11.693-1.041,23.4-1.748,35.077-2.871.355,0,.5.187.291,1.019,0,0-.352.707-.707,1.27-1.206,1.913-2.391,3.848-3.682,5.74-13.689,19.933-30.292,37.449-45.977,55.821a26.642,26.642,0,0,1-13.67,8.736,27.8,27.8,0,0,0-4.16,1.518c-2.247,1.022-4.307,2.249-4.39,5.161,0,1.289-.771,1.809-2.081,1.769-6.845-.1-13.5,1.684-20.325,1.935a2.59,2.59,0,0,0-1.35.235,2.626,2.626,0,0,0-1.043.889,26.646,26.646,0,0,0,11.549.958,241.641,241.641,0,0,1,26.047-.355c4.39,0,17.081-1.062,21.47-.894,8.323.331,16.518.894,24.84.6,9.486-.334,10.674-1,20.181-.187a15.818,15.818,0,0,0,2.412,0c4.39-.291,13.15.1,17.54,0,25.86-.438,46.975,1.913,72.816,2.079,5.638,0,15.186-.165,20.8,0,12.608.355,23.7-1.372,36.307-1.228a29.657,29.657,0,0,1,3.6.147c6.241.374,14.169.873,20.432,1.081,9.881.291,20.179.667,30.081,1.249a5.521,5.521,0,0,0,1.187,0,278.509,278.509,0,0,1,42.628-2.807h8.406a3.959,3.959,0,0,0,2.039-.307,3.914,3.914,0,0,0,1.6-1.3c-8.342-2.079-16.123-.208-24.112-.56M141.9,491.358c3.226.312,6.45-2.289,10.049.248-3.6-.021-6.783.624-10.049-.248m133.149-11.923c-3.995.229-8.008.478-12,.811a124.679,124.679,0,0,0-20.806,3.851c-5.243,1.332-6.241,3.557-4.931,9.235-5.969.438-11.877,1.6-17.809.229-5.428-1.27-10.943-.5-16.392-1.041a290.262,290.262,0,0,0-31.207-1.665c-1.227,0-2.394.147-2.58-1.662s-1.748-2.6-3.328-3.079c-1.916-.584-3.869-1.062-5.806-1.622-3.328-.958-3.869-2.081-2.079-5.265a37.971,37.971,0,0,1,3.618-5.3c5.825-7.157,11.754-14.252,17.6-21.409,8.883-10.922,17.249-22.239,25.652-33.537,1.353-1.809,2.727-3.618,4.163-5.366a25.2,25.2,0,0,1,11.317-8.323,206.452,206.452,0,0,0,36.408-16.643c.334-.187.728-.291,1.478-.6,2.871,18.244,6.532,35.928,10.4,53.571,2.5,11.234,5.1,22.447,7.656,33.684l.5,2.351c.208,1.454-.664,1.726-1.935,1.788ZM377.143,494c-12.483-1.019-24.8-2.29-37.219-1.145-12.835,1.206-25.673.5-38.508.707-2.663,0-5.348-.251-8.2-.416a37.462,37.462,0,0,0-.646-15.9,338.014,338.014,0,0,1-6.7-46c-1.622-18.121-2.415-36.325-3.56-54.508v-.79a9.852,9.852,0,0,1,3.891-9.694c7.781-6.241,13.774-14.148,19.5-22.241a10.369,10.369,0,0,1,2.893-3.245c6.594,9.486,11.629,19.866,17.372,29.833,10.4,17.975,20.8,35.93,30.9,54.092,7.76,13.774,15.186,27.712,22.759,41.609a41.614,41.614,0,0,1,5.764,19.413,11.214,11.214,0,0,0,3.912,8.55A56.333,56.333,0,0,1,377.06,494Z" transform="translate(92.256 -0.001)" fill="#1e1f21"/>
    <path id="Path_15" data-name="Path 15" d="M390.72,76.185c-9.054-13.211-21.975-22.385-34.58-30.332a114.665,114.665,0,0,0-15.976-7.824c-1.916-.79-3.81-1.6-5.7-2.455A106.248,106.248,0,0,0,295.639,25.8c-7.01-.334-14.145,0-21.03.312-2.6.123-5.2.248-7.805.331-8.947.312-17.414,2.954-26.735,6.137A304.826,304.826,0,0,0,195.818,52.3,64.255,64.255,0,0,0,180.57,63.037c-2.954,2.89-5.929,5.887-8.8,8.758l-4.843,4.889-2.476,2.434a122.251,122.251,0,0,0-16.211,18.372c-1.767,2.642-2.079,2.746-5.051,1.163-16.336-8.883-29.526-16.1-41.614-22.738a28.536,28.536,0,0,0-5.428-2.29,3.8,3.8,0,0,0-4.579,1.54,8.766,8.766,0,0,0-1.622,4.971v1.478a27.224,27.224,0,0,0,.187,4.472,2.273,2.273,0,0,1,.088.937,2.334,2.334,0,0,1-.907,1.606,2.288,2.288,0,0,1-.841.411c-1.836.793-3.645,1.6-5.452,2.434s-3.434,1.54-5.182,2.29a78.132,78.132,0,0,0-20.555,13.545c-2.079,1.748-3.955,3.7-5.807,5.6a75.948,75.948,0,0,1-8.318,7.616c-6.244,4.6-10.407,10.775-14.564,17.225A170.235,170.235,0,0,0,15.341,162.4c-.646,1.518-1.334,3.018-2.081,4.515a84.942,84.942,0,0,0-7.074,20.16c-.542,3.245-.977,6.554-1.414,9.756-.229,1.769-.462,3.538-.707,5.286-.376,2.663-.707,5.366-1.019,7.989A170.254,170.254,0,0,1,.256,227.85a14.711,14.711,0,0,0-.229,3.621v.646a1.231,1.231,0,0,0,.259.654,1.178,1.178,0,0,0,.574.406c.27.125.414,0,.875-.5l.144-.165a6.491,6.491,0,0,0,1.454-3.37C4.414,223.274,5.415,217.99,6.394,213a333.036,333.036,0,0,1,12.875-48.848,88.627,88.627,0,0,1,14.567-25.4l.873-1.081a90.59,90.59,0,0,0,7.49-10.111,47.856,47.856,0,0,1,8.323-9.988c1.476-1.414,3.055-2.869,4.742-4.347A151.686,151.686,0,0,1,90.071,90.165h.187a2.746,2.746,0,0,1,1.006-.384,2.707,2.707,0,0,1,1.075.032.516.516,0,0,1,.224.144,3.767,3.767,0,0,1,.835,2.268v.6a70.037,70.037,0,0,1,.248,16.646c-.205,2.954-.392,5.991-.392,8.966a29.454,29.454,0,0,1-.315,3.848v.6A137.339,137.339,0,0,1,75.883,172.47a227.475,227.475,0,0,1-26.257,36.512,44.877,44.877,0,0,1-9.8,8.424,132.687,132.687,0,0,1-28.958,14l-.355.123a7.6,7.6,0,0,0-2.975,1.561l-.291.251c-.5.416-.518.52-.4.768a1.14,1.14,0,0,0,.544.39,1.115,1.115,0,0,0,.667.005,24.937,24.937,0,0,0,6.241-2.455l.582-.291c1.665-.833,3.328-1.727,4.929-2.6a84.153,84.153,0,0,1,10.8-5.075,63.813,63.813,0,0,0,19.578-11.4,140.163,140.163,0,0,0,26.879-30.5,98.764,98.764,0,0,0,14.458-33.934l.456-2.2A298.477,298.477,0,0,0,98.038,110.1c.438-5.033.915-10.735-.979-16.08a3.213,3.213,0,0,0-.144-.376,3.035,3.035,0,0,1,0-2.994.532.532,0,0,1,.192-.2.54.54,0,0,1,.267-.072h.163l1.209.438c14.394,5.014,29.291,10.193,43.69,16.291a.492.492,0,0,1,.163.1.423.423,0,0,1,.115.16.427.427,0,0,1,.043.189.468.468,0,0,1-.029.192l-.168.606a2.413,2.413,0,0,1-.414.934,123.4,123.4,0,0,0-12.379,20.264l-.648,1.227c-6.591,12.483-11.381,23.365-13.315,35.367-.683,4.163-1.622,8.574-2.535,12.734-1.062,4.953-2.183,10.071-2.893,15.167a200.209,200.209,0,0,0-1.353,22.511v2.225a72.911,72.911,0,0,0,.56,10.735c.566,4.411,1.436,8.862,2.29,13.169.48,2.519,1,5.118,1.438,7.7a116.32,116.32,0,0,0,9.171,31.728c1.417,2.911,2.874,5.8,4.31,8.7,1.227,2.495,2.474,4.993,3.7,7.509a10.954,10.954,0,0,0,3.015,3.912,6.259,6.259,0,0,0-.958-3.931l-.334-.71c-.728-1.58-1.5-3.162-2.265-4.742-.584-1.187-1.169-2.372-1.729-3.557-4.931-10.4-7.637-21.764-10.255-32.707l-.9-3.682a153.089,153.089,0,0,1-3.1-50.305c.643-7.261,1.852-14.562,3.039-21.553.307-1.935.64-3.869.955-5.8A104.547,104.547,0,0,1,128.037,142.7c2.079-3.955,3.891-8.115,5.66-12.131l1.041-2.391a118.8,118.8,0,0,1,9.235-16.977,3.088,3.088,0,0,1,2.135-1.831,3.047,3.047,0,0,1,1.446-.005,3.087,3.087,0,0,1,1.289.648,48.83,48.83,0,0,0,6.428,3.079c2.079.833,4.288,1.895,6.239,2.914a45.27,45.27,0,0,0,10.135,4.16l.667.187c1.249.355,2.081.5,2.412-.229a3.409,3.409,0,0,0-.937-3.805,10.412,10.412,0,0,0-2.079-1.561c-3.1-1.852-6.244-3.661-9.324-5.473l-2.663-1.476a39.53,39.53,0,0,1-6.97-4.411.571.571,0,0,1-.1-.686,146.594,146.594,0,0,1,14.775-20.035c7.279-8.323,14.562-16.125,23.65-22.367,12.736-8.758,27.8-15.957,47.373-22.7a86.658,86.658,0,0,1,16.208-3.973,2.812,2.812,0,0,1,1.58-.728h.334a105.365,105.365,0,0,1,23.407-2.372c1.788,0,3.6,0,5.388-.165a119.713,119.713,0,0,1,48.395,8.8l.664.248a134.719,134.719,0,0,1,24.069,11.4c1.393.915,2.786,1.831,4.16,2.767l4.558,3a86.069,86.069,0,0,1,20.8,17.62c1.083,1.332,2.311,2.6,3.517,3.829l.6.6a7.5,7.5,0,0,0-1.038-1.791Z" transform="translate(0 42.809)" fill="#1e1f21"/>
    <path id="Path_16" data-name="Path 16" d="M7.206,165.178a18.1,18.1,0,0,1,3.621-8.323c8.072-12.606,16.331-25.089,24.216-37.761,7.2-11.586,13.71-23.592,21.033-35.077,6.241-9.8,12.9-19.367,17.975-29.854a.935.935,0,0,1,1.083-.582c.769,1.249,0,2.394-.5,3.557a95.127,95.127,0,0,1-8.093,16.125c-7.8,12.48-15.063,25.257-22.532,37.905-8.718,14.751-18.329,28.918-28.064,42.983-1.521,2.2-2.957,4.451-4.411,6.7a14.708,14.708,0,0,1-4.328,4.328" transform="translate(12.023 89.358)" fill="#1e1f21"/>
    <path id="Path_17" data-name="Path 17" d="M127.179,52.172c2.5,0,3.768,1.289,3.725,3.682s-1.935,5.678-3.453,5.617c-1.895,0-5.161-3.952-5.1-6.033s2.2-3.287,4.825-3.266" transform="translate(204.139 87.045)" fill="#1e1f21"/>
    <path id="Path_18" data-name="Path 18" d="M135.44,47.03c0,3.015-1.268,5.868-2.829,5.991s-4.763-3.141-4.91-5.532c0-1.895,1.561-3.309,4.016-3.413s3.661.728,3.722,2.954" transform="translate(213.062 73.524)" fill="#1e1f21"/>
    <path id="Path_19" data-name="Path 19" d="M120.165,42.838c2.474,0,3.245.833,3.245,3.432s-1.332,5.43-2.911,5.577c-1.895.144-4.539-3.266-4.475-5.8.04-2.143,1.438-3.226,4.141-3.2" transform="translate(193.576 71.472)" fill="#1e1f21"/>
    <path id="Path_20" data-name="Path 20" d="M138.465,51.868c2.079,0,2.93,1.019,2.847,2.871-.125,2.5-1.665,5.3-2.847,5.139a8.924,8.924,0,0,1-4.331-5.348c.168-1.414,2.247-2.706,4.331-2.663" transform="translate(223.793 86.536)" fill="#1e1f21"/>
    <path id="Path_21" data-name="Path 21" d="M113.088,118.562a26.383,26.383,0,0,1-12.712-3.245,8.73,8.73,0,0,1-2.081-1.292,1.6,1.6,0,0,1-.147-2.079,1.476,1.476,0,0,1,1.791-.563c1,.355,1.913.915,2.89,1.353a23.749,23.749,0,0,0,15.21,2.081c9.321-2.081,15-9.884,14.562-19.786a29,29,0,0,0-2.455-10.4c-.208-.48-.454-.958-.664-1.457-.563-1.31-1.769-2.85.229-3.744,1.644-.75,2.287.894,2.871,2.079a30.2,30.2,0,0,1,3.373,17.062c-1.23,12.189-10.012,20.075-22.866,19.992" transform="translate(163.225 132.207)" fill="#1e1f21"/>
    <path id="Path_22" data-name="Path 22" d="M107.3,126.731c-.125,16.414-14.73,26.732-30.6,22.156a24.2,24.2,0,0,1-6.594-2.85,1.691,1.691,0,0,1-.91-1.017,1.676,1.676,0,0,1,.139-1.356,1.639,1.639,0,0,1,.432-.558,1.678,1.678,0,0,1,.63-.32,1.65,1.65,0,0,1,.7-.024,1.668,1.668,0,0,1,.648.278,28.131,28.131,0,0,0,9.465,3.122c16.165,1.745,26.8-12.027,20.971-27.255-.334-.873-.811-1.686-1.145-2.559s-.5-1.913.584-2.434a1.91,1.91,0,0,1,2.62,1.059,24.814,24.814,0,0,1,2.268,5.889,21.59,21.59,0,0,1,.79,5.868" transform="translate(115.312 189.718)" fill="#1e1f21"/>
    <path id="Path_23" data-name="Path 23" d="M119.224,113.431a24.306,24.306,0,0,0-1.086-6.241c-.27-1.1-.374-2.228.982-2.642s1.951.56,2.33,1.622a24.967,24.967,0,0,1,.913,12.253A25.749,25.749,0,0,1,95.8,139.768a13.842,13.842,0,0,1-4.307-.894,1.606,1.606,0,0,1-.966-1.748,1.605,1.605,0,0,1,1.486-1.332,13.54,13.54,0,0,1,2.394.165c11.794,1.977,24.776-7.656,24.822-22.53" transform="translate(150.994 174.266)" fill="#1e1f21"/>
    <path id="Path_24" data-name="Path 24" d="M115.822,84.4a2.428,2.428,0,0,1-.3,1.462,2.453,2.453,0,0,1-1.094,1.014c-1.708,1.081-3.392,2.079-5.139,3.162-7.928,4.432-15.813,8.926-24.072,12.774a21.172,21.172,0,0,1-2.183,1,1.458,1.458,0,0,1-1.769-.5,1.62,1.62,0,0,1,.125-2.2,8.4,8.4,0,0,1,2.37-1.478c9.217-4.6,18.143-9.694,27.047-15.042a15.344,15.344,0,0,1,2.871-1.414,1.553,1.553,0,0,1,.7-.115,1.507,1.507,0,0,1,.675.2,1.563,1.563,0,0,1,.771,1.139" transform="translate(134.963 138.574)" fill="#1e1f21"/>
    <path id="Path_25" data-name="Path 25" d="M79.589,98.661c-.165.79-.312,1.457-.438,2.081A154.891,154.891,0,0,1,71,126.727a11.814,11.814,0,0,1-1.622,2.746A1.747,1.747,0,0,1,66.295,128a8.538,8.538,0,0,1,.624-1.873,217.622,217.622,0,0,0,8.446-24.966c.334-1.022.6-2.081,1.019-3.039A1.6,1.6,0,0,1,78.3,97.038c.955.144,1.1.958,1.289,1.622" transform="translate(110.529 161.824)" fill="#1e1f21"/>
  </g>
</svg>
