<svg xmlns="http://www.w3.org/2000/svg" width="230" height="251" viewBox="0 0 230 251">
  <g id="Group_69" data-name="Group 69" transform="translate(-12734 -3166)">
    <path id="Subtraction_1" data-name="Subtraction 1" d="M319,115H89a115.848,115.848,0,0,1,2.336-23.177A114.371,114.371,0,0,1,108.64,50.7a115.335,115.335,0,0,1,50.6-41.665,114.422,114.422,0,0,1,21.587-6.7,116.121,116.121,0,0,1,46.353,0A114.369,114.369,0,0,1,268.3,19.64a115.336,115.336,0,0,1,41.665,50.6,114.424,114.424,0,0,1,6.7,21.587A115.852,115.852,0,0,1,319,115Z" transform="translate(12645 3302)"/>
    <circle id="Ellipse_7" data-name="Ellipse 7" cx="62.5" cy="62.5" r="62.5" transform="translate(12787 3166)"/>
  </g>
</svg>
