<svg width="118" height="184" viewBox="0 0 118 184" fill="none" xmlns="http://www.w3.org/2000/svg">
<path d="M75.477 57.3734L74.3566 61.2015L70.1818 55.7459L69.7549 51.3047L72.3159 52.9185L75.477 57.3734Z" fill="#FFCFC0"/>
<path d="M46.7268 134.082L43.6936 144.772L40.5973 139.201L41.3151 130.227L33.1943 110.396L41.3151 95.4559L43.8725 82.5793L61.5947 70.959L74.2986 62.2227L75.1534 63.4845L73.3173 68.3914L62.3545 75.2161L57.733 84.7277L50.6395 99.5605L42.2563 108.696L52.3592 120.894L46.7268 134.082Z" fill="#FFCFC0"/>
<g clip-path="url(#clip0_1988_24571)">
<path d="M115.494 16.2316C114.605 17.5287 113.569 18.7187 112.406 19.7776C111.927 20.2186 111.443 20.6266 110.961 21.0236C110.652 20.8236 110.34 20.6286 110.025 20.4496C107.779 19.2102 105.312 18.425 102.762 18.1386C100.159 17.841 97.5288 17.8584 94.9294 18.1906C93.5021 18.3615 92.0994 18.6971 90.7494 19.1906C89.2103 19.6989 87.8462 20.6318 86.8144 21.8816C86.4034 22.3997 86.1156 23.0045 85.9728 23.6502C85.8301 24.2959 85.8361 24.9656 85.9904 25.6086C86.3513 26.8729 87.148 27.9685 88.2394 28.7016C90.3733 30.0467 92.8936 30.6446 95.4044 30.4016C97.8823 30.2166 100.307 29.5897 102.564 28.5506C104.802 27.5431 106.954 26.3562 108.999 25.0016C109.513 24.6563 110.018 24.3053 110.514 23.9486C110.805 24.2156 111.087 24.4886 111.355 24.7666C112.113 25.5296 112.742 26.4108 113.217 27.3756C113.969 28.8368 114.192 30.5125 113.851 32.1196C113.456 33.7065 112.533 35.1119 111.234 36.1056C110.369 36.767 109.421 37.3116 108.414 37.7256C107.986 37.9096 107.553 38.0666 107.114 38.2086C105.95 37.2306 104.695 36.3669 103.365 35.6296C101.401 34.5352 99.2813 33.7461 97.0793 33.2896C95.0353 32.8996 92.9924 32.9606 91.6744 33.8756C91.2011 34.2157 90.8148 34.6627 90.5467 35.1801C90.2786 35.6975 90.1363 36.2709 90.1314 36.8536C90.1468 37.4823 90.3693 38.0883 90.7644 38.5776C91.1868 39.057 91.6935 39.4549 92.2593 39.7516C93.4483 40.3635 94.7221 40.7943 96.0384 41.0296C97.488 41.3197 98.9603 41.4813 100.438 41.5126C102.12 41.5687 103.804 41.4716 105.468 41.2226C105.984 41.1376 106.514 41.0286 107.051 40.9036C107.369 41.273 107.666 41.6603 107.939 42.0636C108.642 43.0312 109.096 44.1571 109.259 45.3416C109.288 45.617 109.295 45.8941 109.281 46.1706C109.24 46.4626 109.215 46.7706 109.155 47.0566C109.045 47.6217 108.851 48.1675 108.582 48.6766C107.533 50.6896 105.082 51.5876 102.576 51.7766C99.9802 51.9188 97.3772 51.6755 94.8524 51.0546C93.5727 50.7679 92.3084 50.4165 91.0644 50.0016C89.8274 49.5936 88.6294 49.0916 87.3964 48.5516C84.5754 47.3986 81.5274 46.6126 78.5904 45.3986C77.5806 44.9962 76.5449 44.6621 75.4904 44.3986C74.3995 44.106 73.2711 43.9773 72.1424 44.0166C70.9298 44.0374 69.746 44.3887 68.7183 45.0326C67.7855 45.7267 67.013 46.6134 66.4534 47.6326C65.9318 48.5318 65.5081 49.4842 65.1894 50.4736C64.4554 50.3686 63.5624 50.2386 62.5374 50.0996C63.3894 50.0606 63.7754 49.8196 63.3604 49.4396C62.097 48.8166 60.7495 48.3813 59.3604 48.1476C59.6674 47.3476 59.9604 46.5636 60.2374 45.5926C61.0134 42.9116 62.2574 40.2726 62.9084 37.5656C63.7154 34.2436 63.7344 32.0656 64.7234 28.8316C64.8874 28.3656 65.3854 27.0546 65.9854 25.8096C66.5444 24.5406 67.2204 23.3526 67.4064 22.9016L67.7914 22.0336C68.0206 21.4744 68.2786 20.9273 68.5644 20.3946C69.4477 18.6328 70.5403 16.9839 71.8184 15.4836C75.7935 10.5442 80.7847 6.51775 86.4534 3.67764C89.3864 2.22435 92.5007 1.17 95.7134 0.542635C97.1523 0.27281 98.608 0.101744 100.07 0.0306353C101.998 -0.0605822 103.931 0.0520422 105.835 0.366635C108.003 0.750653 110.09 1.49889 112.007 2.57964C113.128 3.21284 114.14 4.01988 115.007 4.97063C115.536 5.55322 115.987 6.20238 116.347 6.90164C117.239 8.34756 117.609 10.0553 117.395 11.7406C117.089 13.3559 116.441 14.887 115.494 16.2316V16.2316Z" fill="#FFCFC0"/>
<path d="M97.8591 39.2671C96.4789 39.2049 95.111 38.979 93.7841 38.5941C92.9016 38.4227 92.122 37.9108 91.6141 37.1691C91.5141 37.0541 91.5511 36.8971 91.5001 36.7631C91.4921 36.6101 91.5311 36.4371 91.5271 36.2731C91.5891 36.0971 91.6271 35.9071 91.6871 35.7451C91.7519 35.595 91.8295 35.4508 91.9191 35.3141C92.2927 34.8105 92.8395 34.4631 93.4541 34.3391C94.0761 34.1916 94.7186 34.1513 95.3541 34.2201C95.9368 34.2638 96.5139 34.3643 97.0771 34.5201C99.2267 35.1897 101.264 36.1773 103.121 37.4501C103.721 37.8621 104.303 38.3111 104.868 38.7761C104.195 38.9081 103.527 39.0171 102.877 39.0931C101.213 39.2964 99.5337 39.3547 97.8591 39.2671V39.2671Z" fill="#FFCFC0"/>
<path d="M98.3693 28.0914C96.8327 28.5554 95.2271 28.7486 93.6243 28.6624C92.398 28.6272 91.1889 28.3647 90.0583 27.8884C89.2834 27.5644 88.5963 27.0613 88.0533 26.4204C87.757 26.0837 87.5444 25.6818 87.4326 25.2474C87.3209 24.813 87.3133 24.3583 87.4103 23.9204C87.5358 23.4261 87.7694 22.9657 88.0943 22.5724C88.4846 22.134 88.9354 21.7534 89.4333 21.4424C90.5935 20.7492 91.8649 20.262 93.1913 20.0024C94.6675 19.707 96.1679 19.5487 97.6733 19.5294C98.4523 19.4974 99.2503 19.5524 100.053 19.5614C100.845 19.6404 101.653 19.6614 102.453 19.8204C104.79 20.2258 106.995 21.186 108.883 22.6204C107.832 23.3674 106.803 24.0264 105.841 24.6004C104.21 25.5846 102.518 26.4656 100.776 27.2384C99.9895 27.5648 99.186 27.8496 98.3693 28.0914V28.0914Z" fill="#FFCFC0"/>
<path d="M75.4187 177.629C78.2487 177.844 81.1647 178.068 83.6897 178.248C87.4587 178.516 90.3507 178.467 90.7617 178.555C92.6007 178.955 95.0177 179.18 96.2677 179.892C97.4507 180.566 97.5287 181.733 97.1157 181.847C95.8549 182.33 94.5244 182.606 93.1757 182.664C89.1657 182.857 82.6427 183.259 76.1417 183.352C69.4637 183.452 62.8087 183.233 58.9227 183.326C50.8977 183.518 28.2047 182.52 19.3817 181.708C18.212 181.552 17.0905 181.143 16.0957 180.508C15.0257 180.353 16.4397 179.235 18.9247 178.392C20.4187 177.997 21.9329 177.683 23.4607 177.45C24.0097 177.335 28.1667 177.41 33.1347 177.25C37.8437 178.871 42.6087 180.45 47.5947 180.15C47.8167 180.13 48.0377 180.115 48.2597 180.095L50.8117 180.212C53.6338 181.041 56.5726 181.404 59.5117 181.284C63.1857 180.948 66.8517 180.796 70.5307 180.238C71.2511 180.159 71.9654 180.032 72.6687 179.857C73.5687 179.705 74.5127 179.993 75.3687 179.572C76.1107 179.207 76.0557 178.472 75.6027 177.846C75.5471 177.769 75.4856 177.696 75.4187 177.629V177.629Z" fill="#FFCFC0"/>
<path d="M48.8694 154.769C48.8194 154.362 48.7804 153.952 48.7344 153.543C48.8414 153.572 48.9474 153.601 49.0534 153.643C49.224 153.711 49.4009 153.762 49.5814 153.795C49.8096 153.838 50.035 153.896 50.2564 153.966C50.4764 154.023 50.6974 154.076 50.9174 154.13C51.2526 154.226 51.574 154.366 51.8734 154.545C52.1244 154.675 52.4034 154.745 52.6484 154.885C52.8829 155.043 53.1286 155.183 53.3834 155.306C53.8338 155.506 54.2607 155.754 54.6564 156.048C54.8084 156.148 55.0094 156.267 55.1904 156.406C54.9904 158.419 54.8494 160.458 54.8294 162.515C54.8124 165.474 54.6954 168.201 54.6974 171.021C54.6974 171.727 54.7194 172.441 54.7634 173.167C54.8074 173.893 54.8964 174.652 54.9494 175.287C55.0117 175.908 55.0248 176.533 54.9884 177.156C54.9814 177.336 54.9477 177.515 54.8884 177.685C54.8634 177.708 54.9234 177.662 54.8394 177.711C54.8394 177.699 54.3894 177.961 54.3474 177.989C54.0315 178.017 53.7144 178.029 53.3974 178.024C52.6174 178.034 51.7794 178.076 50.9584 178.119L48.4584 178.281L45.9404 178.492C45.1952 178.569 44.4431 178.549 43.7034 178.43C43.6032 178.407 43.505 178.376 43.4094 178.338L43.4014 178.345C43.427 178.248 43.4722 178.156 43.5344 178.077C43.6361 177.942 43.7518 177.818 43.8794 177.707C45.1021 176.756 46.5061 176.064 48.0054 175.674C48.3184 175.56 48.7484 175.43 49.1294 175.256C49.23 175.229 49.3225 175.178 49.3992 175.107C49.4758 175.036 49.5342 174.948 49.5694 174.85C49.6074 174.659 49.6434 174.45 49.6694 174.232C50.4297 170.424 50.6007 166.523 50.1764 162.663C49.8164 159.962 49.2904 157.275 48.8694 154.769Z" fill="#FFCFC0"/>
<path d="M54.3477 177.984L54.3687 177.973C54.3587 177.974 54.3867 177.978 54.3477 177.984Z" fill="#FFCFC0"/>
<path d="M66.2144 169.613C66.2594 170.272 66.3254 170.965 66.3984 171.688L66.5334 172.794C66.5914 173.194 66.6504 173.603 66.7104 174.018C66.4824 175.273 68.2744 175.518 68.8414 175.772C69.6551 176.017 70.4493 176.322 71.2174 176.686C71.6957 176.923 72.1387 177.226 72.5334 177.585C72.609 177.645 72.6737 177.717 72.7244 177.798C72.7604 177.865 72.8644 177.961 72.8574 178.008C72.8654 178.054 72.9224 178.131 72.8914 178.122C72.9074 178.132 72.8914 178.138 72.8864 178.146C72.6521 178.327 72.3718 178.439 72.0774 178.468C71.7048 178.54 71.3274 178.583 70.9484 178.598C70.1684 178.643 69.3924 178.592 68.3844 178.598L64.9614 178.561L63.4194 178.51C63.1226 178.515 62.8265 178.482 62.5384 178.41C62.4941 178.394 62.4529 178.37 62.4164 178.34C62.3591 178.287 62.2976 178.239 62.2324 178.195L62.0464 178.076L61.9664 178.018C61.9318 177.988 61.9 177.955 61.8714 177.919C61.7578 177.745 61.7002 177.541 61.7064 177.334C61.6872 177.019 61.6929 176.703 61.7234 176.388C61.7764 175.758 61.8684 175.225 61.8964 174.97C61.9568 174.416 61.9819 173.858 61.9714 173.299C61.9644 172.726 61.9384 172.165 61.9714 171.619C62.3084 163.149 61.9274 156.586 61.9124 155.924C61.8704 155.46 61.8604 155.007 61.8544 154.555C62.4045 154.631 62.9591 154.671 63.5144 154.673C63.9074 154.686 64.3034 154.68 64.6894 154.661L65.2524 154.63L65.9094 154.568C66.2761 154.516 66.6373 154.431 66.9884 154.312C66.9884 154.519 66.9884 154.712 66.9954 154.876L67.0154 156.105C67.0573 156.975 67.0268 157.846 66.9244 158.71C66.8394 159.284 66.0904 161.91 66.0494 162.51C66.0254 162.824 66.0094 164.11 66.0494 166.11C66.0704 167.119 66.1254 168.301 66.2144 169.613Z" fill="#FFCFC0"/>
<path d="M42.8918 136.187C43.4278 133.73 45.0528 132.201 46.5918 130.346C47.5083 129.241 48.1444 127.931 48.4459 126.527C48.7475 125.123 48.7056 123.668 48.3238 122.284C47.4808 119.636 45.0348 117.902 42.9478 116.262C40.9338 114.68 38.7758 112.909 38.1118 110.313C37.4298 107.649 37.6028 104.613 39.6878 102.613C41.4508 100.924 43.8808 100.202 45.9878 99.0557C47.3637 98.3872 48.535 97.3616 49.3794 96.086C50.2237 94.8104 50.7101 93.3315 50.7878 91.8037C50.8098 90.3337 50.5128 88.8807 50.4178 87.4177C50.2945 85.57 50.519 83.7156 51.0798 81.9507C52.0151 79.2591 53.821 76.9561 56.2118 75.4057C60.6138 72.3897 66.1828 71.6807 70.5528 68.6297C75.5018 65.1767 75.1988 58.5297 71.9738 53.9607C71.2992 53.0133 70.5455 52.1248 69.7208 51.3047C69.8428 51.3317 69.9628 51.3517 70.0848 51.3797C70.3487 51.5877 70.6364 51.7636 70.9418 51.9037C71.5988 52.1487 72.0968 52.4717 72.8308 52.6807C74.1738 53.1077 75.3638 54.0877 76.6868 54.5157C78.3098 55.0617 79.4948 54.9797 81.0868 55.6597C81.5638 55.8527 83.5008 57.2247 83.9528 57.4467C84.2578 57.5997 85.8528 58.1347 88.1368 59.2367C91.063 60.6489 93.7982 62.4268 96.2768 64.5277C97.558 65.6167 98.7719 66.7825 99.9118 68.0187C101.096 69.3086 102.18 70.687 103.155 72.1417C103.782 73.1082 104.352 74.1099 104.865 75.1417C105.539 76.4567 106.078 77.8167 106.291 78.2317C106.668 79.1167 107.341 79.8627 107.655 80.7417C108.782 83.6231 109.498 86.6493 109.779 89.7307L109.897 91.3627C109.904 91.8517 109.911 92.2817 109.917 92.6447C109.939 93.087 109.933 93.5302 109.899 93.9717C109.882 94.8397 109.729 95.6507 109.652 96.4977C109.632 96.9447 109.497 97.6167 109.36 98.4877C109.23 99.5451 109.018 100.591 108.727 101.616C108.006 104.504 106.777 107.242 105.098 109.7C104.84 110.074 104.557 110.431 104.25 110.766C103.911 111.085 103.55 111.392 103.198 111.699L102.146 112.63C101.783 112.926 101.442 113.248 101.126 113.594C100.045 114.773 98.8906 115.882 97.6688 116.915C96.0898 118.299 94.3778 119.576 93.8868 119.972C92.1258 121.389 90.5868 122.563 89.2778 123.737C88.6645 124.279 88.0819 124.855 87.5328 125.462C87.0508 126.008 86.6118 126.508 86.2328 126.987C84.7008 128.887 83.8328 130.197 83.0768 131.172C81.5238 133.091 80.1143 135.122 78.8598 137.248C77.3998 139.661 75.9338 142.067 74.4168 144.393C73.0396 146.67 71.3886 148.77 69.5008 150.646C69.0068 151.13 68.5848 151.671 68.0608 152.097C67.5609 152.564 66.9079 152.834 66.2238 152.855C65.9948 152.864 65.7638 152.829 65.5358 152.823L64.7098 152.755L63.1158 152.655L59.9908 152.487C59.4488 152.444 58.9578 152.445 58.4428 152.428C58.2352 152.41 58.0268 152.406 57.8188 152.415L57.6588 152.379L57.4968 152.284C56.7268 151.939 56.1408 151.563 55.2918 151.255C54.5262 150.933 53.8009 150.523 53.1308 150.033C52.4715 149.517 51.7734 149.054 51.0428 148.646C49.1948 147.691 47.8228 147.504 46.0138 146.482C45.6548 146.282 44.5458 145.411 43.6928 144.764C42.657 142.029 42.3803 139.066 42.8918 136.187Z" fill="#FFCFC0"/>
<path d="M66.533 50.6855C66.833 50.7355 67.143 50.7855 67.45 50.8405C66.712 50.7071 65.9787 50.5871 65.25 50.4805C65.674 50.5405 66.104 50.6145 66.533 50.6855Z" fill="#FFCFC0"/>
<path d="M65.2532 50.4799C65.9812 50.5839 66.7146 50.7039 67.4532 50.8399L67.5392 50.8559C68.2626 50.9893 68.9889 51.1356 69.7182 51.2949L69.7272 51.3049C70.5519 52.125 71.3056 53.0136 71.9802 53.9609C75.2052 58.5259 75.5082 65.1769 70.5592 68.6299C66.1862 71.6809 60.6172 72.3899 56.2082 75.4079C53.8174 76.9583 52.0116 79.2614 51.0762 81.9529C50.5155 83.7178 50.2909 85.5722 50.4142 87.4199C50.5092 88.8829 50.8062 90.3359 50.7842 91.8059C50.7065 93.3337 50.2201 94.8126 49.3758 96.0883C48.5315 97.3639 47.3602 98.3895 45.9842 99.0579C43.8842 100.204 41.4512 100.926 39.6842 102.615C37.5992 104.615 37.4262 107.649 38.1082 110.315C38.7722 112.915 40.9302 114.682 42.9442 116.264C45.0312 117.904 47.4772 119.638 48.3202 122.286C48.702 123.67 48.7439 125.126 48.4424 126.529C48.1408 127.933 47.5047 129.243 46.5882 130.348C45.0522 132.203 43.4272 133.732 42.8882 136.189C42.3772 139.066 42.6536 142.029 43.6882 144.762C43.2702 144.445 42.9092 144.177 42.7362 144.074C37.5842 141.592 32.698 138.591 28.1532 135.12C24.8807 132.621 21.8175 129.859 18.9942 126.862C18.6112 126.418 17.4072 125.093 16.3082 123.692C15.1812 122.314 14.1412 120.883 13.7892 120.442C13.0342 119.548 12.1422 118.787 11.4552 117.899C9.21497 114.925 7.25525 111.75 5.60124 108.415C4.31424 105.83 3.74124 104.036 3.58324 103.738C3.23785 102.783 2.9408 101.812 2.69324 100.827C2.52224 100.319 2.35924 99.5109 2.08024 98.4879C1.77424 97.4689 1.55224 96.1879 1.28024 94.7329C0.708327 91.206 0.605435 87.6189 0.974241 84.0649C1.1712 82.9786 1.45068 81.9088 1.81024 80.8649C2.23199 79.8237 2.58116 78.7544 2.85524 77.6649C2.90724 77.2989 3.17624 76.5399 3.46824 75.5589C3.62624 75.0729 3.76824 74.5219 3.97624 73.9679C4.18424 73.4139 4.42524 72.8439 4.65524 72.2679C5.09317 71.1923 5.58547 70.1396 6.13024 69.1139C6.58524 68.2069 7.04924 67.5579 7.21424 67.2349C9.15791 63.8968 11.6564 60.9145 14.6022 58.4159C16.0989 57.1221 17.7267 55.9882 19.4592 55.0329C22.0002 53.7873 24.6354 52.7438 27.3402 51.9119C33.5952 49.9679 40.2672 49.7009 46.7802 49.7719C48.6392 49.7179 50.5172 49.1269 52.4042 49.3259C54.9422 49.5459 57.4382 49.8309 59.9372 50.0019C60.5912 50.0659 61.1882 50.0689 61.8122 50.0899C62.0549 50.1061 62.2983 50.1084 62.5412 50.0969C63.5662 50.2359 64.4592 50.3659 65.1932 50.4709L65.2532 50.4799Z" fill="#FFF2ED"/>
<path d="M15.8798 66.7356C15.8448 66.7036 15.8048 66.7266 15.7638 66.7286C15.678 66.726 15.5922 66.7293 15.5068 66.7386C15.3377 66.7578 15.1704 66.7912 15.0068 66.8386C14.7526 66.9329 14.5261 67.0893 14.3478 67.2936C14.0468 67.6476 13.8851 68.099 13.8928 68.5636C13.9007 68.6246 13.9138 68.6848 13.9318 68.7436C13.9483 68.8345 13.9724 68.9238 14.0038 69.0106C14.0847 69.1679 14.2003 69.3047 14.3418 69.4106C14.468 69.513 14.6072 69.5981 14.7558 69.6636C14.8281 69.6934 14.9027 69.7172 14.9788 69.7346C15.0532 69.7668 15.1301 69.7926 15.2088 69.8116C15.3076 69.8314 15.4087 69.8361 15.5088 69.8256C15.6356 69.7965 15.756 69.7443 15.8638 69.6716C15.9748 69.5986 16.0908 69.5336 16.1968 69.4526C16.3009 69.3893 16.3993 69.317 16.4908 69.2366C16.5138 69.2106 16.5148 69.1836 16.5328 69.1576C16.5508 69.1316 16.5818 69.1176 16.6008 69.0916C16.6404 69.024 16.6739 68.9531 16.7008 68.8796C16.7864 68.7318 16.8485 68.5715 16.8848 68.4046C16.9261 68.1665 16.9335 67.9238 16.9068 67.6836C16.8805 67.5594 16.8374 67.4393 16.7788 67.3266C16.758 67.2667 16.7339 67.208 16.7068 67.1506C16.6719 67.1083 16.6303 67.0718 16.5838 67.0426C16.4956 66.9594 16.3911 66.8954 16.2768 66.8546C16.2169 66.8452 16.1582 66.8291 16.1018 66.8066C16.0433 66.7698 15.9796 66.7418 15.9128 66.7236C15.9068 66.7436 15.9118 66.7546 15.8798 66.7356Z" fill="black"/>
<path d="M44.4189 71.1578C44.3839 71.1258 44.3439 71.1478 44.3029 71.1508C44.2171 71.1478 44.1313 71.1508 44.0459 71.1598C43.8768 71.1794 43.7096 71.2129 43.5459 71.2598C43.2918 71.3537 43.0652 71.5098 42.8869 71.7138C42.5859 72.0677 42.4241 72.5192 42.4319 72.9838C42.4398 73.0451 42.4528 73.1057 42.4709 73.1648C42.4875 73.2556 42.5116 73.3449 42.5429 73.4318C42.6236 73.5891 42.7392 73.7259 42.8809 73.8318C43.0068 73.9345 43.1461 74.0197 43.2949 74.0848C43.3668 74.1155 43.4415 74.1393 43.5179 74.1558C43.5921 74.1884 43.669 74.2142 43.7479 74.2328C43.8466 74.253 43.9478 74.2578 44.0479 74.2468C44.175 74.2186 44.2955 74.1663 44.4029 74.0928C44.5139 74.0208 44.6299 73.9548 44.7359 73.8738C44.84 73.8105 44.9384 73.7382 45.0299 73.6578C45.0529 73.6328 45.0539 73.6058 45.0719 73.5788C45.0899 73.5518 45.1209 73.5398 45.1399 73.5128C45.1796 73.4453 45.2131 73.3744 45.2399 73.3008C45.3254 73.1534 45.3872 72.9934 45.4229 72.8268C45.465 72.5884 45.4727 72.3453 45.4459 72.1048C45.4192 71.9807 45.3761 71.8606 45.3179 71.7478C45.2949 71.6938 45.2749 71.6248 45.2459 71.5728C45.2111 71.5303 45.1696 71.4938 45.1229 71.4648C45.0349 71.3813 44.9303 71.3172 44.8159 71.2768C44.7559 71.267 44.6972 71.2506 44.6409 71.2278C44.5821 71.1917 44.5185 71.1641 44.4519 71.1458C44.4459 71.1658 44.4529 71.1768 44.4189 71.1578Z" fill="black"/>
<path d="M34.6946 79.9205C34.2496 79.9865 33.8756 79.9785 33.4006 80.0785C32.5197 80.2436 31.6293 80.3532 30.7346 80.4065C30.4216 80.4268 30.1076 80.4268 29.7946 80.4065C28.8805 80.3417 27.9712 80.2218 27.0716 80.0475C26.0792 79.9313 25.1038 79.6991 24.1656 79.3555C22.8886 78.8975 21.6256 78.4415 20.3976 77.9095C20.0806 77.7595 19.7806 77.6505 19.4736 77.5185C18.8226 77.2185 18.4026 77.1955 18.5546 77.5525C18.9386 78.2115 21.1286 79.3195 22.2126 79.6465C24.1209 80.4086 26.1165 80.931 28.1536 81.2015C29.1462 81.3064 30.1451 81.3398 31.1426 81.3015C32.364 81.2416 33.5732 81.0303 34.7426 80.6725C35.4316 80.4725 35.5426 80.1795 35.4256 80.0105C35.4066 79.9015 35.3366 79.8865 34.6946 79.9205Z" fill="black"/>
<path d="M55.4136 57.8353L55.6496 57.7773C61.2156 58.4003 65.6706 59.1823 67.1946 59.5163C68.0256 59.6963 68.8136 59.9053 69.6606 60.0723C74.0493 61.0181 78.3752 62.2344 82.6136 63.7143C83.4886 64.0143 84.4336 64.2073 85.3406 64.5623C85.7806 64.7253 87.1266 65.3173 88.4536 65.9543C89.7806 66.5913 91.0746 67.3033 91.4946 67.5403C94.3557 69.103 97.1167 70.8424 99.7616 72.7483C99.7086 72.9383 99.4896 73.0053 99.2336 73.0173C95.6614 70.7616 91.9102 68.8027 88.0176 67.1603C85.7236 66.1503 83.5696 65.2983 81.4046 64.5023C79.2396 63.7063 77.0726 62.9523 74.6936 62.3333C70.2358 61.0502 65.7119 60.009 61.1416 59.2143C58.8076 58.8693 56.7756 58.6553 54.8646 58.5013C54.6254 58.405 54.3968 58.284 54.1826 58.1403L55.4136 57.8353Z" fill="black"/>
<path d="M75.3772 129.8L75.2772 129.847C73.6212 129.155 72.2092 128.798 71.7472 128.608C71.5007 128.497 71.2472 128.402 70.9882 128.324C70.8112 128.277 69.0992 127.699 66.8292 127.224C66.5402 127.162 66.2152 127.235 65.9162 127.172C65.6302 127.094 64.1322 126.649 63.8252 126.618C62.8012 126.448 61.762 126.388 60.7252 126.439C60.7052 126.261 60.732 126.08 60.8032 125.914C62.1924 125.598 63.6217 125.494 65.0422 125.606C66.5779 125.942 68.0956 126.356 69.5892 126.846C71.1062 127.262 72.4532 128.052 73.8352 128.528L75.7942 129.19C75.8447 129.303 75.8784 129.423 75.8942 129.545L75.3772 129.8Z" fill="black"/>
<path d="M76.0587 69.1707L76.2337 69.1367C79.9497 70.2607 82.8817 71.3497 83.8737 71.7717C84.4157 71.9967 84.9177 72.2547 85.4737 72.4617L94.0127 76.0767C94.5977 76.3367 95.2537 76.4897 95.8587 76.7877C96.1497 76.9307 97.0377 77.4277 97.9107 77.9537C98.7837 78.4797 99.6367 79.0447 99.9107 79.2287C101.819 80.4429 103.638 81.7934 105.352 83.2697C105.299 83.3513 105.227 83.4188 105.142 83.4663C105.057 83.5139 104.962 83.5401 104.865 83.5427C102.487 81.8631 99.9765 80.3805 97.3577 79.1097C94.3077 77.4737 91.6887 76.1827 88.5287 74.8507C85.4947 73.5617 82.6447 72.0177 79.7097 71.0137C78.1687 70.4857 76.8097 70.0947 75.5327 69.7687C75.3833 69.6484 75.2505 69.5088 75.1377 69.3537L76.0587 69.1707Z" fill="black"/>
<path d="M89.5218 87.1028L89.6278 87.0508C91.6168 87.6908 93.2388 88.1598 93.7758 88.3868C94.0758 88.5038 94.3408 88.6518 94.6508 88.7428C94.8428 88.8168 96.8418 89.5278 99.3238 90.5878C99.6418 90.7218 100.024 90.7368 100.354 90.8878C100.684 91.0388 102.254 92.0018 102.564 92.1878L105.72 94.0328C105.642 94.1966 105.518 94.334 105.363 94.4278C103.918 93.7678 102.285 93.3148 100.951 92.6888C99.2668 91.8988 97.8878 91.0638 96.1838 90.4028C94.5308 89.7688 93.0038 88.8708 91.4068 88.3658C90.5688 88.1008 89.8318 87.9038 89.1368 87.7328C89.0637 87.6232 89.0068 87.5036 88.9678 87.3778L89.5218 87.1028Z" fill="black"/>
<path d="M81.8833 121.464L81.7703 121.494C79.9703 120.483 78.4273 119.826 77.9283 119.536C77.6638 119.371 77.3904 119.221 77.1093 119.087C76.9233 119.01 75.0553 118.03 72.6093 117.03C72.2953 116.902 71.9213 116.905 71.5943 116.775C71.2863 116.637 69.6573 115.863 69.3163 115.754C67.7273 115.194 67.3333 115.108 65.8623 114.704C65.8935 114.525 65.9762 114.359 66.1003 114.227C67.702 114.359 69.2897 114.627 70.8463 115.027C72.5173 115.689 74.1493 116.445 75.7343 117.293C77.3563 118.051 78.7683 119.128 80.2633 119.881L82.3883 120.918C82.4385 121.039 82.4699 121.168 82.4813 121.299L81.8833 121.464Z" fill="black"/>
</g>
<defs>
<clipPath id="clip0_1988_24571">
<rect width="116.726" height="183.376" fill="white" transform="translate(0.75293)"/>
</clipPath>
</defs>
</svg>
