<svg width="190" height="146" viewBox="0 0 190 146" fill="none" xmlns="http://www.w3.org/2000/svg">
<path d="M47.1155 115.96C46.4154 114.25 45.825 112.981 45.2809 111.848C44.7538 111.338 44.2023 110.845 43.6235 110.385C40.8083 108.435 38.3917 106.603 35.003 105.926C31.4182 106.566 27.0689 120.741 25.9471 124.455C25.6107 126.128 24.0672 127.666 23.2869 129.163C22.8589 129.835 21.4007 129.989 20.6173 130.041C18.5507 129.892 16.577 129.674 14.812 130.798C13.7376 131.344 12.2267 132.175 12.5219 133.75C12.641 134.39 13.1482 134.222 13.7871 134.212C14.5252 134.201 15.2885 134.143 16.0224 134.197C19.5194 134.661 23.0496 134.825 26.5744 134.687C27.1531 134.679 27.7274 134.585 28.2783 134.407C28.622 134.158 28.8782 133.242 29.029 132.862C30.7982 128.879 32.9691 125.136 34.8427 121.196C35.1305 120.133 35.6436 119.143 36.3473 118.296C36.6974 117.704 37.3711 115.964 38.2388 116.52C41.9291 120.961 45.0047 122.741 49.259 126.741C49.7651 127.163 50.2892 127.665 50.829 128.202L50.8216 128.173C49.8804 124.018 48.6419 119.937 47.1155 115.96V115.96Z" fill="black"/>
<path d="M58.7387 139.836C58.5889 139.967 58.4538 140.115 58.3359 140.276L58.6185 140.267L58.7387 139.836Z" fill="black"/>
<path d="M64.9878 28.1741C63.5353 28.6456 62.1214 29.2287 60.7588 29.9181C64.301 28.532 68.0064 27.6065 71.7843 27.1641C69.4839 27.1969 67.1983 27.5366 64.9878 28.1741V28.1741Z" fill="#FFCFC0"/>
<path d="M100.062 29.0268C98.0319 28.4996 95.8831 27.9946 93.6478 27.5612C91.8111 27.4033 89.9668 27.3502 88.124 27.402C93.8454 28.1971 99.4889 29.4764 104.994 31.2262C103.367 30.4565 101.741 29.6615 100.062 29.0268Z" fill="#FFCFC0"/>
<path d="M119.193 36.5583C119.809 37.5869 120.333 38.6688 120.756 39.791C122.766 45.1756 121.173 52.0079 115.091 54.3781C109.714 56.471 103.785 55.9069 98.3847 57.9629C95.4827 58.9869 92.9785 60.9018 91.2298 63.434C90.1541 65.082 89.3923 66.9147 88.9829 68.8397C88.6603 70.3495 88.5496 71.8973 88.1057 73.385C87.5671 74.9409 86.6399 76.3333 85.4121 77.4301C84.1842 78.5269 82.6965 79.2918 81.09 79.6522C78.5975 80.3322 75.892 80.5051 73.5935 81.8157C70.8764 83.3646 69.8283 86.4127 69.7661 89.2796C69.705 92.0715 71.4183 94.3711 73.0346 96.4492C74.7121 98.597 74.8397 102.599 74.9473 105.486C75.0527 108.429 72.1616 112.683 67.2863 117.559C65.4411 119.403 56.4379 130.477 55.1822 132.847C55.1245 132.966 55.0405 133.071 54.9365 133.153C54.9966 133.292 55.0588 133.439 55.1189 133.574C55.5966 134.683 56.2044 135.73 56.9293 136.695C57.0895 136.93 57.2732 137.147 57.4775 137.344L58.0047 137.877L58.0901 137.931L58.2662 138.024L58.6774 138.229L59.1297 138.469C59.2779 138.551 59.419 138.645 59.5515 138.75C61.0358 139.323 62.5673 139.764 64.1285 140.07C65.9209 140.014 67.7133 139.981 69.531 140.018C72.828 140.086 75.8825 139.994 78.9855 139.912C80.3037 139.258 81.6632 138.691 83.0553 138.214C85.3591 137.413 87.9286 137.174 90.3526 136.551C92.145 135.804 93.9827 135.008 95.8521 134.173C98.6082 132.498 101.124 130.365 104.008 128.991C107.422 127.431 113.58 125.636 116.488 123.94C116.871 123.719 117.251 123.486 117.633 123.246C114.698 119.376 111.069 114.644 110.618 114.029C108.553 111.204 112.266 105.467 115.981 109.646C119.201 113.268 121.525 116.263 123.638 119.057C126.274 117.145 129.605 114.987 133.699 111.514C135.711 109.824 137.608 108.002 139.377 106.06C141.322 103.92 143.024 101.571 144.451 99.0556C145.641 96.8936 146.596 94.6097 147.298 92.2434C147.698 91.0593 147.963 89.8183 148.325 88.6058C148.686 87.3933 148.841 86.147 149.168 84.9261C150.222 79.8029 149.722 75.2418 148.543 70.1482C148.378 69.4902 148.253 68.8091 148.106 68.1206C147.903 67.4479 147.713 66.7584 147.53 66.0551C147.17 64.6169 146.73 63.2 146.212 61.8113C146.086 61.457 145.98 61.0912 145.836 60.7443L145.372 59.7184C145.053 59.0331 144.737 58.3541 144.423 57.6814C143.73 56.4087 142.96 55.1795 142.118 54.0006C139.52 50.7025 136.013 48.3967 133.041 45.7692C129.436 42.6719 125.556 39.9096 121.45 37.5167C120.683 37.0718 120.462 36.65 120.516 36.3569C120.125 36.165 119.733 35.9777 119.341 35.7949C119.235 36.0278 119.105 36.2495 118.955 36.4571C119.033 36.4876 119.112 36.5203 119.193 36.5583Z" fill="#FFCFC0"/>
<path d="M116.947 34.9191C116.072 34.8769 115.205 34.743 114.358 34.5195L114.832 34.6998C115.9 35.1068 116.971 35.5644 118.042 36.0431C118.048 35.8322 118.067 35.5823 118.099 35.3135C118.099 35.2892 118.107 35.2607 118.11 35.2365C117.801 35.0994 117.491 34.9592 117.182 34.8295C117.11 34.875 117.03 34.9055 116.947 34.9191V34.9191Z" fill="#FFCFC0"/>
<path d="M49.4199 119.476C49.6055 119.995 49.8058 120.508 49.9966 121.025C49.5886 119.788 49.17 118.59 48.7451 117.498L49.4199 119.476Z" fill="#FFCFC0"/>
<path d="M55.185 132.842C56.4408 130.467 65.444 119.393 67.2891 117.554C72.1645 112.678 75.0598 108.424 74.9501 105.481C74.8447 102.594 74.715 98.592 73.0375 96.4442C71.419 94.3714 69.7057 92.0718 69.769 89.2746C69.8312 86.4078 70.8792 83.3596 73.5963 81.8107C75.8948 80.5002 78.6003 80.3273 81.0928 79.6472C82.6993 79.2868 84.187 78.5219 85.4149 77.4251C86.6427 76.3283 87.57 74.9359 88.1085 73.3801C88.5524 71.8902 88.6631 70.3445 88.9858 68.8347C89.3951 66.9117 90.1561 65.0808 91.2305 63.4343C92.9793 60.9021 95.4834 58.9872 98.3854 57.9632C103.786 55.9114 109.719 56.4755 115.092 54.3783C121.173 52.0081 122.766 45.1759 120.757 39.7912C120.333 38.669 119.81 37.5871 119.193 36.5586C119.113 36.5206 119.034 36.4879 118.955 36.4531C118.6 36.9329 118.25 37.0583 118.078 36.6324C118.045 36.4381 118.033 36.2408 118.043 36.044C116.972 35.5654 115.9 35.1078 114.832 34.7008L114.359 34.5205C113.819 34.3961 113.246 34.2516 112.672 34.0987C112.601 34.211 112.492 34.294 112.365 34.3327C112.238 34.3714 112.102 34.3632 111.98 34.3096C111.833 34.3033 111.769 34.2411 111.748 33.8446C110.596 33.5093 109.507 33.153 108.756 32.8609C107.491 32.4023 106.241 31.8297 104.995 31.2382C99.4903 29.4884 93.8468 28.2091 88.1254 27.4141C85.8396 27.4531 83.5632 27.5511 81.3364 27.471C79.0568 27.3761 75.9971 27.064 72.97 27.141C72.5736 27.1484 72.1782 27.161 71.7849 27.1768C68.0071 27.6189 64.3017 28.5441 60.7594 29.9298C59.1273 30.7639 57.5578 31.7154 56.0633 32.7766C51.7614 35.8609 47.9872 39.6212 44.8871 43.9117C43.9476 45.3593 42.9523 46.653 42.1879 48.0585C41.7862 48.7491 41.3644 49.4207 40.9775 50.1134L39.9157 52.2443C39.5657 52.9687 39.1777 53.6909 38.8414 54.4521C38.5451 55.2324 38.2414 56.0284 37.9283 56.8498C37.2587 58.6215 36.7144 60.4381 36.2993 62.2861C35.9975 63.7624 35.7733 65.2536 35.6277 66.7534C35.5075 68.2685 35.538 69.811 35.499 71.3451C35.6045 72.8877 35.6667 74.4365 35.8153 75.9843L36.0926 78.3134L36.2139 79.4827L36.3963 80.6499C37.3452 87.1205 39.4413 92.4218 41.8895 98.6668C43.1748 101.883 44.3926 105.443 45.6926 109C46.3547 110.792 47.0169 112.577 47.6611 114.32C48.0301 115.401 48.3907 116.456 48.745 117.496C49.1667 118.588 49.5885 119.786 49.9965 121.022C51.5485 125.211 53.2798 129.327 54.9383 133.148C55.0426 133.066 55.127 132.961 55.185 132.842V132.842Z" fill="#FFF2F0"/>
<path d="M61.5732 142.024C63.2286 142.298 64.924 142.136 66.5066 142.358C67.504 142.521 68.2716 142.457 69.1784 142.525C70.4668 142.496 70.5596 142.502 70.587 142.284C70.6098 142.252 70.6272 142.216 70.6387 142.179C66.2768 142.096 63.315 142.044 62.8828 142.033C62.4378 142.008 62.0055 142.015 61.5732 142.024Z" fill="black"/>
<path d="M52.9513 134.924L53.7484 136.118C54.0478 136.529 54.381 136.926 54.6414 137.261C54.9019 137.596 55.1739 137.84 55.2814 137.986C55.5044 138.293 55.7467 138.585 56.0068 138.86C56.2566 139.166 56.5283 139.453 56.8197 139.72L57.6907 140.293L58.337 140.275C58.4548 140.115 58.5899 139.967 58.7397 139.836L58.6195 140.267C60.4362 140.206 62.2729 140.126 64.1254 140.068C62.5643 139.762 61.0328 139.32 59.5484 138.748C59.416 138.642 59.2749 138.548 59.1267 138.466L58.6744 138.227L58.2632 138.021L58.0871 137.928L58.0017 137.875L57.4745 137.341C57.2702 137.144 57.0865 136.927 56.9262 136.693C56.2013 135.728 55.5936 134.68 55.1159 133.572C55.0558 133.434 54.9936 133.286 54.9335 133.15C53.275 129.331 51.5437 125.216 49.9917 121.025C49.8009 120.508 49.6005 119.995 49.415 119.476L48.7402 117.498C48.3859 116.458 48.0253 115.403 47.6563 114.322C47.0121 112.579 46.3499 110.792 45.6878 109.002C44.3878 105.446 43.17 101.885 41.8847 98.6692C39.4365 92.4242 37.3404 87.1229 36.3915 80.6523L36.2143 79.484L36.0931 78.3147L35.8158 75.9856C35.6661 74.4357 35.6049 72.8869 35.4995 71.3465C35.5385 69.8102 35.5079 68.2698 35.6281 66.7547C35.7738 65.2549 35.998 63.7637 36.2998 62.2874C36.7149 60.4394 37.2592 58.6228 37.9287 56.8511C38.2451 56.0297 38.5455 55.2337 38.8418 54.4535C39.1803 53.6922 39.5662 52.97 39.9162 52.2456L40.9769 50.1C41.3639 49.4073 41.7856 48.7357 42.1873 48.045C42.9517 46.6364 43.947 45.3459 44.8865 43.8982C47.9866 39.6078 51.7608 35.8474 56.0627 32.7631C57.5572 31.7019 59.1267 30.7505 60.7588 29.9163C62.1215 29.2269 63.5354 28.6439 64.9879 28.1724C67.1984 27.5352 69.484 27.1959 71.7843 27.1634C72.1776 27.1476 72.573 27.1349 72.9694 27.1276C75.9965 27.0506 79.0563 27.3627 81.3358 27.4576C83.5626 27.5377 85.839 27.4396 88.1248 27.4006C89.9676 27.3487 91.8119 27.4019 93.6486 27.5598C94.9138 27.672 96.1681 27.8835 97.4 28.1925C98.305 28.4092 99.1944 28.6864 100.062 29.0222C101.742 29.6549 103.368 30.452 104.991 31.2216C106.238 31.8131 107.483 32.3814 108.752 32.8443C109.503 33.1364 110.592 33.4927 111.745 33.828C111.733 33.6541 111.727 33.4231 111.724 33.09C111.779 32.6145 111.787 32.1769 111.843 31.7193C109.956 30.9907 108.016 30.3613 106.044 29.7993C104.012 29.2806 102.222 28.0217 100.19 27.4565C92.9757 25.7413 85.5754 24.9344 78.1611 25.0547C74.9207 25.0707 71.6915 25.4362 68.5295 26.1449C66.2771 26.5571 64.0496 27.0953 61.8575 27.757C57.4616 29.1288 53.3656 31.3211 49.7861 34.2181C48.0725 35.6839 46.4762 37.2816 45.012 38.9965C44.0767 40.1268 43.2111 41.3161 42.491 42.2798L41.0929 44.4455C39.6937 46.6744 39.1666 49.305 38.2514 51.5487C35.5894 57.4005 34.0412 63.697 33.686 70.116C33.5911 71.2758 33.7429 72.3871 33.7081 73.5638C33.7081 73.7536 33.7187 74.3788 33.7313 75.3636C33.7788 76.3462 33.9211 77.6832 34.054 79.3048C34.5571 83.4555 35.4096 87.5564 36.6024 91.5638C36.964 92.7627 37.1032 94.0722 37.5207 95.3227C37.72 95.9247 38.5287 97.7392 39.3353 99.5485L41.3386 103.7C42.6829 106.57 43.5527 108.275 44.3572 109.958C44.6566 110.58 44.9603 111.193 45.2787 111.856C45.8228 112.984 46.4132 114.254 47.1133 115.968C48.6387 119.946 49.8762 124.029 50.8162 128.184L50.8236 128.213C51.1483 129.52 51.4467 130.647 51.705 131.568C51.9227 132.431 52.1917 133.279 52.5106 134.109C52.5844 134.266 52.7457 134.563 52.9513 134.924Z" fill="black"/>
<path d="M116.947 34.9168C117.03 34.9032 117.11 34.8727 117.182 34.8272C117.531 34.59 116.977 34.0449 115.811 33.4818C115.193 33.156 114.617 32.865 113.943 32.5888C113.755 32.5055 113.561 32.4327 113.371 32.3516C113.287 32.6236 113.196 32.8946 113.116 33.1666C113.037 33.5043 112.884 33.8202 112.667 34.0913C113.244 34.2484 113.817 34.3928 114.354 34.513C115.202 34.7382 116.071 34.8735 116.947 34.9168Z" fill="black"/>
<path d="M84.7544 139.809C85.3167 139.585 85.879 139.352 86.4414 139.111C87.9892 138.411 89.7953 138.422 91.3789 137.817C96.8205 135.445 102.039 132.561 107.375 129.996C109.685 128.837 112.03 127.754 114.228 126.412C115.241 125.849 116.569 125.279 118.482 124.375L117.625 123.242C117.244 123.483 116.863 123.716 116.48 123.936C113.572 125.632 107.413 127.427 104 128.987C101.115 130.358 98.6003 132.494 95.8442 134.17C94.8514 134.786 93.8068 135.316 92.7222 135.751C91.9515 136.077 91.1566 136.342 90.3446 136.544C87.9196 137.167 85.3512 137.406 83.0474 138.207C81.6552 138.684 80.2957 139.251 78.9775 139.905C80.8659 139.86 82.768 139.814 84.7544 139.809Z" fill="black"/>
<path d="M121.448 37.5148C125.555 39.9077 129.434 42.67 133.039 45.7673C136.011 48.3948 139.518 50.7007 142.116 53.9987C142.959 55.1776 143.729 56.4069 144.422 57.6795C144.734 58.3515 145.05 59.0305 145.371 59.7165L145.835 60.7424C145.978 61.0893 146.084 61.4552 146.21 61.8094C146.729 63.1981 147.169 64.615 147.528 66.0532C147.711 66.7565 147.901 67.446 148.105 68.1187C148.251 68.8072 148.377 69.4894 148.541 70.1463C149.72 75.2399 150.222 79.8011 149.166 84.9242C148.841 86.1452 148.676 87.3872 148.323 88.6039C147.97 89.8207 147.697 91.0574 147.296 92.2415C146.594 94.6078 145.64 96.8917 144.449 99.0537C143.022 101.569 141.32 103.918 139.376 106.058C137.606 108 135.71 109.822 133.698 111.512C129.604 114.985 126.273 117.143 123.636 119.055C124.128 119.704 124.612 120.346 125.087 120.979C126.183 120.37 127.368 119.695 128.677 118.921C130.195 117.955 131.664 116.913 133.078 115.8C134.503 114.688 135.867 113.501 137.165 112.243C138.73 110.787 139.564 108.71 140.793 107.173C144.067 103.127 146.731 98.6231 148.7 93.8051C149.041 92.9289 149.288 92.0622 149.613 91.1692C149.662 91.0237 149.824 90.544 150.078 89.789C150.201 89.4095 150.363 88.9677 150.517 88.4532C150.645 87.926 150.787 87.3366 150.939 86.6903L151.443 84.5889C151.603 83.7833 151.72 82.9695 151.792 82.1512C151.877 81.2888 152.04 80.3883 152.072 79.4447V76.5083C152.165 75.4463 152.169 74.3783 152.083 73.3157C152.048 73.0553 151.952 72.5207 151.825 71.8533C151.653 71.0987 151.439 70.3546 151.182 69.6244C150.933 68.8473 150.684 68.0702 150.476 67.4239C150.21 66.7976 149.997 66.3 149.894 66.0532C149.219 64.2764 148.434 62.5435 147.543 60.8647C147.195 60.1501 146.808 59.4556 146.383 58.7845C145.921 58.0527 145.488 57.1671 144.783 56.1802C141.878 51.8962 138.631 47.8543 135.074 44.094C134.662 43.705 132.356 42.4882 131.929 42.1435C130.446 40.9995 129.752 39.9409 128.216 38.8138C126.902 37.9924 125.278 37.634 123.913 36.9549C123.241 36.6486 122.549 36.3876 121.842 36.1737C120.787 35.9143 120.682 35.9164 120.618 36.1199C120.561 36.1845 120.523 36.2637 120.508 36.3487C120.457 36.6534 120.682 37.0751 121.448 37.5148Z" fill="black"/>
<path d="M167.436 29.202C165.419 28.6114 163.436 27.911 161.495 27.1038C160.501 26.6609 159.577 26.0744 158.754 25.3631C157.899 24.6435 157.238 23.7223 156.828 22.6829C156.502 21.9009 156.382 21.048 156.479 20.2062C156.579 19.4085 156.938 18.6656 157.5 18.0911C158.608 17.021 160.037 17.06 161.401 17.1612C162.499 17.31 163.584 17.5416 164.646 17.8539C165.264 18.0078 165.848 18.2409 166.382 18.3716C166.794 18.5242 167.223 18.6251 167.66 18.6721C168.327 18.5962 168.043 17.9551 167.038 17.215C166.575 16.859 166.081 16.5453 165.562 16.2776C164.499 15.6897 163.338 15.3009 162.136 15.1305C160.83 14.9202 159.492 15.1087 158.295 15.6714C157.339 16.143 156.506 16.832 155.864 17.6831C155.212 18.5824 154.889 19.6783 154.949 20.7871C155.172 22.5404 155.898 24.1913 157.041 25.5392C158.075 26.7911 159.307 27.8652 160.688 28.7191C163.336 30.3083 166.21 31.4865 169.211 32.2133C171.727 32.9626 174.317 33.4359 176.936 33.6251L177.399 33.6693C177.382 33.5491 177.367 33.4268 177.35 33.3077C177.302 32.9914 177.224 32.6835 177.158 32.3725C176.017 32.1458 174.89 31.8518 173.784 31.4921C171.47 30.7424 169.112 29.8019 167.436 29.202Z" fill="black"/>
<path d="M111.724 33.0972C111.724 33.4283 111.733 33.6592 111.745 33.8353C111.77 34.2317 111.829 34.2939 111.977 34.3002C112.098 34.3538 112.235 34.362 112.362 34.3233C112.489 34.2846 112.597 34.2016 112.668 34.0894C112.885 33.8183 113.038 33.5024 113.118 33.1647C113.198 32.8927 113.288 32.6217 113.373 32.3497C114.68 28.1328 116.606 24.1333 119.087 20.4818C120.196 18.8612 121.287 17.2006 122.516 15.5842C123.735 13.9284 125.182 12.4541 126.816 11.2055C127.987 10.3622 129.244 9.64407 130.565 9.06301C131.244 8.7583 131.923 8.44199 132.622 8.16153L134.746 7.37498C137.603 6.3902 140.483 5.64477 143.107 4.87403C148.198 3.47173 152.671 2.449 157.882 2.90237C162.853 3.34415 167.907 4.12965 172.158 6.45768C174.675 7.83196 176.989 9.54865 179.035 11.5587C180.885 13.3587 182.513 15.3731 183.885 17.5591C184.553 18.6198 185.13 19.735 185.609 20.893C186.028 21.9004 186.37 22.9385 186.631 23.9981C187.129 25.6253 187.114 27.3663 186.59 28.9852C186.045 30.2376 185.038 31.2309 183.778 31.7571C182.644 32.2698 181.424 32.5632 180.181 32.6217C180.065 32.6312 179.94 32.6291 179.818 32.6322C179.905 32.8715 179.97 33.1187 180.012 33.3703C180.012 33.4546 180.02 33.6297 180.026 33.8658C180.913 33.8949 181.8 33.8533 182.68 33.7414C184.483 33.5626 186.179 32.8051 187.515 31.5821C188.4 30.7124 189.032 29.6193 189.345 28.419C189.68 27.1334 189.764 25.7952 189.593 24.4778C189.329 22.5814 188.788 20.734 187.987 18.9951C187.191 17.2975 186.206 15.6953 185.05 14.2188C183.723 12.4718 181.702 11.4775 180.21 10.1922C176.271 6.7489 171.692 4.11713 166.734 2.44794C165.832 2.16221 164.931 2.03569 164.016 1.75312C163.868 1.70567 163.375 1.58547 162.588 1.43681C161.807 1.2544 160.726 1.08676 159.415 0.903301C156.028 0.487475 152.603 0.495976 149.219 0.928606C148.161 0.950755 147.105 1.02783 146.056 1.15951C145.803 1.21856 145.279 1.33664 144.633 1.53276L142.454 2.25816C140.94 2.84333 139.443 3.44431 138.965 3.67311C137.77 4.16444 136.817 4.56826 136.013 4.97209C135.209 5.37591 134.493 5.66586 133.826 6.02645L131.718 7.10612L129.074 8.60753C124.587 11.2638 120.577 14.6523 117.208 18.6324C116.617 19.73 116.089 20.8603 115.627 22.018C115.16 22.8404 114.691 23.4614 114.244 24.1056C113.726 24.774 113.293 25.5039 112.954 26.2786C112.329 27.72 112.371 29.4185 112.005 30.8999C111.924 31.1712 111.867 31.4493 111.836 31.7307C111.787 32.1841 111.78 32.6217 111.724 33.0972Z" fill="black"/>
<path d="M179.811 32.631C179.491 31.6825 179.106 30.7568 178.661 29.8601C178.016 28.1078 177.935 26.8025 176.902 25.1629C176.073 23.8102 174.564 23.0047 173.499 21.9587C172.949 21.4902 172.363 21.0671 171.744 20.6935C170.819 20.1948 170.715 20.1727 170.605 20.354C170.296 20.5649 170.235 21.1015 171.006 21.8786C174.039 24.6968 176.18 28.3423 177.163 32.3642C177.229 32.6753 177.307 32.9832 177.356 33.2995C177.373 33.4186 177.387 33.5409 177.404 33.6611C177.704 35.3566 177.755 37.0868 177.555 38.7969C177.342 40.721 176.485 42.5165 175.123 43.8916C174.144 44.8182 172.931 45.4595 171.614 45.7462C170.275 46.0288 168.89 45.997 167.566 45.6534C167.135 45.5475 166.71 45.4191 166.292 45.2686C166.207 44.9322 166.116 44.5948 166.055 44.2638C165.41 41.1125 164.251 38.0889 162.623 35.3143C161.694 33.6251 160.462 32.1217 158.988 30.8797C158.202 30.2832 157.339 29.7972 156.421 29.4352C156.255 29.3644 156.083 29.3103 155.906 29.2739C155.556 29.1703 155.194 29.1101 154.829 29.0947C153.574 29.0149 152.337 29.4186 151.37 30.2228C151.199 30.3432 151.051 30.4919 150.93 30.6625C150.784 30.8318 150.653 31.0131 150.537 31.2044C150.44 31.4153 150.346 31.6336 150.259 31.8571C150.196 32.0862 150.153 32.32 150.128 32.5561C150.071 33.4828 150.245 34.409 150.634 35.2521C151.446 36.9456 152.525 38.4971 153.831 39.847C154.452 40.6739 155.128 41.4581 155.855 42.1941C156.82 42.9546 157.835 43.6479 158.895 44.269C159.589 44.6623 160.299 45.0271 160.89 45.3234L162.22 45.9075C162.936 46.2158 163.67 46.4813 164.418 46.7025C164.421 47.1913 164.397 47.6798 164.347 48.166C164.254 49.2952 163.912 50.39 163.347 51.3723C163.059 51.8088 162.7 52.1943 162.285 52.5131C161.88 52.8412 161.436 53.1162 160.961 53.3313C160.1 53.7224 159.166 53.9269 158.22 53.9312C157.34 53.9401 156.462 53.8291 155.612 53.6012C154.827 53.4066 154.058 53.1539 153.311 52.8452C150.885 51.8599 148.647 50.4639 146.695 48.7185C145.213 47.2173 143.952 45.5133 142.95 43.6575C141.76 41.6089 140.784 39.4316 140.023 37.868C139.777 37.4094 139.588 36.995 139.285 36.5153C138.981 36.0355 138.671 35.5663 138.346 35.1182C137.65 34.249 136.851 33.4669 135.967 32.7891C134.272 31.5136 132.409 30.4796 130.43 29.7167C128.934 29.0958 127.346 28.7205 125.73 28.6054C123.942 28.4974 122.183 29.0913 120.826 30.2608C120.347 30.631 119.934 31.0803 119.606 31.5893C119.413 31.8719 119.22 32.1702 119.032 32.4728C118.868 32.7877 118.727 33.114 118.61 33.4492C118.484 33.7771 118.369 34.0997 118.268 34.4065C118.195 34.6769 118.145 34.9531 118.119 35.2321C118.119 35.2564 118.112 35.2848 118.108 35.3091C118.075 35.5779 118.056 35.8236 118.051 36.0387C118.042 36.2355 118.053 36.4327 118.086 36.627C118.258 37.0488 118.613 36.9275 118.963 36.4478C119.113 36.2403 119.242 36.0185 119.349 35.7856V35.7772C119.471 35.5526 119.571 35.3259 119.703 35.114C119.835 34.9021 119.986 34.6997 120.117 34.4719C121.065 32.7581 122.495 31.3595 124.229 30.4485C124.546 30.2766 124.894 30.1691 125.252 30.1322C125.616 30.1163 125.977 30.1248 126.324 30.1322C127.042 30.2882 127.694 30.4168 128.355 30.5919C130.844 31.009 133.116 32.2629 134.795 34.1461C135.702 35.1047 136.468 36.1867 137.071 37.3598C137.399 37.9112 137.724 38.663 138.078 39.283C138.429 39.9325 138.792 40.5707 139.168 41.1977C140.46 43.3913 142 45.4288 143.758 47.2698C144.61 48.206 145.598 49.4765 147.4 51.2352C148.489 52.2992 149.67 53.2649 150.929 54.121C152.759 55.4144 154.85 56.2902 157.055 56.6863C157.828 56.8038 158.612 56.8247 159.39 56.7485C160.673 56.6154 161.912 56.2068 163.022 55.5507C163.316 55.3887 163.595 55.2018 163.857 54.9919C164.13 54.7982 164.386 54.5827 164.624 54.3477C165.092 53.8991 165.5 53.3911 165.836 52.8368C166.087 52.4062 166.299 51.9538 166.468 51.4851C166.585 51.2033 166.677 50.9123 166.746 50.6153C167.013 49.5126 167.017 48.3624 166.756 47.2582C166.756 47.2339 166.745 47.2118 166.74 47.1875C167.046 47.2276 167.347 47.2606 167.642 47.2866C169.521 47.4733 171.416 47.1552 173.131 46.3651C174.846 45.575 176.319 44.3414 177.398 42.7919C178.338 41.4725 179.032 39.9951 179.45 38.43C179.869 36.9442 180.062 35.4037 180.022 33.8604C180.016 33.6242 180.006 33.4492 180.007 33.3648C179.965 33.1146 179.9 32.8689 179.811 32.631V32.631ZM160.487 42.0971C158.51 40.7734 156.671 39.2546 154.998 37.5633C154.21 36.7677 153.516 35.8831 152.933 34.9274C152.405 34.0238 152.049 32.9441 152.353 32.3874C152.501 32.0593 152.746 31.784 153.054 31.5977C153.427 31.3587 153.846 31.2013 154.284 31.1359C155.287 31.0413 156.292 31.2945 157.131 31.8529C159.077 33.0888 160.665 34.8125 161.739 36.8527C163.025 39.1929 163.876 41.7472 164.251 44.3914C162.953 43.701 161.696 42.9349 160.487 42.0971V42.0971Z" fill="black"/>
<path d="M123.634 118.738C121.525 115.944 119.197 112.95 115.977 109.327C112.263 105.148 108.549 110.885 110.615 113.71C111.065 114.326 114.694 119.057 117.629 122.927L118.486 124.059C119.391 125.256 120.186 126.313 120.72 127.038C122.417 129.345 131.5 140.112 132.469 141.258L132.559 141.364C133.147 141.999 133.774 142.598 134.436 143.156C135.097 143.634 135.818 144.024 136.58 144.316C138.48 144.943 140.47 145.254 142.471 145.236C143.864 145.236 141.381 143.914 140.452 143.681C139.523 143.448 149.162 143.365 150.091 143.132C151.02 142.899 150.539 142.435 148.914 141.739C147.289 141.043 140.22 139.967 138.827 138.807C137.434 137.647 129.541 126.502 126.523 122.556C126.042 121.923 125.563 121.291 125.085 120.658C124.607 120.025 124.123 119.385 123.634 118.738Z" fill="black"/>
<path d="M85.4919 138.385C85.3495 138.279 85.0279 138.417 84.8592 138.385C84.6176 138.303 84.3711 138.237 84.1212 138.186C83.2287 138.077 82.3238 138.134 81.4515 138.352C80.9823 138.518 80.5026 138.628 80.0239 138.789C79.3326 139.083 78.6144 139.309 77.8794 139.463C77.1887 139.543 76.5393 139.84 75.8392 139.854C74.9841 139.871 74.1248 139.847 73.2697 139.847H67.3537C66.876 139.847 66.3858 139.815 65.9081 139.841C65.5127 139.862 65.1701 140.019 64.7694 140.039C63.985 140.077 63.1879 140.031 62.3971 140.031C60.7458 140.099 59.0918 140.007 57.4585 139.754C57.2845 139.719 57.1032 139.691 56.9186 139.671C56.5443 139.355 56.1553 139.008 56.0066 138.858C55.7464 138.582 55.5041 138.29 55.2812 137.984C55.1758 137.837 54.9101 137.591 54.6412 137.258C54.3724 136.926 54.0476 136.527 53.7482 136.116L52.9511 134.922C52.7402 134.56 52.5842 134.263 52.5135 134.1C52.1947 133.269 51.9257 132.421 51.708 131.559C45.1024 132.929 31.4642 135.709 27.6685 136.198C22.6519 136.839 11.4798 138.096 10.5678 137.602C9.65579 137.109 6.36091 133.453 4.17733 132.797C1.99374 132.142 1.55302 131.427 0.93727 132.455C0.321522 133.483 6.55175 142.923 7.23603 143.295C7.92031 143.667 11.4166 143.322 12.2327 143.234C13.0487 143.145 28.0607 143.165 30.0408 143.001C32.0209 142.836 48.0578 142.579 51.3147 142.453C53.6891 142.366 65.6445 142.833 72.286 142.429H75.836C76.2701 142.441 76.7037 142.393 77.1244 142.286C77.3087 142.258 77.4949 142.246 77.6811 142.25C77.9489 142.222 77.9901 142.102 78.2199 142.051C78.4213 142.004 78.667 142.008 78.8736 141.968C79.0803 141.928 79.3038 141.885 79.5168 141.835C79.926 141.703 80.3217 141.532 80.6987 141.325C81.0256 141.175 81.3609 141.091 81.7257 140.955C81.9302 140.88 82.0947 140.752 82.2792 140.674C82.4865 140.619 82.6982 140.584 82.9118 140.568C83.2545 140.483 83.6636 140.235 84.0316 140.123C84.5198 140.001 84.9467 139.705 85.2325 139.29C85.4138 139.065 85.824 138.624 85.4919 138.385ZM69.1777 142.525C68.4576 142.471 67.8197 142.495 67.0901 142.428H70.503C70.0684 142.525 69.6219 142.558 69.1777 142.525V142.525Z" fill="black"/>
<path d="M133.087 141.683L132.998 141.577C129.202 141.366 125.301 141.184 121.318 141.04C116.784 140.875 112.132 141.647 107.45 141.546C101.145 141.407 93.8166 139.917 87.4525 139.823C86.7144 139.812 85.9954 139.809 85.2826 139.811C83.2962 139.811 81.3941 139.862 79.51 139.917C76.407 139.999 73.3525 140.091 70.0555 140.022C68.242 139.985 66.4412 140.022 64.653 140.075C62.8004 140.133 60.9627 140.213 59.1471 140.274L58.8645 140.282L58.2182 140.3C56.4774 140.351 54.7535 140.375 53.0518 140.324C50.1745 140.235 47.6851 140.107 45.3465 139.972C45.0252 140.127 44.7274 140.327 44.4619 140.565C44.9427 140.875 45.4193 141.189 45.898 141.501C45.9886 141.56 46.0814 141.618 46.1721 141.678C52.9664 141.777 58.4449 142.1 60.3385 142.062C60.9311 142.062 61.5131 142.041 62.0972 142.03C62.5295 142.021 62.9618 142.014 63.4067 142.041C63.839 142.052 66.8007 142.104 71.1626 142.187L74.8834 142.257L79.7335 142.351C80.8553 142.373 82.0046 142.685 83.1802 142.692C84.3136 142.698 90.275 142.353 91.4422 142.336C97.1526 142.251 98.3578 142.284 103.714 142.39C112.735 142.567 119.902 143.597 120.723 143.629C121.333 143.653 124.145 143.266 124.755 143.277C126.817 143.324 128.092 143.885 130.16 143.97C131.742 144.034 133.374 143.558 134.963 143.486C134.301 142.924 133.675 142.322 133.087 141.683V141.683Z" fill="black"/>
<path d="M83.2203 45.6743C83.1907 45.6289 83.138 45.6448 83.0916 45.6363C82.9956 45.612 82.898 45.5941 82.7996 45.5826C82.6016 45.5627 82.4024 45.5592 82.2039 45.572C81.8859 45.6134 81.5823 45.7297 81.3182 45.9115C80.8709 46.2247 80.548 46.6853 80.4062 47.2126C80.3959 47.2824 80.3913 47.3529 80.3925 47.4235C80.3835 47.5287 80.3835 47.6345 80.3925 47.7398C80.4337 47.9354 80.5212 48.1184 80.6476 48.2733C80.7581 48.4192 80.8883 48.5491 81.0346 48.6592C81.1911 48.7501 81.3461 48.8436 81.4995 48.9396C81.6075 48.9873 81.7219 49.0185 81.839 49.0324C81.9925 49.0319 82.1446 49.0041 82.2882 48.9502C82.4369 48.8975 82.5876 48.8542 82.7331 48.7899C82.8708 48.7458 83.0045 48.6901 83.1327 48.6233C83.1654 48.6012 83.176 48.5706 83.2055 48.5464C83.235 48.5221 83.2719 48.5147 83.3025 48.4894C83.3677 48.4243 83.4273 48.3537 83.4807 48.2786C83.6225 48.1366 83.7423 47.9742 83.836 47.7967C83.9571 47.5431 84.0419 47.2737 84.088 46.9965C84.0971 46.8526 84.0864 46.7083 84.0564 46.5673C84.0515 46.4966 84.0423 46.4261 84.029 46.3565C84.003 46.3 83.9673 46.2486 83.9235 46.2046C83.8498 46.0891 83.7515 45.9912 83.6357 45.9178C83.5715 45.8915 83.5103 45.8583 83.4533 45.8187C83.3986 45.7626 83.3352 45.7156 83.2656 45.6796C83.2477 45.6901 83.2498 45.7028 83.2203 45.6743Z" fill="black"/>
<path d="M57.6786 40.4352C57.6501 40.393 57.6016 40.4067 57.5584 40.3994C57.4679 40.376 57.376 40.3591 57.2832 40.3487C57.0978 40.3303 56.9113 40.3271 56.7254 40.3393C56.4273 40.3774 56.1426 40.4858 55.8946 40.6556C55.4754 40.9494 55.1728 41.3812 55.0395 41.8755C55.0295 41.941 55.0253 42.0074 55.0268 42.0737C55.0184 42.1719 55.0184 42.2707 55.0268 42.3689C55.0652 42.5526 55.1473 42.7244 55.2662 42.8697C55.3697 43.0072 55.4922 43.1293 55.6299 43.2324C55.6963 43.2808 55.7669 43.3232 55.8408 43.3589C55.9101 43.4107 55.9838 43.4563 56.0612 43.495C56.1616 43.5395 56.2683 43.5687 56.3775 43.5814C56.5215 43.5811 56.6644 43.5551 56.7992 43.5044C56.9384 43.4549 57.0797 43.4138 57.221 43.3547C57.3498 43.3132 57.475 43.261 57.5953 43.1987C57.6269 43.1776 57.6364 43.1491 57.6627 43.1259C57.6891 43.1027 57.7323 43.0711 57.7608 43.0479C57.8194 42.9949 57.8733 42.9371 57.9221 42.875C58.0547 42.7414 58.167 42.589 58.2553 42.4227C58.3685 42.185 58.448 41.9327 58.4915 41.673C58.5001 41.538 58.4902 41.4025 58.4619 41.2703C58.4525 41.207 58.4525 41.13 58.4366 41.0689C58.412 41.0164 58.3789 40.9683 58.3386 40.9265C58.2685 40.8194 58.1761 40.7288 58.0676 40.6608C58.0076 40.6363 57.9504 40.6056 57.8968 40.5691C57.8457 40.5163 57.7867 40.4718 57.7218 40.4373C57.7049 40.45 57.707 40.4616 57.6786 40.4352Z" fill="black"/>
<path d="M73.5271 52.389C73.2512 52.7287 72.9342 53.033 72.5835 53.2947C71.8307 53.8245 70.9982 54.2306 70.1173 54.4978C69.5807 54.6654 69.5258 54.6549 69.1842 54.7561C68.2736 54.994 67.3288 55.0735 66.3912 54.9912C65.369 54.8723 64.3697 54.6041 63.4253 54.1952C62.7675 53.9087 62.1863 53.4716 61.7284 52.9193C61.2706 52.3669 60.9489 51.7147 60.7894 51.0152C60.7078 50.6772 60.6779 50.3288 60.7008 49.9819C60.7198 49.227 61.0361 48.9276 61.228 49.2439C61.363 49.5602 61.4389 50.2086 61.6877 50.856C61.9081 51.4452 62.2355 51.9885 62.6535 52.4586C63.3308 53.0309 64.1167 53.4606 64.964 53.7221C65.8113 53.9835 66.7027 54.0712 67.5847 53.9801C68.4572 53.9668 69.3201 53.7964 70.1321 53.4771C71.134 53.087 72.0727 52.5509 72.9177 51.8861C73.4133 51.4918 73.7032 51.5371 73.8118 51.7279C73.8993 51.7965 73.8951 51.8682 73.5271 52.389Z" fill="black"/>
<path d="M108.333 40.43L108.494 40.6208C113.496 43.4929 117.245 46.2648 118.582 47.1579C119.301 47.6545 120.016 48.0973 120.719 48.6435C124.453 51.3556 128.01 54.304 131.368 57.4706C132.061 58.1222 132.669 58.8992 133.371 59.5962C133.718 59.9272 134.808 60.951 135.86 62.0212C136.912 63.0914 137.916 64.2101 138.22 64.5981C139.323 65.9286 140.357 67.3152 141.318 68.7522C142.081 69.912 142.794 71.0444 143.848 72.8811C144.054 72.8442 144.145 72.6239 144.183 72.3603C142.26 68.3352 139.821 64.5781 136.926 61.184C135.22 59.3439 133.41 57.6031 131.505 55.9702C129.683 54.3887 127.852 52.8303 125.84 51.2256C121.988 48.2933 117.991 45.5587 113.862 43.0321C111.803 41.6941 109.998 40.5681 108.283 39.539C108.022 39.476 107.756 39.4407 107.487 39.4336L108.333 40.43Z" fill="black"/>
<path d="M84.8195 118.871L84.8712 118.977C86.7079 119.482 88.1175 120.113 88.6268 120.26C88.9052 120.329 89.1785 120.418 89.445 120.524C90.8683 121.063 92.261 121.679 93.6171 122.369C93.8975 122.511 94.1179 122.786 94.4068 122.934C94.6936 123.059 96.2224 123.697 96.4934 123.882C97.4464 124.433 98.3342 125.089 99.1398 125.838C99.2778 125.708 99.379 125.544 99.4329 125.362C98.5186 124.154 97.4169 123.1 96.1697 122.24C94.6782 121.486 93.1456 120.818 91.579 120.236C90.0428 119.578 88.4001 119.345 86.9398 118.835L84.869 118.104C84.7527 118.163 84.6461 118.24 84.5527 118.331L84.8195 118.871Z" fill="black"/>
<path d="M122.741 59.7712L122.809 59.9399C125.814 62.5031 127.941 64.9038 128.74 65.663C129.162 66.0847 129.6 66.4696 130.005 66.9282L136.484 73.9334C136.917 74.4226 137.245 75.0226 137.688 75.5392L139.278 77.3169C139.95 78.095 140.598 78.8984 140.794 79.1746C142.162 81.0106 143.309 83.0004 144.214 85.1033C144.312 85.0752 144.401 85.0237 144.475 84.9531C144.548 84.8826 144.603 84.7951 144.635 84.6984C143.634 81.7833 142.201 79.0344 140.386 76.5429C138.139 73.6382 135.797 71.6064 133.427 69.0296C131.122 66.5139 128.577 64.3102 126.279 62.0782C125.067 60.9004 124.003 59.8956 122.979 58.9731C122.789 58.9145 122.592 58.8815 122.394 58.875L122.741 59.7712Z" fill="black"/>
<path d="M127.196 82.3736L127.204 82.4959C128.813 83.9066 129.983 85.1845 130.438 85.5704C130.69 85.7715 130.93 85.9866 131.158 86.2146C131.308 86.3696 132.872 87.8605 134.733 89.9049C134.973 90.1653 135.109 90.5312 135.361 90.8C135.61 91.052 136.994 92.3151 137.23 92.5924C138.063 93.5095 138.823 94.491 139.502 95.5278C139.67 95.4358 139.807 95.2974 139.897 95.1292C139.212 93.6046 138.356 92.1622 137.347 90.8295C136.036 89.3323 134.731 88.3065 133.394 86.9284C132.097 85.6031 130.555 84.5993 129.305 83.3984C128.661 82.7658 128.098 82.2112 127.56 81.6808C127.423 81.6752 127.285 81.6905 127.152 81.7262L127.196 82.3736Z" fill="black"/>
<path d="M85.1793 107.213L85.2236 107.328C87.2111 108.255 88.7283 109.176 89.285 109.427C89.5901 109.554 89.8882 109.698 90.178 109.856C90.3689 109.962 92.3332 110.987 94.7424 112.473C95.0524 112.661 95.2906 112.981 95.6143 113.175C95.9306 113.353 97.6461 114.214 97.9561 114.426C99.0337 115.099 100.056 115.857 101.014 116.692C101.151 116.558 101.245 116.387 101.285 116.2C100.182 114.889 98.9334 113.709 97.5638 112.68C95.8516 111.572 94.2806 110.926 92.5735 109.948C90.9193 109.012 89.1195 108.456 87.5463 107.629L85.3322 106.441C85.1964 106.473 85.0663 106.525 84.9463 106.596L85.1793 107.213Z" fill="black"/>
</svg>
