<svg id="Group_35" data-name="Group 35" xmlns="http://www.w3.org/2000/svg" xmlns:xlink="http://www.w3.org/1999/xlink" width="575.33" height="394.672" viewBox="0 0 575.33 394.672">
  <defs>
    <clipPath id="clip-path">
      <rect id="Rectangle_48" data-name="Rectangle 48" width="575.33" height="394.672" fill="none"/>
    </clipPath>
  </defs>
  <g id="Group_34" data-name="Group 34" clip-path="url(#clip-path)">
    <path id="Path_202" data-name="Path 202" d="M34.241,198.685c1.631.027,10.986.895,24.674,1.577a1.99,1.99,0,0,0,1.462-1.824c-.5-6.383-4.03-10.631-6.743-16.337-3.006-6.692-6.846-13.777-10.346-20.214-1.91-3.3-3.278-3.119-.6-6.322,3.8-4.538,14.889-11.015,19.613-14.591,4.454-3.377,8.181-5.806,11.284-7.791l-.183-.089a26.19,26.19,0,0,1-6.832-2.939,22.948,22.948,0,0,1-2.767-2.112c-.779-.846-1.666-1.854-2.327-2.644-1.3-1.631-2.9-3.267-4.511-4.938-3.651-3.7-6.075-6.523-8.224-9.135-5.226,6.7-9.642,14.7-16.12,23.6-4.755,6.529-11.676,15.757-10.44,20.956s4.39,15.994,8.041,19.79a42.81,42.81,0,0,0,5.04,9.3c1.848,3.143-1.486,5.158-5.185,5.626-5.1.766-11.888.357-14.548,5.79-.341.69-1.273,2.308-.47,3.009a54.362,54.362,0,0,0,6.128.4c1.975-.024,11.08-1.139,13.052-1.1" transform="translate(24.867 187.768)"/>
    <path id="Path_203" data-name="Path 203" d="M90.021,182.965c-5.1-10.87-10.58-17.264-18.755-29.322-2.48-3.3-9.744-12.713-8.463-14.637,3.415-5.123,7.061-12.13,10.956-16.864-5.951,1.676-9.736.287-15.131-.3-.822-.121-3.173-.18-5.5-.486a37.032,37.032,0,0,1-4.82-.86c-1.526,7.56-5.8,15.166-4.836,22.933,4.03,9.79,13.815,18.022,18.336,27.565,2.418,4.462.521,3.589-3.455,4.1-4.755.766-11.781,1.8-13.549,7.313-.682,1.824-.613,2.762.61,3.2,14.03.024,18.774,0,35.732-.422,1.343-.035,4.7-.2,8.6-.408a1.478,1.478,0,0,0,.277-1.814" transform="translate(73.088 203.238)"/>
    <path id="Path_204" data-name="Path 204" d="M170.158,97.6c.043.244.1.489.142.733a54.8,54.8,0,0,0,1.051-6.327c-.1.537-.22,1.034-.328,1.558-.279,1.365-.564,2.711-.865,4.035" transform="translate(286.997 155.182)"/>
    <path id="Path_205" data-name="Path 205" d="M176.542,98.575a200.281,200.281,0,0,1-5.733,50.778c.424,2.106.836,4.215,1.263,6.324,1.214,5.994,2.668,11.934,4.231,17.813a80.383,80.383,0,0,1,1.859,12.157c.22,1.972.04,3.971.193,5.959.212,2.743.336,5.234.336,8.009,0,5.521,0,11.1.513,16.587.226,2.431.916,4.723,1.228,7.13.3,2.281.693,4.567,1.147,6.808,1.048,5.193,1.961,10.416,2.783,15.674.371,2.362.314,4.6.51,6.985.145,1.722.36,3.393.347,5.131-.022,2.235.156,4.567,0,6.808-.062.862-.392,1.59-.467,2.456a19.131,19.131,0,0,1,0,1.924,3.973,3.973,0,0,1-.76,1.682,3.9,3.9,0,0,1-1.435,1.161c-.806.368-1.881.2-2.687.623a7.108,7.108,0,0,0-1.655,1.58,10.811,10.811,0,0,0-.717.919c13.484-.067,26.987-.481,40.461-.793a13.64,13.64,0,0,0-2.654-2.638,48.091,48.091,0,0,0-12.407-4.745c-.763-.234-1.749-.172-2.061-1.112a9.875,9.875,0,0,1,.027-2.356,11.477,11.477,0,0,0-.1-2.611c-.242-1.037-.255-2.074-.433-3.224-.373-2.418-.51-4.876-.806-7.31-.43-3.407-1.024-6.786-1.257-10.282q-1.261-18.465-2.528-36.885c-.339-4.968-.239-10.018-.766-14.965-.226-2.1-.6-4.113-.948-6.179a42.724,42.724,0,0,0-.991-6.056,55.2,55.2,0,0,1-1.252-7.9c-.22-1.432,0-2.955-.137-4.42-.2-2.165-.365-4.3-.674-6.448-.3-2.1-.231-4.344-.422-6.469-.161-1.776-.317-3.549-.492-5.322-.2-2.074-.336-4.154-.476-6.233-.132-1.932-.658-3.74-.967-5.642-1.805-11.142-4.186-22.162-6.316-33.226C181,93.5,179.078,86.88,177.5,80.2c-1.072-4.567-2.195-9.135-3.267-13.7.381,4.03.551,7.1.927,9.648a153.157,153.157,0,0,1,1.378,22.434" transform="translate(288.095 112.152)"/>
    <path id="Path_206" data-name="Path 206" d="M86.717,4.429c-3.205.946-6.327,1.937-9.4,2.955,3.076-1.018,6.2-2.01,9.4-2.955" transform="translate(130.402 7.47)" fill="#ddfdff"/>
    <path id="Path_207" data-name="Path 207" d="M69.839,12.175Q63.492,15.8,57.628,19.781,63.5,15.8,69.839,12.175" transform="translate(97.198 20.535)" fill="#ddfdff"/>
    <path id="Path_208" data-name="Path 208" d="M169.936,96.407q.246-1.056.486-2.149c-.161.725-.312,1.459-.486,2.149" transform="translate(286.622 158.98)" fill="#ddfdff"/>
    <path id="Path_209" data-name="Path 209" d="M65.253,10.736c-.22.113-.451.22-.672.333.22-.113.451-.22.672-.333" transform="translate(108.926 18.108)" fill="#ddfdff"/>
    <path id="Path_210" data-name="Path 210" d="M50.489,272.38a28.948,28.948,0,0,0,6.577,1.792,26.742,26.742,0,0,0,4.567.142c1.956-.086,3.847-.371,4.452-.4,1.244,0,2.525.572,3.761.494a35.238,35.238,0,0,0,11.593-3.423,26.506,26.506,0,0,0,3.3-1.9,12.154,12.154,0,0,0,1.437-.973,16.993,16.993,0,0,0,2.536-2.254c.774-.782,2.509-2.1,4.567-3.888a15.573,15.573,0,0,0,2.775-2.988,37.206,37.206,0,0,0,2.278-4.79l.537-.126,2.837-.6a7.191,7.191,0,0,1,.97,1.582c-.68,1.182-1.319,2.418-2.026,3.794a17.706,17.706,0,0,1-2.861,4.191c-2.329,2.418-4.6,4.8-6.921,7.3a27.692,27.692,0,0,1-8.67,6.327,33.852,33.852,0,0,0,16.657,1.075,45.965,45.965,0,0,0,4.675-1.507c1.582-.578,3.141-1.177,4.661-1.822a42.778,42.778,0,0,0,8.482-4.661c2.38-1.843,3.7-1.9,4.237-1.128a44.068,44.068,0,0,0,4.943-6.55c-.269-.1-.408-.395-.392-.956a67.477,67.477,0,0,1,3.541-10.075c1.746-4.2,3.761-8.6,5.123-11.2,3.783-8.221,9.014-16.286,12.772-24.852,1.529-4.4,3.084-8.92,4.675-13.455,3.114-11.456,4.677-23.425,9.924-34.419.368-.712.763-1.451,1.177-2.211.247-8.4.293-16.9-3.254-24.572a15.416,15.416,0,0,1-.922-8.361,133.519,133.519,0,0,0-11.354,8.047,3.589,3.589,0,0,1-1.209.72,3.552,3.552,0,0,1-1.392.2c-.975-.172-.733-.758-.65-1.209.021-.223.126-.5-.153-.626-.094-.159.215-.537.774-1.443a28.144,28.144,0,0,1,2.923-3.42c2.311-2.149,4-5.406,6.77-7.23,3.423-2.222,6.292-2.332,9.833-4.111a58.983,58.983,0,0,1,6.805-4.089,75.119,75.119,0,0,1,32.686.269c2.493.484,4.438,1.134,6.193,1.572l4.715,1.572,4.75,1.83c1.757.7,3.708,1.631,6.179,2.711.578.325,1.964.927,3.627,1.7,1.343.494,2.746,1.029,4.162,1.612-.156-2.633-.159-5.25-.156-7.95-.089-4.508-.733-9.629,1.993-13.533.231-6.606,4-7.1,6.985-6.606,11.821,3.525,13.734,23.984,15.741,34.8.564,4.546.93,9.1,1.225,13.654a78.234,78.234,0,0,1,10.532,21.915,141.739,141.739,0,0,1,3.976,16.174,205.465,205.465,0,0,1,9.387,24.389c4.777,16.762,9.427,26.646,19.344,39.05s34.73,26.294,34.73,28.28c0,1.4-1.239,22.122-1.967,34.161a119.116,119.116,0,0,1,16.327-.2A11.765,11.765,0,0,1,356.762,316c0-.774.035-1.539.038-2.311.03-4.175.048-8.329.244-12.479.15-3.605.3-7.195.449-10.706.124-3.826.242-7.568.357-11.174l1.58-.868c.269-.317.626-.269,1.075-.395l.93-.223.228-.056c.073-.03,0-.325,0-.473l-.051-1.1c-.107-.489.183-.43.368-.516l.492-.172.744-.269,2.982-1.136,5.854-2.391a46.8,46.8,0,0,0,10.293-5.911c2.864-2.246,4.3-2.351,4.785-1.518a63.417,63.417,0,0,0,5.4-6.179c-.255-.121-.406-.414-.387-.932a57.74,57.74,0,0,1,3.444-8.4c1.561-3.455,3.181-7.12,4.368-9.4.269-.537.537-1.075.825-1.628a20.783,20.783,0,0,1-14.451-3.039c-8.358-5.373-13.363-15.241-16.875-24.2-5.551-14.156-7.641-29.164-11.351-43.827a289.266,289.266,0,0,0-13.7-41.106c-10.317-24.556-24.223-48.153-43.091-67.142-16.348-16.453-37-29.392-60.262-32.74-25.628-3.689-50.8,4.586-72.212,18.42a183.052,183.052,0,0,0-19.261,14.43,170.675,170.675,0,0,0-19.594,18.976,190.486,190.486,0,0,0-24.035,37.03c-13.5,26.439-22.724,54.808-36.34,81.2A151.049,151.049,0,0,1,46.5,229.96a73.961,73.961,0,0,1-20.026,15.583c1,2.039,2.082,4.06,3.28,6.042,1.107,1.838,2.327,3.619,3.493,5.435,1.3,1.722,2.544,3.493,3.917,5.14s2.743,3.288,4.151,4.884c.983,1.112,1.951,2.335,2.872,3.417a5.644,5.644,0,0,1,.7-1.123,33.907,33.907,0,0,0,5.6,3.041" transform="translate(44.656 41.87)" fill="#ddfdff"/>
    <path id="Path_211" data-name="Path 211" d="M170.808,92.091a.384.384,0,0,1,.016-.134c-.113.567-.228,1.128-.344,1.693.11-.524.226-1.04.328-1.558" transform="translate(287.54 155.099)" fill="#ddfdff"/>
    <path id="Path_212" data-name="Path 212" d="M54.647,267.778a151.127,151.127,0,0,0,23.1-34.206c13.616-26.38,22.837-54.757,36.342-81.2a190.449,190.449,0,0,1,24.032-37.033,171.1,171.1,0,0,1,19.613-18.981A183.048,183.048,0,0,1,177,81.931c21.415-13.836,46.587-22.111,72.212-18.422,23.266,3.348,43.913,16.286,60.262,32.742,18.868,18.987,32.78,42.586,43.091,67.139a289.3,289.3,0,0,1,13.7,41.108c3.71,14.661,5.8,29.669,11.351,43.827,3.511,8.963,8.519,18.828,16.875,24.2a20.783,20.783,0,0,0,14.451,3.039,207.387,207.387,0,0,0,9.771-19.078q.685-2.531,1.314-5.172c.167-.7.328-1.424.489-2.149.035-.156.073-.306.107-.462q.447-1.987.868-4.03c.116-.567.231-1.128.344-1.7a89.814,89.814,0,0,0,.414-10.309c-.024-1.564-.048-3.133-.075-4.694l-.207-4.68c-.035-3.1-.2-6.206-.043-9.3.382-5.3.9-12.5,1.408-19.583.083-3.538.2-7.063.129-10.3-.148-3.224-.368-6.182-.728-8.557-.674-3.423-1.47-6.867-2.512-10.575-1.2-3.67-2.27-7.684-3.966-12.122a288.937,288.937,0,0,0-14.293-34.545A166.686,166.686,0,0,0,375.094,78.9c-9.355-10.516-21.063-19.438-32.439-28.916a161.517,161.517,0,0,0-17.842-12.813c-6.05-3.855-12.318-7.4-19.137-11.182-7.018-3.885-14.39-8.476-22.165-12.463a105.172,105.172,0,0,0-23.777-9.215c-11.778-2.687-23.79-1.752-35.174-1.762a172.176,172.176,0,0,0-40.52,5.164,6.48,6.48,0,0,1-3.434.132c-3.205.946-6.327,1.937-9.4,2.955a41.608,41.608,0,0,1-7.313,4.355c-1.725.862-3.538,1.668-5.212,2.391-1.642.806-3.165,1.486-4.382,1.937-4.312,1.827-9.046,2.775-13.573,4.331-1.018.32-2.045.642-3.065.973-.22.11-.451.22-.672.33q-3.3,1.729-6.469,3.533-6.343,3.623-12.211,7.609c-.793.537-1.55,1.1-2.332,1.65-1.1,1.042-2.182,2.1-3.259,3.149-2.313,2.1-4.258,4.64-6.445,6.846-2.131,2.273-4.417,4.334-6.593,6.542-1.951,1.816-4.355,3.81-6.985,5.911L84.914,67.34l-1.977,1.773-1.813,1.881L77.7,74.642c-.253.266-.486.535-.731.8-2.477,3.227-4.887,6.534-7.208,9.954-1.007,1.679-2.01,3.407-3,5.258-1.685,3.452-3.522,7.2-5.607,11.467-3.812,8.724-8.844,19.373-15.215,34.491-1.685,3.734-3.178,7.3-4.632,10.8s-3.009,6.875-4.4,10.419-2.826,7.173-4.344,11.037-2.74,8.081-4.221,12.668a131.174,131.174,0,0,0-4.473,20.9c-.623,3.563-.7,7.222-1.142,10.846l-.6,5.449q-.129,2.744-.269,5.489a104.933,104.933,0,0,0,6.112,42.532,136.477,136.477,0,0,0,6.66,16.6,73.964,73.964,0,0,0,20.016-15.583" transform="translate(36.511 4.052)" fill="#fbffff"/>
    <path id="Path_213" data-name="Path 213" d="M137.725,119.629l-.059.016a6.33,6.33,0,0,1-2.05.081H135.5l.3.056.65.124.586.078a3.827,3.827,0,0,1,.21.774l.1.537.145,1.233.578,5.054c.349,3.3.658,6.214.785,7.418.145,1.8.269,3.417.4,4.949l-.408-20.123s-.416-.064-1.123-.2" transform="translate(228.501 201.772)"/>
    <path id="Path_214" data-name="Path 214" d="M162.437,138.216a44.506,44.506,0,0,1-19.545,4.089l2.687.384a15.54,15.54,0,0,0,3.979-.175,47.927,47.927,0,0,0,6.821-1.639c1.056-.317,2.066-.661,3.052-1,.414-.14,1.1-.39,1.795-.666l2-.806c.107-.395.231-.806.352-1.2a4.116,4.116,0,0,1-1.139,1" transform="translate(241.009 231.427)"/>
    <path id="Path_215" data-name="Path 215" d="M105.324,65.089l.723.373c0-.153-.013-.306-.024-.457-1.416-.578-2.808-1.112-4.162-1.612,1.083.505,2.281,1.088,3.463,1.7" transform="translate(171.804 106.923)"/>
    <path id="Path_216" data-name="Path 216" d="M118.219,83.282c.75,1.859,1.792,3.45,2.687,5.217a84.322,84.322,0,0,1,3.885,11.365c.634,2.388,1.273,5.086,1.9,7.944.266.6.535,1.22.828,1.854a141.745,141.745,0,0,0-3.976-16.174,78.161,78.161,0,0,0-10.532-21.915c.073,1.163.142,2.332.207,3.493a50.342,50.342,0,0,1,3.49,5.537c.841,1.464,1.392,2.375,1.51,2.679" transform="translate(190.612 120.72)"/>
    <path id="Path_217" data-name="Path 217" d="M175.007,115.779a46.8,46.8,0,0,1-10.293,5.911l-5.854,2.391-2.982,1.136-.744.269-.492.172c-.185.086-.476.027-.368.516l.051,1.1c0,.148.059.443,0,.473l-.228.056-.93.223c-.451.118-.806.078-1.075.395l-1.58.868c-.116,3.605-.234,7.348-.357,11.174-.148,3.511-.3,7.1-.449,10.706-.2,4.137-.215,8.3-.245,12.479,0,.771-.03,1.537-.038,2.311a7,7,0,0,1,3.4,4.973,13.822,13.822,0,0,1,.537,2.619c.116-.537.226-1.029.309-1.531.269-1.542.537-3.009.72-4.377.419-2.746.733-5.15.991-7.181.524-4.068.827-6.647.87-7.412.118-1.865-.784-10.4-.768-12.243a50.2,50.2,0,0,1,.446-5.534l.357-2.523a2.308,2.308,0,0,1,.183-.747c.051-.14.11-.277.175-.411.118-.075.142-.164.339-.081l.226.062h.067l.231-.078.913-.33a38.743,38.743,0,0,0,6.953-3.734c2.149-1.359,4.6-2.99,6.781-4.449a30.694,30.694,0,0,0,5.766-5.075c2.311-2.894,2.37-3.278,1.937-3.562a.566.566,0,0,0-.056-.083c-.484-.827-1.932-.723-4.8,1.523" transform="translate(252.028 191.909)"/>
    <path id="Path_218" data-name="Path 218" d="M151.3,63c-.422-.234-.849-.454-1.276-.68-10.87,2.6-22.114,6.249-34.892,22.837-4.452,5.782-7.9,8.111-11.526,13.971a13.575,13.575,0,0,0-3.151,5.658c-.021.733-.046,1.472-.062,2.2a6.388,6.388,0,0,1,.062-2.2c.03-1.037.056-2.074.086-3.114q-.621,1.141-1.177,2.211c-5.247,10.991-6.808,22.96-9.924,34.419-.76,2.808-1.59,5.591-2.619,8.313-.6,1.741-1.311,3.447-2.055,5.142-3.761,8.565-8.99,16.63-12.772,24.852-1.362,2.593-3.377,6.985-5.123,11.2a67.177,67.177,0,0,0-3.541,10.075c-.016.562.134.86.392.956.682.269,2.179-1,3.831-3.493q1.664-2.313,3.092-4.782c1.926-3.3,3.761-6.478,5.435-10.062,1.69-3.514,3.068-7.125,4.393-10.765,1.827-5.44,5.4-10.145,7.394-15.472,3.2-9.43,6.077-18.941,9.3-28.3A150.953,150.953,0,0,1,108.8,99c.981-1.881,2.2-3.546,3.334-5.285l3.761-5.32L123.2,77.85a30.46,30.46,0,0,1,12.99-10.209,25.74,25.74,0,0,1,13.049-.806,67.893,67.893,0,0,1,17.195,5.733c-4.82-2.931-9.726-6.585-15.139-9.57" transform="translate(106.803 105.109)"/>
    <path id="Path_219" data-name="Path 219" d="M53.38,305.071c.661.79,1.548,1.8,2.327,2.644a22.675,22.675,0,0,0,2.767,2.112,26.19,26.19,0,0,0,6.832,2.939q-1.092-.52-2.149-1.142a49.072,49.072,0,0,1-7.821-5.951,7.094,7.094,0,0,1,.537-1.421c-.922-1.075-1.881-2.305-2.872-3.417q-2.112-2.394-4.151-4.884c-1.362-1.66-2.617-3.407-3.909-5.14-1.171-1.816-2.391-3.6-3.493-5.435-1.2-1.983-2.276-4-3.28-6.042a135.167,135.167,0,0,1-6.66-16.612,104.806,104.806,0,0,1-6.1-42.546q.137-2.752.269-5.489l.6-5.451c.438-3.622.521-7.281,1.145-10.846a131.589,131.589,0,0,1,4.471-20.9c1.483-4.586,2.719-8.793,4.221-12.665s2.955-7.49,4.344-11.037,2.955-6.921,4.4-10.422,2.955-7.066,4.632-10.8c6.37-15.115,11.4-25.765,15.214-34.489,2.085-4.266,3.92-8.017,5.607-11.467.991-1.854,1.991-3.581,3-5.258q1.261-2.088,2.539-4.089a40.077,40.077,0,0,1,4.672-5.865c.244-.269.478-.537.731-.806L84.7,66.931l1.813-1.881,1.977-1.773,7.778-6.985c2.625-2.093,5.027-4.086,6.985-5.911,2.176-2.206,4.46-4.269,6.59-6.539,2.176-2.208,4.121-4.745,6.448-6.848,1.075-1.053,2.149-2.106,3.259-3.149,1.193-1.134,2.4-2.254,3.638-3.348A53.727,53.727,0,0,1,131,25.17a42.4,42.4,0,0,1,10.225-4.446c1.021-.33,2.047-.65,3.065-.97,4.527-1.558,9.261-2.507,13.573-4.334,1.217-.451,2.74-1.128,4.382-1.937,1.674-.723,3.493-1.529,5.212-2.391a41.608,41.608,0,0,0,7.313-4.355c.2-.169.376-.33.537-.484,1.061-1.518-.873-1.881-4.226-.935-1.564.379-3.071.715-4.686,1.249a117.242,117.242,0,0,0-18.173,7.378c-4.312,2.324-9.382,3.049-13.858,5.169A197.5,197.5,0,0,0,93.687,51.166c-2.735,2.6-5.129,5.508-7.7,8.248a75.157,75.157,0,0,0-6.958,8.82c-1.126,1.494-2.534,3.09-4.151,5.089l-5.615,7.364a206.436,206.436,0,0,0-16.558,26.579c-.884,1.757-3.694,7.81-6.461,13.874-2.536,6.152-5.072,12.3-5.819,14.1-2.112,5.583-2.482,11.735-4.3,17.049a337.115,337.115,0,0,0-12.815,42.492c-.551,2.63-.892,5.18-1.319,7.885-.07.879-.973,5.731-1.787,13.261-.169,3.791-.615,8.232-.656,13.178a126.833,126.833,0,0,0,1.037,16.12,56.6,56.6,0,0,0,.836,9.11,65.013,65.013,0,0,0,3.52,10.338,93.537,93.537,0,0,0,4.742,9.855,40.763,40.763,0,0,0,2.531,4.446l2.227,3.64,4.127,5.731c.7.86,1.386,1.717,2.109,2.6a121.933,121.933,0,0,0,8.224,9.135c1.572,1.722,3.178,3.358,4.476,4.989" transform="translate(32.977 8.093)"/>
    <path id="Path_220" data-name="Path 220" d="M89.19,116.992a42.7,42.7,0,0,1-8.482,4.661c-1.521.645-3.079,1.244-4.661,1.822a45.973,45.973,0,0,1-4.675,1.507,33.852,33.852,0,0,1-16.657-1.075,59.131,59.131,0,0,1-10.3,3.6c-.537.129-1.093.231-1.644.339.537-.021,1.059-.048,1.545-.081l1.558-.116c.075.03.2.048.269.073.134.1.091.121.317.242l1.01.47c.57.269.94.408,1.153.492.142.054.384.118.621.183a37.107,37.107,0,0,0,4.82.86c2.327.306,4.677.365,5.5.486,5.395.586,9.18,1.975,15.131.3.153-.043.293-.067.451-.116a63.625,63.625,0,0,0,11.821-7.047,23.19,23.19,0,0,0,5.019-4.385c1.942-2.6,1.929-2.955,1.507-3.243a.877.877,0,0,0-.075-.1c-.529-.774-1.851-.725-4.231,1.126" transform="translate(72.146 194.63)"/>
    <path id="Path_221" data-name="Path 221" d="M84.89,11.769a172.2,172.2,0,0,1,40.525-5.148c11.386,0,23.4-.93,35.176,1.762A105.172,105.172,0,0,1,184.368,17.6c7.775,3.987,15.147,8.578,22.165,12.463,6.819,3.777,13.087,7.329,19.137,11.185a160.914,160.914,0,0,1,17.842,12.813c11.375,9.476,23.084,18.4,32.439,28.916a166.591,166.591,0,0,1,26.867,39.419,288.091,288.091,0,0,1,14.293,34.548c1.7,4.438,2.765,8.452,3.966,12.122,1.042,3.7,1.838,7.149,2.512,10.572.36,2.388.58,5.33.728,8.557.075,3.224-.046,6.76-.129,10.3-.508,7.082-1.026,14.288-1.408,19.586-.161,3.092,0,6.179.043,9.3l.207,4.68c.027,1.561.051,3.13.075,4.7a89.831,89.831,0,0,1-.414,10.309.384.384,0,0,1-.016.134,54.788,54.788,0,0,1-1.051,6.327c-.15.674-.269,1.357-.443,2.026a39.46,39.46,0,0,1-1.612,5.013A206,206,0,0,1,309.8,279.63c-.269.537-.564,1.075-.825,1.628-1.187,2.273-2.808,5.938-4.368,9.4a57.739,57.739,0,0,0-3.444,8.4c-.019.519.132.806.387.932.65.306,2.053-.6,3.681-2.571a32.122,32.122,0,0,0,3.033-3.893,74.317,74.317,0,0,0,8.675-17.829c1.5-4.691,4.683-8.777,6.136-13.527.056-.212.1-.43.156-.642a199.916,199.916,0,0,0,5.733-50.778,153.287,153.287,0,0,0-1.389-22.415c-.376-2.544-.537-5.618-.93-9.648-.175-1.822-.387-3.818-.69-6.083a160.34,160.34,0,0,0-6.792-30.687,58.124,58.124,0,0,0-2.023-5.6c-1.075-2.563-2.149-5.766-3.662-8.8s-2.8-6.15-4.159-8.6-2.4-4.358-2.88-5.228a35.041,35.041,0,0,0-5.508-7.208l-2.955-3.326a36.759,36.759,0,0,1-2.88-3.254A338.67,338.67,0,0,0,265.76,66.571c-1.934-1.854-4-3.412-5.895-5.373A284.376,284.376,0,0,0,226.82,34.64c-2.391-1.671-4.551-3.869-7.141-5.526-1.3-.709-5.344-2.979-9.567-4.914-4.162-2.053-8.479-3.777-9.839-4.449-3.391-1.51-6.136-2.687-8.533-3.667l-6.518-2.566L178.8,11.2c-2.351-.806-5.029-1.644-8.35-2.687a214.444,214.444,0,0,0-43.709-8.5c-1.636-.172-8.965,1.443-10.542,1.513-5.373.537-8.925-.537-14.357.365a24.937,24.937,0,0,0-3.278.747c-1.075.363-2.131.806-3.184,1.239a64.96,64.96,0,0,1-6.292,2.367,52.994,52.994,0,0,0-5.868,2.364c-2.724,1.451-2.955,1.658-2.714,2.149a1.187,1.187,0,0,0,.271.742,1.206,1.206,0,0,0,.677.411,6.426,6.426,0,0,0,3.434-.14" transform="translate(135.665 -0.001)"/>
    <path id="Path_222" data-name="Path 222" d="M126.283,128.254c-.51-7.646-4.229-32.267-4.229-32.267s1.961,3.987,4.508,9.634c-.626-2.859-1.265-5.556-1.9-7.944a83.592,83.592,0,0,0-3.888-11.365c-.895-1.768-1.934-3.358-2.687-5.217-.113-.3-.674-1.214-1.5-2.687a50.244,50.244,0,0,0-3.5-5.537q.274,5.078.376,10.161a62.214,62.214,0,0,1,7.936,17.512c3.321,13.412,3.221,22.533,4.113,34.268.4,5.886.809,10.964,1.29,15.435l.384,3.431a18.238,18.238,0,0,0,.535,1.762l.508,1.483a39.036,39.036,0,0,0,1.969,4.651,100.7,100.7,0,0,1-3.92-33.32" transform="translate(190.747 122.908)"/>
    <path id="Path_223" data-name="Path 223" d="M150.222,124.612l.056-.016a74.759,74.759,0,0,1-12.412-3.393,57.1,57.1,0,0,1-9.833-4.522,36.611,36.611,0,0,0,7.958,5.513,30.156,30.156,0,0,0,10.4,2.418l1.639.073h.14a6.256,6.256,0,0,0,2.05-.073" transform="translate(215.947 196.8)"/>
    <path id="Path_224" data-name="Path 224" d="M155.395,70.506c-1.666-.774-3.049-1.376-3.63-1.7-2.48-1.075-4.43-2.015-6.177-2.711l-4.753-1.83-4.715-1.572c-1.754-.438-3.7-1.075-6.193-1.572a75.2,75.2,0,0,0-32.686-.269,58.872,58.872,0,0,0-6.8,4.089C86.9,66.72,84.027,66.822,80.6,69.052c-2.773,1.824-4.457,5.083-6.768,7.23a27.68,27.68,0,0,0-2.92,3.423c-.559.892-.87,1.284-.774,1.443.266.126.175.4.153.626-.083.451-.328,1.037.647,1.209a3.571,3.571,0,0,0,2.6-.919A133.964,133.964,0,0,1,84.9,74.02c.408-1.929,1.4-3.423,3.27-3.6,6.273-6.158,25.295-11.77,33.36-9.36,7.611,1.518,14.188,4.8,21.864,5.411-1.609.379-3.221.747-4.836,1.134.43.226.854.446,1.279.68,5.414,2.985,10.317,6.639,15.137,9.573l.081.051c1.762,1.139,3.493,2.19,5.169,3.272-.1-1.781-.236-3.56-.317-5.344-.145-1.1-.244-2.187-.317-3.272l-.72-.373c-1.193-.61-2.391-1.193-3.474-1.685" transform="translate(118.275 99.828)"/>
    <path id="Path_225" data-name="Path 225" d="M59.482,137.064c.537-.107,1.1-.21,1.644-.339a58.69,58.69,0,0,0,10.3-3.6,27.609,27.609,0,0,0,8.67-6.327c2.321-2.5,4.591-4.874,6.921-7.3a17.651,17.651,0,0,0,2.861-4.191c.707-1.373,1.343-2.611,2.026-3.794a7.192,7.192,0,0,0-.97-1.582l-2.837.6-.537.126a37.042,37.042,0,0,1-2.278,4.79,15.416,15.416,0,0,1-2.775,2.988c-2.063,1.789-3.8,3.106-4.567,3.888a16.841,16.841,0,0,1-2.536,2.254,11.532,11.532,0,0,1-1.437.973,26.356,26.356,0,0,1-3.3,1.9,35.237,35.237,0,0,1-11.593,3.423c-1.228.078-2.509-.505-3.761-.494-.6.03-2.5.314-4.452.4a26.474,26.474,0,0,1-4.567-.142,28.77,28.77,0,0,1-6.577-1.792,33.6,33.6,0,0,1-5.6-3.031,5.72,5.72,0,0,0-.7,1.123,6.933,6.933,0,0,0-.537,1.421A49.065,49.065,0,0,0,40.7,134.3a21.339,21.339,0,0,0,2.149,1.142l.183.089a23.176,23.176,0,0,0,6.932,2.058,30.211,30.211,0,0,0,9.519-.524" transform="translate(55.445 185.412)"/>
    <path id="Path_226" data-name="Path 226" d="M77.161,80.326c.016-.731.04-1.47.062-2.2a6.388,6.388,0,0,0-.062,2.2" transform="translate(130.03 131.766)" fill="#070706"/>
    <path id="Path_227" data-name="Path 227" d="M82.993,103.593c3.627-5.846,7.074-8.175,11.526-13.971,12.778-16.6,24.021-20.247,34.892-22.837,1.612-.387,3.224-.755,4.836-1.134-7.676-.613-14.253-3.893-21.864-5.411-8.06-2.418-27.087,3.2-33.36,9.36-1.881.177-2.861,1.671-3.27,3.6a15.413,15.413,0,0,0,.922,8.361c3.546,7.676,3.493,16.168,3.254,24.572-.03,1.04-.056,2.077-.086,3.114a13.6,13.6,0,0,1,3.151-5.655" transform="translate(127.409 100.638)" fill="#070706"/>
    <path id="Path_228" data-name="Path 228" d="M170.606,134.444a11.8,11.8,0,0,0-5.478-1.792,119.541,119.541,0,0,0-16.327.2c-.3,4.994-.516,8.506-.516,8.506l-10.913-.994-.035-1.636a8.432,8.432,0,0,0,3.342,9.868,43.553,43.553,0,0,0,12.391,1.725,44.43,44.43,0,0,0,19.545-4.089,4.025,4.025,0,0,0,1.128-1,4.333,4.333,0,0,0,.806-3.189,13.861,13.861,0,0,0-.537-2.62,7,7,0,0,0-3.407-4.973" transform="translate(230.83 223.418)" fill="#070706"/>
    <path id="Path_229" data-name="Path 229" d="M182.744,227.35s.215-3.511.516-8.506c.728-12.039,1.967-32.758,1.967-34.161,0-1.985-24.809-15.878-34.73-28.28s-14.572-22.3-19.344-39.05a204.717,204.717,0,0,0-9.387-24.389c-.282-.634-.562-1.255-.83-1.854-2.55-5.642-4.508-9.634-4.508-9.634s3.716,24.62,4.226,32.267a100.831,100.831,0,0,0,3.914,33.331,44.491,44.491,0,0,0,5.556,11.553,58.28,58.28,0,0,0,17.487,17.463,57.132,57.132,0,0,0,9.836,4.522A74.659,74.659,0,0,0,169.856,184c.709.132,1.126.2,1.126.2l.408,20.123.411,20.419.035,1.636Z" transform="translate(196.372 137.421)"/>
    <path id="Path_230" data-name="Path 230" d="M143.825,295.23c-1.4-2.262-2.687-4.7-4.2-6.91a8.917,8.917,0,0,1-1.271-6.66c2.985-36.971,8.4-73.974,6-111.227-.328-18.232.492-36.482.094-54.695q-.113-5.082-.376-10.161c-.062-1.163-.132-2.332-.2-3.493-.3-4.567-.661-9.108-1.225-13.654-2.007-10.816-3.925-31.275-15.741-34.8-3-.5-6.762,0-6.985,6.606-2.727,3.9-2.082,9.024-1.993,13.533,0,2.687,0,5.317.156,7.95a2.91,2.91,0,0,0,.024.457c.073,1.075.169,2.173.317,3.272.078,1.784.215,3.563.314,5.344.967,17.487,2.8,34.908,4.567,52.333.384,13.062,2.453,25.867,2.106,38.916-.078,17.767-1.37,35.5-2.039,53.266-1.142,16.217-.132,32.823-1.542,48.9-3.374,6.921-12.665,5.575-18.516,8.673a36.944,36.944,0,0,0-7.668,4.637c-.059.054-.126.091-.18.148-2.292,3.014,1.171,1.865,3.2,1.953,10.293.1,20.556-.537,30.733,1.029a52.864,52.864,0,0,0,8.866-.4c3.141-.167,5.2-.043,5.61-2.4a8.381,8.381,0,0,0-.056-2.617" transform="translate(159.751 90.216)"/>
    <path id="Path_231" data-name="Path 231" d="M570,146.139c-2-.175-3.914-.368-6.04-.416-8.084-.373-16.23-.255-24.47-.056-6.12.269-12.144-1.523-18.229-1.652-5.064.043-10.137.142-15.209.269-13.474.312-26.977.725-40.461.793-2.85.016-5.7.059-8.541.032-9.339.03-18.651-.218-27.944.177-9.293.064-23.562-1.247-58.486-1.69-4.884-.062-33.169.21-38.038.207-7.442,0-14.8,1.945-21.851,2.026-2.418.027-4.79.043-7.133.054-.414,2.353-2.469,2.23-5.61,2.4a52.858,52.858,0,0,1-8.866.4c-10.177-1.564-20.44-.932-30.735-1.029-2.028-.089-5.492,1.075-3.2-1.953.054-.056.121-.094.177-.148h-.159c-3.345.051-6.555.309-9.957.191-2.2,0-24.521,0-53-.051-3.646,0-7.391-.75-11.209-.715-2.367.024-11.19.505-18.2.873-3.9.2-7.241.373-8.6.408-16.969.433-21.714.446-35.732.422h-4.1c-11.4-.019-21.877-.379-30.606-.806-13.688-.682-23.043-1.55-24.674-1.577-1.983-.035-11.088,1.075-13.065,1.075a54.362,54.362,0,0,1-6.128-.4,106.335,106.335,0,0,0-11.461-1.123c-5.465-.1-11.064,1.394-16.515,1.521-2.955,0-5.164.468-7.858.7-3.777.666-4.146.806-4.03,1.343-.382.924.752,2.042,4.946,2.163,16.781.658,34.317,1.075,52.322,1.343,14.734.215,29.782-1.961,44.988-1.913,20.47.067,44.346,3.536,65.017,3.493,20.067-.048,36.923-1.327,56.46-1.282,18.9.046,37.4-1.711,55.165-1.534,24.408.244,40.284,1.306,61.113,1.483,41.622.355,60.065-2.662,77.644-2.99,12.165-.231,35.023,2.867,48.712,3.047,15.873.083,31.547-4.062,47.462-3.673,11.985,0,24.024,3.208,35.98,3.342,6.615.269,20.83-.827,24.784-2.4,1.857-1.107-.325-2.09-4.661-2.351" transform="translate(0 242.179)"/>
    <path id="Path_232" data-name="Path 232" d="M101.862,9.171l1.983,1.177.371.223a120.461,120.461,0,0,1,19.048,2.257c1.384.212,2.727.355,4.111.7a199.584,199.584,0,0,1,21.458,5.728c1.456.467,2.816,1.343,4.32,1.848l5.3,1.711,5.293,1.964c3.554,1.561,5.728,2.5,7.748,3.584,2.05,1.029,4,2.114,7.128,3.992a78.673,78.673,0,0,1,17.592,14.86c.6.556,3.716,2.8,4.3,3.409,1.969,2,2.687,3.74,4.591,5.825,1.556,1.7,3.724,2.9,5.373,4.514a25.177,25.177,0,0,0,2.593,2.125c1.367.9,1.523.956,1.674.728.435-.215.486-.954-.717-2.241-4.766-5.2-9.495-10.9-15-16.254a104.211,104.211,0,0,0-15.491-11.211C176.39,29.3,168.1,23.1,159.92,19.708a179.569,179.569,0,0,0-23.108-6.789,183.7,183.7,0,0,0-23.132-3.605c-3.939-.441-7.361-.83-10.618-.905a4.821,4.821,0,0,0-1.2.763" transform="translate(171.805 14.181)"/>
    <path id="Path_233" data-name="Path 233" d="M37.675,209.269l1.163-2.861.22-.537a260.125,260.125,0,0,1,1.448-27.632c.188-2,.269-3.936.537-5.964a271.549,271.549,0,0,1,5.766-31.351c.537-2.128,1.483-4.207,2.042-6.429.269-1.061,1.1-4.42,1.945-7.791.9-3.35,1.827-6.717,2.2-7.791,1.7-5.32,2.9-8.479,4.092-11.553,1.23-3.055,2.434-6.032,4.688-10.763A143.217,143.217,0,0,1,79.24,68.4c.677-.967,3.436-5.7,4.18-6.633,2.469-3.176,4.567-4.691,7.219-7.708,2.149-2.461,3.853-5.446,6.023-7.91,1.222-1.3,1.942-2.437,2.985-3.691,1.327-1.881,1.432-2.09,1.188-2.219-.175-.486-1.05-.376-2.842,1.424A188.737,188.737,0,0,0,77.155,65.63,179.6,179.6,0,0,0,63.931,89.542c-5.69,10.964-12.681,23.86-16.351,35.953a271.779,271.779,0,0,0-7.326,33.535,281.689,281.689,0,0,0-2.816,33.349c-.33,5.655-.441,10.559-.537,15.172a8.177,8.177,0,0,0,.774,1.719" transform="translate(62.239 67.455)"/>
    <path id="Path_234" data-name="Path 234" d="M190.894,56.416a16.115,16.115,0,0,1-3.205-1.73l-.567-.376c-3.826-1.112-7.523-2.477-10.986-3.522s-6.738-1.881-9.672-2.469a77.62,77.62,0,0,0-7.708-1.115c-2.165-.134-3.869-.244-5.027-.269-2.52.167-4.943.212-7.485.481a78.664,78.664,0,0,0-12.294,2.378,91.756,91.756,0,0,0-24.395,11.958c-2.176,1.633-4.64,3.025-6.915,4.763A32.993,32.993,0,0,0,99.7,69.081c-1.306,1.222-2.92,2.649-4.39,4.229-3.071,3.028-5.83,6.351-6.795,7.375A141.088,141.088,0,0,0,79.2,92.627a138.805,138.805,0,0,0-7.748,12.246,194.065,194.065,0,0,0-16,37.909c-.395,1.435-1.373,8.178-1.6,9.629-.967,4.887-2.149,7.842-2.931,12.794-.629,4.03-.376,8.248-.822,12.238-.287,2.149-.269,3.791-.537,5.7-.312,2.687-.575,2.466-.3,2.705.1.269.309.395.854-.04a5.856,5.856,0,0,0,1.306-2.977c1.225-6.179,1.881-12.455,2.993-18.807,1.042-6.349,2.337-12.759,3.955-19.167a163.277,163.277,0,0,1,10.029-31.49A105.255,105.255,0,0,1,81.249,93.317,173.346,173.346,0,0,1,97.493,76c10.645-9.871,20.553-17.657,33.935-22.436a89.705,89.705,0,0,1,9.8-2.837,77.768,77.768,0,0,1,10.005-1.282A63.3,63.3,0,0,1,170.9,51.325c6.684,1.671,12.068,4.086,17.708,5.594a9.807,9.807,0,0,0,2.284-.5" transform="translate(82.908 79.163)"/>
    <path id="Path_235" data-name="Path 235" d="M140.725,78.062a14.177,14.177,0,0,1,1.282-2.1,24.7,24.7,0,0,1,3.571-3.694c1.456-1.507,4.342-3.393,5.1-4.1a21.768,21.768,0,0,1,3.455-2.27,29.962,29.962,0,0,1,4.03-1.9,31.927,31.927,0,0,1,4.377-1.053l2.292-.253c.68-.051,1.287.021,1.838.024a14.883,14.883,0,0,1,2.869.236,23.931,23.931,0,0,1,6.717,1.881,16.809,16.809,0,0,1,2.528,1.448c.806.537,1.658,1,2.448,1.569a20.262,20.262,0,0,1,5.4,5.529,7.909,7.909,0,0,1,.948,1.655c.666,1.2.572,2.034-.269,1.9-1.4-.505-3.807-3.823-5.26-5.132a21.6,21.6,0,0,0-6.314-4.229,17.311,17.311,0,0,0-4.9-1.808l-2.286-.317c-.828-.089-1.765-.027-2.9-.083a24.239,24.239,0,0,0-11.125,3.614A47.5,47.5,0,0,0,142.436,79.1c-.87.9-1.593.771-1.929.36-.261-.137-.261-.266.218-1.4" transform="translate(236.693 105.704)"/>
    <path id="Path_236" data-name="Path 236" d="M160.775,73.881c.094-.062.172.016.269.043a3.992,3.992,0,0,1,.564.161,6.171,6.171,0,0,1,1.053.537,3.96,3.96,0,0,1,1.236,1.507,5.569,5.569,0,0,1,.376,3.471,2.948,2.948,0,0,1-.175.441,4.571,4.571,0,0,1-.29.639,2.779,2.779,0,0,1-.951.841,3.826,3.826,0,0,1-1.042.422,2.792,2.792,0,0,1-.537.062,2.97,2.97,0,0,1-.537.073,2,2,0,0,1-.685-.129,2.348,2.348,0,0,1-.709-.58c-.212-.244-.435-.473-.629-.736a4.941,4.941,0,0,1-.537-.707,2.067,2.067,0,0,1-.054-.223c-.03-.081-.089-.126-.118-.2a4.419,4.419,0,0,1-.116-.591,4.864,4.864,0,0,1-.169-1.306,7.535,7.535,0,0,1,.309-1.846,3.889,3.889,0,0,1,.438-.846c.075-.14.158-.274.247-.406a1.16,1.16,0,0,1,.325-.21,1.9,1.9,0,0,1,.774-.314,1.623,1.623,0,0,0,.411-.03,1.448,1.448,0,0,1,.462-.107c.024.043.005.07.086.038" transform="translate(266.023 124.547)"/>
    <path id="Path_237" data-name="Path 237" d="M142.264,77.125c.091-.064.167.016.266.043a4.028,4.028,0,0,1,.567.161,6.674,6.674,0,0,1,1.05.537,3.936,3.936,0,0,1,1.236,1.507,5.577,5.577,0,0,1,.376,3.474,2.9,2.9,0,0,1-.172.438,4.408,4.408,0,0,1-.29.639,2.813,2.813,0,0,1-.954.841,3.742,3.742,0,0,1-1.04.422,27.473,27.473,0,0,0-1.075.134,2,2,0,0,1-.685-.126,2.467,2.467,0,0,1-.709-.583c-.21-.244-.435-.47-.629-.736a5.5,5.5,0,0,1-.537-.707,1.569,1.569,0,0,1-.051-.223c-.03-.078-.091-.124-.121-.2a4.412,4.412,0,0,1-.113-.591,4.958,4.958,0,0,1-.172-1.3A7.847,7.847,0,0,1,139.521,79a3.792,3.792,0,0,1,.459-.838c.075-.14.159-.277.247-.408a1.137,1.137,0,0,1,.328-.21,1.843,1.843,0,0,1,.771-.312,1.614,1.614,0,0,0,.411-.03,1.469,1.469,0,0,1,.462-.11c0,.038-.019.062.064.032" transform="translate(234.802 130.029)"/>
  </g>
</svg>
