<svg id="Group_31" data-name="Group 31" xmlns="http://www.w3.org/2000/svg" xmlns:xlink="http://www.w3.org/1999/xlink" width="425.104" height="564.29" viewBox="0 0 425.104 564.29">
  <defs>
    <clipPath id="clip-path">
      <rect id="Rectangle_46" data-name="Rectangle 46" width="425.104" height="564.29" fill="none"/>
    </clipPath>
  </defs>
  <g id="Group_30" data-name="Group 30" clip-path="url(#clip-path)">
    <path id="Path_26" data-name="Path 26" d="M75.88,217.492c-.329-1.078-1.357-2.416-1.579-3.409a12.707,12.707,0,0,1,.642-4.518c.811-4.107,4.577-5.26,8.1-7.479,5.968-3.763,12.222-7.128,18.222-10.84,3.208-1.983,6.109-4.8,9.578-6.532,4.825-2.412,3.944-4.23,5.7-8.654a116.66,116.66,0,0,0,5.1-17.893c-2.641.489-5.32.865-8.011,1.209s-5.455.711-8.165.88a15.206,15.206,0,0,1-5.824-1.119c-.329,4.233-2.083,6.727-5.646,10.884a44.256,44.256,0,0,1-7.51,6.489c-3.24,2.594-6,5.52-9.349,8.03A138.5,138.5,0,0,1,64.3,193.133c-2.842,1.651-5.483,1.629-5.824,5.26a42.119,42.119,0,0,0,1.084,7.839c.21,2.25-.154,4.659.232,6.858a40.077,40.077,0,0,0,.993,5.05c4.405.395,9.719.8,15.681,1.115-.219-.721-.451-1.335-.589-1.764" transform="translate(124.738 337.38)"/>
    <path id="Path_27" data-name="Path 27" d="M102.919,152.649c-.363-.357-.329-.661.849-2.008-4.355,2.973-8.259,5.545-11.627,7.729-.786.514-2.842,1.275-4.06,2.005a6.576,6.576,0,0,1,2.973-.385c.752.169,1.291.592.8,1.6a9.83,9.83,0,0,1-1.469,1.507,9.12,9.12,0,0,0-1.651,1.617l-.7.395c-.793.461-1.679.937-2.591,1.413,3.246,4.151,6.31,8.431,9.612,12.554,2.538,3.164,4.991,6.376,7.739,9.362a62.214,62.214,0,0,0,5.326,5.874,49.432,49.432,0,0,1,9.427,9.725c1.2,1.77,2.488,3.493,3.609,5.314,1.41,2.287,2.6,4.718,3.963,7.021.959,1.6,1.751,3.227,2.82,4.769q2.044,2.975,4.076,5.947l4.324,6.31c.216.313.473.777.768,1.266h6.329l1.917-1.322a61.654,61.654,0,0,1,10.157-6,32.071,32.071,0,0,0,4.9-2.087,23.1,23.1,0,0,1,3.522-1.651,30.538,30.538,0,0,0,4.859-2.773c1.291-.877,2.331-1.943,3.559-2.864.717-.545,2.206-1.557,1.426-2.591A6.6,6.6,0,0,0,171,213.985a18.655,18.655,0,0,0-7.084.232,17.446,17.446,0,0,0-5.1,1.081,34.145,34.145,0,0,1-4.624,1.429c-.849.2-1.695.232-2.531.389-.545.1-1.043.47-1.573.567-1.275.241-1.322-.542-1.961-1.209-.5-.508-1.071-.918-1.57-1.448a29.914,29.914,0,0,1-2.911-3.763c-4.079-5.947-8.234-11.855-12.26-17.84-1.137-2-2.177-4.057-3.111-6.16-.564-1.056-1.213-2.049-1.8-3.089-1.435-2.544-2.535-5.257-3.844-7.864-1.078-2.152-1.949-4.4-3.02-6.551-1.156-2.312-2.409-4.571-3.512-6.918-.849-1.8-3.59-6.467-6.608-11.536-.382.248-.768.517-1.156.764-3.39,2.224-5.072,1.729-5.414.58" transform="translate(182.26 321.324)"/>
    <path id="Path_28" data-name="Path 28" d="M47.5,134.387q4.986,4.183,9.581,8.491c.188-.266.385-.529.58-.793-3.033-2.528-6.369-5.032-10.16-7.7" transform="translate(101.322 286.654)" fill="#e0fe94"/>
    <path id="Path_29" data-name="Path 29" d="M55.785,142.449c-.235-.332-.467-.661-.7-.968l-.094.135Z" transform="translate(117.307 301.786)" fill="#e0fe94"/>
    <path id="Path_30" data-name="Path 30" d="M258.073,324.159a86.363,86.363,0,0,0-5.947-8.588c-3.089-3.963-6.608-7.529-9.872-11.323-4.2-4.863-8.835-8.954-13.168-13.679-7.388-8.061-16.019-16.079-19.795-26.706a100.681,100.681,0,0,1-6.1-30.475c-.251-10.076.028-20.208.028-30.29a93.272,93.272,0,0,0-1.059-18.476A126.611,126.611,0,0,0,196,161.864a73.167,73.167,0,0,0-10.242-16.871,63.2,63.2,0,0,0-19.82-16.364,126.784,126.784,0,0,1-14.415-8.478,93.448,93.448,0,0,1-12.6-11.783,40.641,40.641,0,0,1-4.035-5.533c-12.144-10.74-12.388-29.451-4.571-43.706a65.471,65.471,0,0,1,4.054-6.366l-.523.354c-2.162,1.046-3.75,2.312-6.182,3.265-4.433,1.911-8.174,5.614-12.535,7.51-5.32,2.459-9.374,2.613-14.537,5.514-1.557.824-7.692,6.131-9.136,7.065-.99.633-6.21,3.017-13.544,7.676A124.065,124.065,0,0,0,52.4,105.388a129.738,129.738,0,0,0-10.812,13.425,113.322,113.322,0,0,0-9.061,15.48l-1.836,4.255c-.79,1.958-1.595,4.367-2.453,6.733-.7,2.428-1.491,4.809-2.008,6.824s-.905,3.609-1.137,4.374c-.824,3.183-2.644,6.087-3.2,9.249a109.859,109.859,0,0,0-1.917,31.553c.207,2.049.4,3.916.567,5.58.244,1.651.555,3.092.768,4.317.448,2.447.733,4,.818,4.468a39.517,39.517,0,0,0,2.372,8.331c.567,1.413.993,3.753,2.115,6.548.555,1.4,1.169,2.973,1.839,4.656a39.04,39.04,0,0,0,2.378,5.411A88.8,88.8,0,0,0,48.56,261.238a28.031,28.031,0,0,0,3.581,3c1.341.868,2.732,1.682,4.117,2.5a89.164,89.164,0,0,1,8.19,5.113c1.626,1.319,7.541,5.423,13.732,9.227l14.534,8.606c3.352,2.062,6.492,4.073,9.393,6.182a93.816,93.816,0,0,1,7.532,6.241c4.258,3.894,7.626,7.334,10.427,10.336a52.779,52.779,0,0,0,7.3-11.107c15.452-2.864,14.443,10.884,8.97,19.516a53.8,53.8,0,0,1-3.305,6.156c5.58,5.618,10.493,11.855,15.5,17.965,5.978,7.51,12.084,14.938,18.516,21.787a87.6,87.6,0,0,0,9.985,9.3,16.292,16.292,0,0,0,9.753,4.264,68.015,68.015,0,0,0,6.959-.536,29.31,29.31,0,0,0,7.93-1.745c6.871-2.594,13.679-5.182,20.694-7.118a45.393,45.393,0,0,1,4.681-1.115l.041-.025a12.218,12.218,0,0,1,1.451-.6c1.219-.73,3.274-1.491,4.06-2.005,3.355-2.184,7.266-4.765,11.627-7.729.357-.417.811-.921,1.407-1.57a73.288,73.288,0,0,1,5.686-5.113,49.282,49.282,0,0,0,5.658-5.43,60.047,60.047,0,0,0,1.1-23.178" transform="translate(41.791 112.544)" fill="#e0fe94"/>
    <path id="Path_31" data-name="Path 31" d="M98.741,46.176c-7.391.586-14.534,1.438-21.317,2.438a87.07,87.07,0,0,0,8.9-.558,110.814,110.814,0,0,0,12.419-1.88" transform="translate(165.149 98.496)" fill="#f8ffe5"/>
    <path id="Path_32" data-name="Path 32" d="M62.6,64.822a66.1,66.1,0,0,0-4.057,6.366c-7.814,14.255-7.569,32.966,4.571,43.706a40.807,40.807,0,0,0,4.051,5.539,93.423,93.423,0,0,0,12.6,11.783A127.408,127.408,0,0,0,94.182,140.7,63.2,63.2,0,0,1,114,157.059a73.092,73.092,0,0,1,10.239,16.868,126.542,126.542,0,0,1,6.15,22.755,93.273,93.273,0,0,1,1.059,18.476c0,10.082-.282,20.211-.028,30.287a100.7,100.7,0,0,0,6.1,30.478c3.775,10.624,12.407,18.642,19.795,26.7,4.333,4.728,8.964,8.816,13.165,13.679,3.277,3.8,6.786,7.359,9.875,11.326a86.522,86.522,0,0,1,5.947,8.588,60.043,60.043,0,0,1-1.087,23.153,45.859,45.859,0,0,1,5.95-5.618c5.176-3.866,9.371-5.066,14.368-9.186,1.491-1.206,7.266-7.967,8.691-9.217A232.594,232.594,0,0,0,253.745,299.5c5.455-6.407,8.647-10.464,11.755-14.738,1.588-2.115,3.13-4.3,4.837-6.937,1.761-2.594,3.7-5.617,5.947-9.474.993-1.532,3.537-6.51,6-11.479,2.312-5.047,4.6-10.048,5.26-11.68,1.5-3.305,3.963-6.138,5.226-9.4a175.981,175.981,0,0,0,10.38-33.132c.724-4.436,1.4-8.09,1.72-10.784.263-2.707.432-4.424.482-4.956a56.446,56.446,0,0,0,.295-9.487c-.028-1.67.163-4.242,0-7.548a117.482,117.482,0,0,0-.658-11.968,144.886,144.886,0,0,0-2.278-15.3,139.8,139.8,0,0,0-5.072-17.235,33.35,33.35,0,0,0-2.08-4.662c-.9-1.482-1.87-2.942-2.832-4.4s-1.927-2.92-2.817-4.408a41.557,41.557,0,0,1-2.782-4.408,99.165,99.165,0,0,0-9.637-14.757l-3.547-4.411c-1.184-1.4-2.463-2.594-3.531-3.75l-2.854-2.992c-.824-.808-1.526-1.372-1.933-1.761A119.563,119.563,0,0,0,236.03,59.358a102.359,102.359,0,0,0-9.91-4.4,54.731,54.731,0,0,0-7.344-2.422,227.481,227.481,0,0,0-26.155-4.524c-20.365-2.312-41.046.147-61.2,3.233-5.78.7-11.877-.542-17.627.918-2.76.62-5.489,1.244-8.221,1.877-.107,1.112-.664,1.667-1.369,1.761-.426.279-.7.2-1.72-1.059-3.929.884-7.851,1.736-11.793,2.478-2,.439-3.86.661-5.793.94a15.319,15.319,0,0,1-3.587.288c.269.73.517,1.466.768,2.221,1.238,3.377.746,5.473-1.046,4.6a42.141,42.141,0,0,1-5.887-6.865c-3.377.968-6.767,2.005-10.176,3.174-.075.094-.141.2-.219.3a1.4,1.4,0,0,1,.141.526c.3.551.06.843-2.29,2.412" transform="translate(113.549 100.478)" fill="#f8ffe5"/>
    <path id="Path_33" data-name="Path 33" d="M120.972,197.509c2.688-.329,5.37-.721,8.011-1.209a59.475,59.475,0,0,0,7.952-1.983,82.908,82.908,0,0,0,13.394-5.7c.915-.479,1.8-.956,2.594-1.416l.7-.395c.16-.41,1.09-1.115,1.651-1.617a9.711,9.711,0,0,0,1.473-1.507c.489-1.012-.05-1.435-.805-1.6a6.612,6.612,0,0,0-2.97.385,12,12,0,0,0-1.451.6l-.041.025a45.169,45.169,0,0,0-4.681,1.115c-7.018,1.936-13.826,4.521-20.7,7.118a29.379,29.379,0,0,1-7.927,1.745c-2.309.294-4.634.473-6.962.536a16.269,16.269,0,0,1-9.75-4.267,87.3,87.3,0,0,1-9.985-9.293c-6.432-6.849-12.554-14.277-18.516-21.787-5.007-6.113-9.91-12.338-15.5-17.965-.774,1.266-1.588,2.506-2.428,3.731.232.329.461.642.7.968,1.385,1.936,2.779,3.963,4.154,6.019,1.855,2.763,3.678,5.58,5.448,8.259,1.024,0,2.055,0,3.08.041.956.207.771.426,1.3,1.234,2.839,4.477,6.774,8.531,9.4,12.993-1.075-.022-2.143-.031-3.218-.041a116.6,116.6,0,0,0,11.971,10.856,123.168,123.168,0,0,0,17.41,12.175c.57.257,1.15.5,1.736.727a15.144,15.144,0,0,0,5.824,1.115c2.679-.15,5.414-.536,8.137-.862" transform="translate(117.39 299.252)"/>
    <path id="Path_34" data-name="Path 34" d="M124.667,315.1c-2.8-3-6.169-6.442-10.427-10.336a93.808,93.808,0,0,0-7.532-6.241c-2.9-2.105-6.041-4.12-9.393-6.178l-14.534-8.61c-6.191-3.8-12.1-7.9-13.732-9.227a90.549,90.549,0,0,0-8.19-5.113c-1.385-.821-2.776-1.651-4.117-2.5a28.048,28.048,0,0,1-3.581-3.008,88.741,88.741,0,0,1-17.721-24.645,38.845,38.845,0,0,1-2.381-5.411c-.658-1.7-1.285-3.258-1.839-4.659-1.128-2.795-1.548-5.132-2.115-6.548a39.464,39.464,0,0,1-2.372-8.331c-.085-.47-.37-2.021-.818-4.465-.213-1.228-.523-2.663-.768-4.317-.169-1.654-.36-3.531-.567-5.58A109.859,109.859,0,0,1,26.5,168.376c.558-3.146,2.378-6.05,3.2-9.252.232-.761.642-2.356,1.137-4.374s1.3-4.4,2.008-6.824c.858-2.365,1.651-4.775,2.453-6.733l1.836-4.255a113.021,113.021,0,0,1,9.064-15.48,128.547,128.547,0,0,1,10.812-13.422,123.968,123.968,0,0,1,25.5-21.23c7.331-4.659,12.554-7.043,13.544-7.673,1.444-.937,7.579-6.244,9.139-7.065,5.16-2.9,9.211-3.058,14.534-5.514,4.364-1.908,8.1-5.618,12.535-7.513,2.431-.952,4.02-2.215,6.181-3.261l.523-.354c2.35-1.57,2.588-1.861,2.29-2.4a1.471,1.471,0,0,0-.138-.529c-.417-.9-1.877-1.438-4.928-.473a194.869,194.869,0,0,0-43.177,19.4A101,101,0,0,0,77.064,83.943c-4.956,4.7-9.684,9.644-14.638,14.362-6.63,6.391-14.064,13.171-20.813,20.875a93.139,93.139,0,0,0-16.47,25.246,99.586,99.586,0,0,0-6.636,25.66,154.473,154.473,0,0,0-.88,25.954A113.867,113.867,0,0,0,32.54,244.033a60.78,60.78,0,0,0,3.963,6.959c1.413,2.14,2.672,4.3,4.064,6.241a129.4,129.4,0,0,0,8.622,10.684,124.9,124.9,0,0,0,9.249,9.327c3.362,2.826,6.783,5.771,10.7,8.462,15.527,11.019,28.26,15.931,36.854,21.6,1.98,1.341,3.857,2.619,5.633,3.863,3.794,2.666,7.131,5.173,10.164,7.7.937-1.266,1.9-2.519,2.879-3.772" transform="translate(37.183 109.87)"/>
    <path id="Path_35" data-name="Path 35" d="M71.09,59.014c2.735-.627,5.464-1.256,8.221-1.874,5.752-1.46,11.849-.216,17.627-.918,20.152-3.089,40.842-5.527,61.207-3.23a226.563,226.563,0,0,1,26.186,4.53,56.09,56.09,0,0,1,7.344,2.419,102.407,102.407,0,0,1,9.91,4.4,119.623,119.623,0,0,1,29.595,20.481c.4.389,1.109.952,1.933,1.761l2.854,2.992c1.068,1.156,2.347,2.353,3.531,3.75l3.547,4.411a99.162,99.162,0,0,1,9.637,14.757,41.556,41.556,0,0,0,2.782,4.408c.89,1.488,1.852,2.948,2.817,4.408s1.933,2.92,2.832,4.4a33.348,33.348,0,0,1,2.08,4.662,139.793,139.793,0,0,1,5.072,17.235,144.883,144.883,0,0,1,2.278,15.3,117.481,117.481,0,0,1,.658,11.968c.172,3.3-.019,5.878,0,7.548a56.455,56.455,0,0,1-.295,9.487c-.05.52-.219,2.237-.482,4.956-.332,2.694-.993,6.348-1.72,10.784a175.756,175.756,0,0,1-10.383,33.132c-1.272,3.262-3.722,6.091-5.226,9.4-.658,1.632-2.951,6.633-5.257,11.68-2.463,4.956-4.994,9.947-6,11.479-2.256,3.86-4.2,6.88-5.947,9.474-1.708,2.644-3.249,4.822-4.837,6.937-3.111,4.277-6.3,8.331-11.755,14.738a232.5,232.5,0,0,1-39.527,35.855c-1.432,1.25-7.2,8.014-8.688,9.221-5,4.117-9.2,5.317-14.374,9.186a45.6,45.6,0,0,0-5.947,5.614,49.58,49.58,0,0,1-5.658,5.433,72.025,72.025,0,0,0-5.687,5.113c-.592.661-1.05,1.153-1.407,1.57-1.169,1.353-1.212,1.651-.849,2.008.332,1.147,2.027,1.651,5.467-.583.388-.244.774-.517,1.156-.764a373.861,373.861,0,0,0,40.069-29.567c11.072-9.346,19.82-21.511,29.83-32.418,13.563-14.484,31.183-30.773,41.366-48.854a163.792,163.792,0,0,0,11.561-25.851,237.971,237.971,0,0,0,7.645-26.841c4.421-18.444,2.8-37.164.764-54.421-.219-3.008-.9-5.812-1.281-8.56-.216-1.372-.432-2.713-.661-4.039q-.432-1.955-.858-3.847c-.567-2.535-1.115-4.988-1.651-7.391L268.5,128.4a115.736,115.736,0,0,0-11.561-26.7A91.033,91.033,0,0,0,223,68.5a146.369,146.369,0,0,0-27.129-11.047c-5.577-1.98-13.544-5.035-22.016-7.695A121.916,121.916,0,0,0,149.67,44.83a89.4,89.4,0,0,0-23.338,2.25c-3.509.658-6.984,1.416-10.455,2.1a110.811,110.811,0,0,1-12.419,1.88,87.07,87.07,0,0,1-8.9.558A164.256,164.256,0,0,0,69.4,52.738c.37,1.025.739,2.071,1.112,3.083a7.344,7.344,0,0,1,.576,3.193" transform="translate(148.036 95.505)"/>
    <path id="Path_36" data-name="Path 36" d="M62.871,57.292a15.316,15.316,0,0,0,3.587-.285c1.933-.279,3.788-.5,5.793-.943,3.941-.739,7.864-1.592,11.793-2.478-.307-.382-.658-.858-1.147-1.479-.909-1.579-1.88-2.86-2.745-4.458a69.473,69.473,0,0,0-18.272,7.341,23.363,23.363,0,0,1,.99,2.3" transform="translate(131.995 101.635)"/>
    <path id="Path_37" data-name="Path 37" d="M38.6,56.807a44.721,44.721,0,0,0,21.22,1.322A62.793,62.793,0,0,0,79.229,51.59,22.525,22.525,0,0,0,90.191,40.6a12.977,12.977,0,0,0-.069-9.017,15.292,15.292,0,0,0-5.68-7.206,24.467,24.467,0,0,0-11.959-4.233,21.708,21.708,0,0,0-10.33.99c-1.654,1.209.191,2.532,3.725,3.121l4.794,1.291a36.977,36.977,0,0,1,8.823,3.5A13.933,13.933,0,0,1,85.5,35.013a5.708,5.708,0,0,1-.52,5.6,21.952,21.952,0,0,1-3.932,4.239A31.1,31.1,0,0,1,59.127,52.54,60.7,60.7,0,0,1,46.213,51.12a78.148,78.148,0,0,1-12.658-4.17c-6.52-2.563-12.742-5.665-18.92-8.751-1.234,1.269-2.391,2.535-3.008,3.246,2.381,1.686,4.888,3.421,7.532,5.11A101.193,101.193,0,0,0,38.6,56.807" transform="translate(24.801 42.47)"/>
    <path id="Path_38" data-name="Path 38" d="M7.022,60.4A53.006,53.006,0,0,0,17.235,70.437c3.359,2.613,6.57,4.743,9.734,6.83.852.576,1.82,1.259,2.795,1.955.639-.636,1.244-1.306,1.93-1.877.295-.248.611-.442.909-.683a78.417,78.417,0,0,1-8.522-7.018A64.3,64.3,0,0,1,15.446,59.9a33.289,33.289,0,0,1-6.3-15.239,23.4,23.4,0,0,1,2.083-12.883A33.044,33.044,0,0,1,20,20.875c4.358-3.537,8.509-8.484,14.02-10.706A78.169,78.169,0,0,1,62.636,4.956,144.742,144.742,0,0,1,79.793,6.062a58.767,58.767,0,0,1,8.3,1.122,130.88,130.88,0,0,1,13.579,3.522,145.686,145.686,0,0,1,28.022,12.448c2.691,1.516,4.9,3.963,7.6,5.677,1.322.811,5.549,3.208,9.681,5.843s8.14,5.508,9.418,6.5c3.039,2.5,5.577,4.474,7.5,6.391l2.795,2.641,2.356,2.644a90.189,90.189,0,0,1,9.65,13.378A137.872,137.872,0,0,1,191.214,95.72c2.481,8.064,3.757,13.544,4.148,14.631.57,1.6,4.628,8.447,5.238,10.041,2.036,5.408,1.723,9.383,3.735,14.866,1.595,4.465,5.166,8.259,7.087,12.57.222.533.467.99.717,1.466.862,1.595,1.833,2.876,2.741,4.455.47.623.84,1.1,1.15,1.482,1.018,1.256,1.291,1.338,1.717,1.059.689-.091,1.266-.661,1.366-1.764a7.337,7.337,0,0,0-.6-3.211c-.373-1.012-.743-2.062-1.112-3.086-4.571-12.629-9.089-25.788-13.9-39.335-4.33-11.965-11.392-23.225-17.332-34.955a194.778,194.778,0,0,0-13.785-24.983A96.41,96.41,0,0,0,152.3,28.078,164,164,0,0,0,107.73,5.658C91.846.034,75.125-.424,59.657.225A100.467,100.467,0,0,0,31.9,4.956,53.838,53.838,0,0,0,9.2,18.7,32.005,32.005,0,0,0,.032,42.587,33.327,33.327,0,0,0,7.022,60.4" transform="translate(-0.001 0.001)"/>
    <path id="Path_39" data-name="Path 39" d="M181.717,122.9c1.792.871,2.284-1.225,1.046-4.606-.251-.749-.5-1.485-.768-2.221a23.152,23.152,0,0,0-.99-2.309c-.028-.053-.041-.1-.069-.157a34.692,34.692,0,0,0-13.582-15.975,34.629,34.629,0,0,0-3.985-1.742l-1.949-.837-2.008-.661a20.3,20.3,0,0,0-4.148-.987,15.382,15.382,0,0,0-4.189-.135,76.906,76.906,0,0,0-25.384,9.772c-7.667,4.245-15,8.776-22.57,12.673-6.429,3.506-13.253,6.125-19.929,9.048a78.229,78.229,0,0,1-14.851,3.493,75.484,75.484,0,0,1-12.206.918,26.247,26.247,0,0,1-14.205-3.609,13.662,13.662,0,0,1-3.008-2.738,15.727,15.727,0,0,1-2.889-6.351,19.06,19.06,0,0,1,1.438-11.627c.639-1.5,1.222-3.133,1.836-4.8a52.5,52.5,0,0,0,8.064,1.012,73.742,73.742,0,0,0,12.3-.555,77.58,77.58,0,0,0,11.542-2.112,78.542,78.542,0,0,0,11.191-3.7,30.955,30.955,0,0,0,11.038-7.178,12.705,12.705,0,0,0,3.327-7.137,13.587,13.587,0,0,0-1.623-7.435,14.726,14.726,0,0,0-4.678-5.436,15.354,15.354,0,0,0-6.495-2.375,27.118,27.118,0,0,0-12,1.545,70.9,70.9,0,0,0-10.317,4.43,88.261,88.261,0,0,0-21.4,15.327,62.663,62.663,0,0,0-4.922,5.47,38.423,38.423,0,0,1-12.585-4.449A28.538,28.538,0,0,1,12.3,77.232a23.749,23.749,0,0,1-2.76-14.91,28.266,28.266,0,0,1,4.624-11.649,34.8,34.8,0,0,1,5.878-6.611c1.651-1.479,2.829-2.293,3.215-2.6l.329-.379c.617-.714,1.773-1.986,3-3.249a24.124,24.124,0,0,1,3.594-3.261c4.446-2.532,7.97-2.416,12.723-3.854a124.693,124.693,0,0,1,11.7-4.828,41.778,41.778,0,0,0,6-1.588c2.87-1.169,3.164-1.375,3.011-2.011.216-1.175-.793-2.431-4.214-2.168A67.226,67.226,0,0,0,19.76,33.792c-.3.244-.614.439-.909.683-.686.573-1.291,1.244-1.93,1.877A36.805,36.805,0,0,0,8.18,50.228a39.83,39.83,0,0,0-1.689,18.92A33.94,33.94,0,0,0,11.056,81.7a36.846,36.846,0,0,0,9.8,10.433,43.924,43.924,0,0,0,10.38,5.577,34.818,34.818,0,0,0-4.136,9.947,23.775,23.775,0,0,0,.73,13.5,21.8,21.8,0,0,0,6.642,9.891,22.362,22.362,0,0,0,9.13,4.461,32.3,32.3,0,0,0,8.321.764,91,91,0,0,0,23.73-5.376c4.665-1.435,11.592-2.879,18.642-4.9a103.036,103.036,0,0,0,19-7.266A121.457,121.457,0,0,0,128.878,107.7a45.5,45.5,0,0,1,16.846-8.989,22.792,22.792,0,0,1,14.205.887c1.084.4,2.065,1.046,3.045,1.52a13.741,13.741,0,0,1,2.372,1.93c1.46,1.457,2.776,3.133,4.154,4.815l6.178,8.014.128.169a42.163,42.163,0,0,0,5.909,6.846M66.123,74.265a36.767,36.767,0,0,1,14.512-3.572,9.21,9.21,0,0,1,5.984,1.541,2.83,2.83,0,0,1,.786.655l.661.627.661.965A7.7,7.7,0,0,1,89.9,80.729a14.269,14.269,0,0,1-8.152,6.717,63.413,63.413,0,0,1-14.725,4.107c-2.807.486-5.777-.128-8.729.113-1.416.179-5.84.777-10.314.993-1.848.094-3.688.094-5.326.053a18.183,18.183,0,0,1,1.814-2.5A66.15,66.15,0,0,1,66.123,74.265" transform="translate(12.871 42.854)"/>
    <path id="Path_40" data-name="Path 40" d="M93.833,178.3c-.533-.805-.329-1.028-1.3-1.231-1.025-.047-2.055-.031-3.08-.044-6.874-.075-13.836.445-20.644.611-.15-1.764,1.457-3.475,2.387-4.812,2.566-3.666,5.323-7.228,7.864-10.925l.091-.135c.84-1.225,1.654-2.466,2.428-3.728a54.118,54.118,0,0,0,3.305-6.16c5.473-8.632,6.482-22.379-8.97-19.516a52.778,52.778,0,0,1-7.3,11.107q-1.485,1.875-2.867,3.772c-.194.263-.395.529-.583.793-.583.824-1.147,1.651-1.651,2.5-4.051,5.765-7.538,11.837-11.295,17.733-2.936,6.445-7.682,12.313-8.506,19.437.617,2.162,4.784,3.236,6.608,3.854a54.45,54.45,0,0,0,19.92,2.472,123.674,123.674,0,0,1,29.78-2.776c1.075,0,2.143.022,3.218.044-2.622-4.461-6.567-8.516-9.405-13" transform="translate(93.244 281.505)"/>
    <path id="Path_41" data-name="Path 41" d="M205.965,179.006c-3.174,0-6.435-.924-9.763-.88-3.2.044-20.042,1.454-23.341,1.573-16.138.586-19.55.548-34.686.514-6.852,0-13.315-.232-19.159-.539-5.947-.316-11.273-.721-15.681-1.115-7.372-.661-12.222-1.259-13.3-1.285-1.726-.044-9.659,1.322-11.379,1.322-5.837-.038-9.468-1.726-15.321-1.87-4.762-.122-9.637,1.714-14.387,1.87a51.416,51.416,0,0,0-6.846.855c-3.3.815-3.609.99-3.5,1.651-.332,1.137.661,2.51,4.292,2.644,14.616.808,29.889,1.319,45.57,1.651a185.42,185.42,0,0,0,21.339-1.278c3.224-.307,6.46-.592,9.7-.793,2.71-.172,5.423-.291,8.146-.282,17.84.081,38.624,4.342,56.62,4.3,17.479-.056,32.161-1.629,49.183-1.573,16.464.053,32.571-2.105,48.045-1.886,8.14.116,15.2.376,21.8.661a10.827,10.827,0,0,0,2.472-1.9c-1.375-.946-2.738-1.9-4.111-2.857l-.78-.536c-19.215.069-34.72-.636-40.075-.417-2.914.063-5.708.379-8.672.232H237.186c-8.162-.022-19.04-.034-31.221-.053" transform="translate(82.222 376.95)"/>
    <path id="Path_42" data-name="Path 42" d="M97.994,84.285a31.205,31.205,0,0,1,3.287.846c2.187.768,4.408,1.529,6.608,2.1a14.011,14.011,0,0,0,2.356.445,33.365,33.365,0,0,0,6.94.069,22.257,22.257,0,0,0,7.457-1.15,60.713,60.713,0,0,0,9.38-3.988l2.237-1.225c1.538-.971,2.7-1.128,2.578-.022a9.64,9.64,0,0,1-3.54,3.794,23.194,23.194,0,0,1-5.373,2.8,42.13,42.13,0,0,1-7.773,2.409,44.536,44.536,0,0,1-8.083.711,43.035,43.035,0,0,1-7.792-1.131,44.655,44.655,0,0,1-8.885-3.249c-1.676-.811-1.776-1.748-1.353-2.268.094-.36.285-.376,1.958-.135" transform="translate(204.398 171.895)"/>
    <path id="Path_43" data-name="Path 43" d="M168.033,56.936l-.793-.1C149.2,60.968,134.866,65.2,130,66.874c-2.641.9-5.166,1.883-7.886,2.745A360,360,0,0,0,80.965,86.428c-2.757,1.322-5.787,2.312-8.632,3.807-1.385.7-5.58,3.146-9.7,5.73s-8.093,5.411-9.383,6.351A258.675,258.675,0,0,0,28.07,122.5c.244.6.99.736,1.836.683a254.722,254.722,0,0,1,34.617-23.42c7.146-4.176,13.9-7.779,20.706-11.2s13.638-6.714,21.211-9.637a423.9,423.9,0,0,1,43.311-15.314c7.532-2.005,14.118-3.471,20.334-4.693a12.393,12.393,0,0,0,2.105-1.441Z" transform="translate(59.875 121.234)"/>
    <path id="Path_44" data-name="Path 44" d="M61.677,147.233l.329.116c5.176-2.892,9.675-4.593,11.122-5.389a20.537,20.537,0,0,1,2.384-1.216c.561-.222,5.965-2.757,13.24-5.157.924-.31,2.018-.194,2.973-.514s5.661-2.381,6.655-2.6a47.85,47.85,0,0,1,10.1-1.748,3.419,3.419,0,0,0-.448-1.695,46.335,46.335,0,0,0-14.03.58,151.7,151.7,0,0,0-14.459,5.774c-4.822,1.933-8.948,5.032-13.3,7.109L60.064,145.4a4.045,4.045,0,0,0-.21,1.2Z" transform="translate(127.671 274.622)"/>
    <path id="Path_45" data-name="Path 45" d="M114.349,71.239l-.589-.044c-11.771,5.082-20.985,9.756-24.084,11.511-1.695.943-3.243,1.98-5,2.864L58,100.636c-1.82,1.075-3.919,1.82-5.793,3.027-.9.576-3.631,2.544-6.3,4.593s-5.257,4.23-6.106,4.941a155.26,155.26,0,0,0-16.342,15.3,1.98,1.98,0,0,0,.764.567,1.956,1.956,0,0,0,.937.147,176.864,176.864,0,0,1,22.978-17.363c9.4-6.514,17.511-11.73,27.38-17.285,9.477-5.37,18.25-11.5,27.511-15.9,4.856-2.312,9.158-4.1,13.243-5.649a7.579,7.579,0,0,0,1.14-1.513Z" transform="translate(50.046 151.862)"/>
    <path id="Path_46" data-name="Path 46" d="M74.934,91.7l-.367-.128c-6.276,2.845-11.433,4.991-13.112,5.946-.927.492-1.755,1.081-2.738,1.494-.6.313-6.893,3.4-14.647,7.808-.99.558-2.24.749-3.265,1.379-.99.573-5.831,4.364-6.767,5.1l-9.665,7.237a3.055,3.055,0,0,0,1.322,1.166c4.493-2.71,9.684-4.809,13.826-7.36,5.232-3.224,9.443-6.482,14.788-9.293,5.191-2.7,9.863-6.219,14.913-8.475,2.641-1.181,5-2.1,7.215-2.929a4.457,4.457,0,0,0,.423-1.228Z" transform="translate(51.989 195.317)"/>
    <path id="Path_47" data-name="Path 47" d="M54.006,146.886l.379.056c5.542-3.992,10.352-6.727,11.877-7.864a27.011,27.011,0,0,1,2.516-1.78c.586-.332,6.344-4.239,14-8.44.99-.536,2.209-.661,3.236-1.216.959-.57,6.015-3.722,7.1-4.208,5-2.434,6.276-2.864,10.941-4.74a3.085,3.085,0,0,0-.962-1.476,93.88,93.88,0,0,0-15.277,4.414,156.169,156.169,0,0,0-15.2,9.249c-5.041,3.1-9.271,7.162-13.9,10.192l-6.586,4.2a4.33,4.33,0,0,0-.163,1.285Z" transform="translate(110.871 250.034)"/>
    <path id="Path_48" data-name="Path 48" d="M124.948,74.261c.135.37.508.8.379,1.147a3.874,3.874,0,0,1-.818,1.814c-.479.627-.627,1.075-1.093,1.673a9.675,9.675,0,0,1-.968,1.059,23.09,23.09,0,0,1-4.512,3.55,35.682,35.682,0,0,1-6.971,3.1c-2.6.855-4.656,1.375-4.856,1.4-.332-.038-.58.279-.871.4A28.378,28.378,0,0,1,96.5,89.938a45.342,45.342,0,0,1-8.086-.445A6.527,6.527,0,0,1,85.622,89c-2.049-.786-4.045-1.686-6.047-2.672-.489-.423-.855-.993-1.529-1.156a3.562,3.562,0,0,1-1.72-1.983,1.705,1.705,0,0,1-.169-.755c-.154-.545.448-1.36,1.4-1.855a1.527,1.527,0,0,1,1.319-.295,1.552,1.552,0,0,1,1.046.855,9.587,9.587,0,0,0,2.535,1.61c1.028.99,2.676.548,3.876.99a8.487,8.487,0,0,0,3.963.918,20.721,20.721,0,0,0,2.24-.367,19.365,19.365,0,0,1,3.691-.053,38.884,38.884,0,0,0,10.364-1.9,32.714,32.714,0,0,0,9.142-4.136,33.788,33.788,0,0,0,2.826-1.983,24.42,24.42,0,0,0,3.017-2.641c.169-.21,1.263-.154,2.168-.081.517.009.658.128,1.2.758" transform="translate(162.396 156.645)"/>
    <path id="Path_49" data-name="Path 49" d="M155.864,70.217c.138.367.511.8.382,1.147a3.869,3.869,0,0,1-.821,1.811c-.476.627-.627,1.078-1.093,1.673a10.35,10.35,0,0,1-.968,1.062,22.889,22.889,0,0,1-4.512,3.547,35.749,35.749,0,0,1-6.968,3.108c-2.6.855-4.656,1.375-4.859,1.4-.332-.034-.576.279-.874.4a28.492,28.492,0,0,1-8.738,1.526,45.947,45.947,0,0,1-8.086-.442,6.5,6.5,0,0,1-2.788-.492c-2.046-.786-4.042-1.686-6.047-2.672-.492-.42-.852-.993-1.526-1.153a3.575,3.575,0,0,1-1.723-2,1.651,1.651,0,0,1-.166-.755c-.157-.548.445-1.357,1.4-1.852a1.513,1.513,0,0,1,.627-.3,1.552,1.552,0,0,1,1.742.862,9.783,9.783,0,0,0,2.532,1.61c1.028.99,2.672.545,3.876.99a8.535,8.535,0,0,0,3.963.918,20.737,20.737,0,0,0,2.24-.367,19.115,19.115,0,0,1,3.691-.053,38.955,38.955,0,0,0,10.367-1.9,32.626,32.626,0,0,0,9.142-4.136c1.012-.639,1.949-1.3,2.826-1.968a24.394,24.394,0,0,0,3.014-2.641c.172-.21,1.266-.154,2.171-.078.511.019.655.141,1.2.755" transform="translate(228.345 148.021)"/>
  </g>
</svg>
