<svg id="Group_33" data-name="Group 33" xmlns="http://www.w3.org/2000/svg" xmlns:xlink="http://www.w3.org/1999/xlink" width="535.402" height="548.637" viewBox="0 0 535.402 548.637">
  <defs>
    <clipPath id="clip-path">
      <rect id="Rectangle_47" data-name="Rectangle 47" width="535.402" height="548.637" fill="none"/>
    </clipPath>
  </defs>
  <g id="Group_32" data-name="Group 32" clip-path="url(#clip-path)">
    <path id="Path_50" data-name="Path 50" d="M104.833,114.436a25.968,25.968,0,0,1-12.084,3.107l-.219,19.3,1.454,72.022L92.926,240.38l-.481,16.653-.687,8.535h.156c10.885-.035,22.8,1.423,34.452,2.58h8.011s.849-.984-5.124-5.251a28.085,28.085,0,0,0-10.591-3.733c-5.234-.955-8.953-8.072-8.861-13.39.177-9.059-.152-23.341.149-38.677.219-11.447,4.176-57.255,4.48-68.147a292.266,292.266,0,0,1,3.27-31.313c-1.89,1.012-3.864,2.024-6.132,3.153-.98.623-3.808,2.151-6.734,3.648" transform="translate(232.94 273.246)"/>
    <path id="Path_51" data-name="Path 51" d="M119.684,255.433l-.478-16.653-1.062-31.512,1.454-72.022-.216-19.441a70.6,70.6,0,0,1-7.9-1.1,63.248,63.248,0,0,1-16.716-6.433,276.282,276.282,0,0,1,2.923,29.08c.308,10.892,4.278,56.7,4.483,68.147.308,15.336-.028,29.629.149,38.677.1,5.319-3.617,12.435-8.857,13.39A28.041,28.041,0,0,0,82.868,261.3a21.138,21.138,0,0,0-4.717,4.119c14.678.028,27.63-1.072,42.219-1.373Z" transform="translate(198.397 274.853)"/>
    <path id="Path_52" data-name="Path 52" d="M73.807,27.185c-.768.9-1.373,1.263-1.681,4.515q.727-2.251,1.681-4.515" transform="translate(183.101 69.013)" fill="#ffdef2"/>
    <path id="Path_53" data-name="Path 53" d="M124.891,40.236c.241-.825.471-1.638.7-2.445-4.048.58-13.942-4.529-17.035-4.869C85.98,31.139,68.542,51.012,65.2,70.881c-6.345,6.044-11.911-5.8-15.436-14.477A44.431,44.431,0,0,0,65.24,84.335a35.784,35.784,0,0,0,5.043,3.5A58.01,58.01,0,0,1,98.62,64.147c2.208-.824,4.25-1.469,6.147-1.982,1.925-.379,3.662-.9,5.336-1.072,1.444-.156,2.788-.357,4.108-.46a47.211,47.211,0,0,0,5.761-9.593,58.3,58.3,0,0,0,4.919-10.8" transform="translate(126.338 83.294)" fill="#ffdef2"/>
    <path id="Path_54" data-name="Path 54" d="M74.754,117.906a36.056,36.056,0,0,1-5.043-3.493A44.453,44.453,0,0,1,54.233,86.479c-1.178-2.9-2.137-5.446-2.8-6.844-3.97-40.252,30.429-58.8,68.243-53.759,4.887,1.95,16.674,10.673,17.269,12.828-.053.2-.1.357-.149.534q.913-1.8,2-3.57a42.029,42.029,0,0,0-3.811-3.28c-1.447-1.171-3.079-2.035-4.583-3.054-1.568-.941-3.234-1.713-4.844-2.7a54.426,54.426,0,0,0-55.818,4.434c-1.624,1.2-3.344,2.335-5.067,3.542a29.718,29.718,0,0,0-4.717,4.275,52.027,52.027,0,0,0-7.636,12.831,59.02,59.02,0,0,0-3.74,14.356c-.35,2.512-.478,4.805-.57,6.89.085,2.095,0,4,.216,5.761s.34,3.394.64,4.936.64,3,.952,4.455L51.151,92.4c.471,1.451,1.161,2.877,1.783,4.445s1.585,3.1,2.47,4.851c1,1.688,2.173,3.478,3.56,5.389a58.788,58.788,0,0,0,14.3,13.4q.685-1.279,1.486-2.58" transform="translate(121.867 53.215)"/>
    <path id="Path_55" data-name="Path 55" d="M65.6,96.513c3.344-19.869,20.772-39.742,43.352-37.959,3.093.34,12.987,5.449,17.035,4.869.216-.789.407-1.6.591-2.4,0-.513-.035-1-.032-1.529a54.653,54.653,0,0,1,2.75-16.437c.3-3.252.913-3.616,1.677-4.515.382-.906.793-1.812,1.224-2.707a44.781,44.781,0,0,0-7.438-5.6,56.2,56.2,0,0,0-6.111-3.22,58.271,58.271,0,0,0-6.546-2.243,54.492,54.492,0,0,0-13.691-2.049,44.253,44.253,0,0,0-25.857,7.636,51.831,51.831,0,0,0-9.947,8.9,54.094,54.094,0,0,0-7.442,11.66,58.251,58.251,0,0,0-4.653,14.547,48.668,48.668,0,0,0-.41,16.189c.021.127.053.251.074.382,3.51,8.666,9.077,20.517,15.425,14.473" transform="translate(125.942 57.665)" fill="#ffdef2"/>
    <path id="Path_56" data-name="Path 56" d="M65.6,96.513c3.344-19.869,20.772-39.742,43.352-37.959,3.093.34,12.987,5.449,17.035,4.869.216-.789.407-1.6.591-2.4,0-.513-.035-1-.032-1.529a54.653,54.653,0,0,1,2.75-16.437c.3-3.252.913-3.616,1.677-4.515.382-.906.793-1.812,1.224-2.707a44.781,44.781,0,0,0-7.438-5.6,56.2,56.2,0,0,0-6.111-3.22,58.271,58.271,0,0,0-6.546-2.243,54.492,54.492,0,0,0-13.691-2.049,44.253,44.253,0,0,0-25.857,7.636,51.831,51.831,0,0,0-9.947,8.9,54.094,54.094,0,0,0-7.442,11.66,58.251,58.251,0,0,0-4.653,14.547,48.668,48.668,0,0,0-.41,16.189c.021.127.053.251.074.382,3.51,8.666,9.077,20.517,15.425,14.473" transform="translate(125.942 57.665)" fill="#fff0f9"/>
    <path id="Path_57" data-name="Path 57" d="M52.342,66.963a58.388,58.388,0,0,1,4.65-14.547,54.246,54.246,0,0,1,7.445-11.66,51.622,51.622,0,0,1,9.947-8.9,44.253,44.253,0,0,1,25.857-7.636,54.654,54.654,0,0,1,13.691,2.049,58.514,58.514,0,0,1,6.546,2.244,56.821,56.821,0,0,1,6.111,3.22,44.608,44.608,0,0,1,7.435,5.6c.173-.354.354-.7.534-1.055.046-.18.1-.34.149-.534-.594-2.137-12.385-10.864-17.269-12.813C79.625,17.9,45.233,36.443,49.2,76.684c.672,1.4,1.621,3.946,2.8,6.847-.021-.127-.053-.255-.071-.382a48.553,48.553,0,0,1,.418-16.186" transform="translate(124.098 56.156)"/>
    <path id="Path_58" data-name="Path 58" d="M52.342,66.963a58.388,58.388,0,0,1,4.65-14.547,54.246,54.246,0,0,1,7.445-11.66,51.622,51.622,0,0,1,9.947-8.9,44.253,44.253,0,0,1,25.857-7.636,54.654,54.654,0,0,1,13.691,2.049,58.514,58.514,0,0,1,6.546,2.244,56.821,56.821,0,0,1,6.111,3.22,44.608,44.608,0,0,1,7.435,5.6c.173-.354.354-.7.534-1.055.046-.18.1-.34.149-.534-.594-2.137-12.385-10.864-17.269-12.813C79.625,17.9,45.233,36.443,49.2,76.684c.672,1.4,1.621,3.946,2.8,6.847-.021-.127-.053-.255-.071-.382a48.553,48.553,0,0,1,.418-16.186" transform="translate(124.098 56.156)" fill="#fff0f9"/>
    <path id="Path_59" data-name="Path 59" d="M77.6,58.8a1.033,1.033,0,0,1-.333-.8.417.417,0,0,1,.05-.57,20.484,20.484,0,0,0-2.244,1.656c.453.053.917.1,1.359.152.354-.124.679-.283,1.037-.4A.451.451,0,0,0,77.6,58.8" transform="translate(190.585 145.799)" fill="#ffdef2"/>
    <path id="Path_60" data-name="Path 60" d="M81.858,134.062a35.308,35.308,0,0,0,4.013,1.5c.057-.379.078-.768.159-1.15a51.132,51.132,0,0,1,6.918-17.53,55.969,55.969,0,0,1,23.688-20.977c.29,0,.58,0,.871.028.541-.729,1.249-1.483,1.7-2.137.651-.955,1.454-1.929,2-2.909a19.9,19.9,0,0,0,1.224-3.91,7.844,7.844,0,0,1,1.182-1.858,9.708,9.708,0,0,0,.892-2.2c.51-1.292,1.288-2.477,1.755-3.8a31.387,31.387,0,0,0,1.023-5.779c.425-2.81,1.108-5.679,1.348-8.514a34.176,34.176,0,0,0-.3-8.263c-.152-.916-.028-1.914-.212-2.792-.173-.824-.768-1.323-.881-2.141.12-.191.219-.3.336-.471a61.427,61.427,0,0,0-10.51-6.554c-1.352-.662-2.75-1.263-4.186-1.833a18.5,18.5,0,0,1-3.188,4.752,23.432,23.432,0,0,0-5.435,10.386c-.541,3.666-1.129,7.314-1.691,10.966-.308,1.992-.658,3.97-.917,5.977-.35,2.6-.729,3.082-3.57,3.309a28.164,28.164,0,0,1-5.018-.57,16.238,16.238,0,0,0-4.954.534A21.7,21.7,0,0,0,79.5,80.883a55.463,55.463,0,0,0-8.7,8.613,30.906,30.906,0,0,0-7.024,12.233,34.273,34.273,0,0,1-1.73,5.326,37.887,37.887,0,0,1-.984,4.462c-1.115,2.254-2.612,2.1-4.009,1.037A51.1,51.1,0,0,0,74.345,131.33c2.718,1.529,3.726,2.834,3.772,3.74.042.018.078.042.12.06.34.156.687.258,1.03.407-.258-.3-.545-.612-.8-.917a14.662,14.662,0,0,1,3.386-.559" transform="translate(144.852 108.61)" fill="#ffdef2"/>
    <path id="Path_61" data-name="Path 61" d="M79.047,56.263l0,.011h0Z" transform="translate(200.661 142.832)" fill="#ffdef2"/>
    <path id="Path_62" data-name="Path 62" d="M67.452,52.17a22.07,22.07,0,0,1,4.887-3.581,62.734,62.734,0,0,1,10.273-4.261c1.936-.7,3.829-1.642,5.8-2.328a41.374,41.374,0,0,0-18.274,7.2A40.875,40.875,0,0,0,57.048,64.782a47.01,47.01,0,0,1,6.214-7.636c1.557-1.479,2.661-3.415,4.19-4.975" transform="translate(144.824 106.623)" fill="#ffdef2"/>
    <path id="Path_63" data-name="Path 63" d="M70.507,70.083a35.323,35.323,0,0,1-4.013-1.507,15.019,15.019,0,0,0-3.383.559c.251.308.541.612.8.916.941,1.115,1.883,2.229,2.919,3.362a10.01,10.01,0,0,0,.782.768c.81.262,1.614.446,2.42.665V74.39c.177-1.412.272-2.859.474-4.307" transform="translate(160.216 174.089)"/>
    <path id="Path_64" data-name="Path 64" d="M83.872,136.674a51.08,51.08,0,0,1-17.286-18.78,13.549,13.549,0,0,1-3.627-5.067,121.782,121.782,0,0,1-4.933-14.009,27.065,27.065,0,0,1,.825-10.329,39.548,39.548,0,0,1,1.61-8.939,68.288,68.288,0,0,1,6.108-11.4A40.875,40.875,0,0,1,79.661,52.571a41.416,41.416,0,0,1,18.273-7.2c.46-.159.917-.308,1.384-.442a29.649,29.649,0,0,1,6.161-.244,49.234,49.234,0,0,1,10.23-.492c3.454,1.571,6.412,1.175,6.776,3.015a2.1,2.1,0,0,1-.078.938c1.43.559,2.834,1.161,4.186,1.833a61.425,61.425,0,0,1,10.51,6.554c.138-.205.28-.41.41-.58a49.975,49.975,0,0,1-9.735-10.1,9.241,9.241,0,0,0-1.433-.7c-1.242-.421-2.75-.124-4-.545a17.516,17.516,0,0,0-3.549-1.263c-1.221-.177-2.442-.379-3.663-.563a16.139,16.139,0,0,0-4.013-.467c-1.249.12-2.566.517-3.825.559-1.6.053-3.082-.308-4.519-.11a9.345,9.345,0,0,1-2.558,1.2,4.69,4.69,0,0,1,2.558-1.2,12.283,12.283,0,0,0,2.445-2.084c-1.323.1-2.668.3-4.108.456-1.681.177-3.415.694-5.34,1.076-1.893.51-3.938,1.154-6.147,1.978A58.024,58.024,0,0,0,61.3,67.872q-.807,1.3-1.511,2.558c-.117.212-.265.432-.382.644A55.926,55.926,0,0,0,53.32,89.992a37.069,37.069,0,0,0,.563,7.428c.637,3.1,1.338,6.108,1.663,7.176.7,3.666,1.313,6.67,2.049,9.7.442,1.479.8,3.029,1.408,4.579a40.183,40.183,0,0,0,2.343,4.805c3.259,5.5,8.963,9.13,13.765,12.736.651.517,1.27.984,1.89,1.391.651.364,1.288.69,1.921,1,1.281.591,2.442,1.277,3.857,1.8,4.052,1.239,4.427,1.253,4.565.648a1,1,0,0,0,.241-.375,1.052,1.052,0,0,0,.064-.442c-.046-.934-1.058-2.254-3.776-3.769" transform="translate(135.329 103.267)"/>
    <path id="Path_65" data-name="Path 65" d="M92.662,42.389c-1.985.687-3.878,1.624-5.8,2.332a62.593,62.593,0,0,0-10.29,4.257,22.07,22.07,0,0,0-4.887,3.581c-1.55,1.561-2.64,3.5-4.179,5a47.294,47.294,0,0,0-6.21,7.636c-.4.81-.786,1.628-1.139,2.445a62.36,62.36,0,0,0-4.731,21.61,50.25,50.25,0,0,0,5.8,25.521c.028.057.06.106.088.156,1.394,1.065,2.895,1.224,4.009-1.033a39.375,39.375,0,0,0,.984-4.462,34.383,34.383,0,0,0,1.727-5.326,30.952,30.952,0,0,1,7.028-12.237,55.44,55.44,0,0,1,8.7-8.609,21.709,21.709,0,0,1,8.588-2.75,16.382,16.382,0,0,1,4.958-.531,28.452,28.452,0,0,0,5.014.57c2.845-.226,3.22-.708,3.57-3.309.269-2,.612-3.97.917-5.977.566-3.666,1.154-7.307,1.691-10.966a23.4,23.4,0,0,1,5.435-10.386,18.5,18.5,0,0,0,3.188-4.752,46.034,46.034,0,0,0-11.3-2.926,47.248,47.248,0,0,0-13.16.159" transform="translate(140.594 106.23)" fill="#ffdef2"/>
    <path id="Path_66" data-name="Path 66" d="M92.662,42.389c-1.985.687-3.878,1.624-5.8,2.332a62.593,62.593,0,0,0-10.29,4.257,22.07,22.07,0,0,0-4.887,3.581c-1.55,1.561-2.64,3.5-4.179,5a47.294,47.294,0,0,0-6.21,7.636c-.4.81-.786,1.628-1.139,2.445a62.36,62.36,0,0,0-4.731,21.61,50.25,50.25,0,0,0,5.8,25.521c.028.057.06.106.088.156,1.394,1.065,2.895,1.224,4.009-1.033a39.375,39.375,0,0,0,.984-4.462,34.383,34.383,0,0,0,1.727-5.326,30.952,30.952,0,0,1,7.028-12.237,55.44,55.44,0,0,1,8.7-8.609,21.709,21.709,0,0,1,8.588-2.75,16.382,16.382,0,0,1,4.958-.531,28.452,28.452,0,0,0,5.014.57c2.845-.226,3.22-.708,3.57-3.309.269-2,.612-3.97.917-5.977.566-3.666,1.154-7.307,1.691-10.966a23.4,23.4,0,0,1,5.435-10.386,18.5,18.5,0,0,0,3.188-4.752,46.034,46.034,0,0,0-11.3-2.926,47.248,47.248,0,0,0-13.16.159" transform="translate(140.594 106.23)" fill="#fff0f9"/>
    <path id="Path_67" data-name="Path 67" d="M57.431,72.5a62.309,62.309,0,0,1,4.738-21.618c.35-.825.733-1.642,1.136-2.445a67.774,67.774,0,0,0-6.108,11.4,39.354,39.354,0,0,0-1.61,8.939,27.065,27.065,0,0,0-.824,10.329A121.111,121.111,0,0,0,59.7,93.12a13.578,13.578,0,0,0,3.627,5.067c-.028-.05-.057-.1-.085-.156A50.243,50.243,0,0,1,57.431,72.5" transform="translate(138.585 122.974)"/>
    <path id="Path_68" data-name="Path 68" d="M57.431,72.5a62.309,62.309,0,0,1,4.738-21.618c.35-.825.733-1.642,1.136-2.445a67.774,67.774,0,0,0-6.108,11.4,39.354,39.354,0,0,0-1.61,8.939,27.065,27.065,0,0,0-.824,10.329A121.111,121.111,0,0,0,59.7,93.12a13.578,13.578,0,0,0,3.627,5.067c-.028-.05-.057-.1-.085-.156A50.243,50.243,0,0,1,57.431,72.5" transform="translate(138.585 122.974)" fill="#fff0f9"/>
    <path id="Path_69" data-name="Path 69" d="M83.691,41.724a48.993,48.993,0,0,0-10.23.492,29.658,29.658,0,0,0-6.161.241c-.467.124-.917.283-1.384.442A47.267,47.267,0,0,1,79.1,42.75a46.1,46.1,0,0,1,11.3,2.926,2.121,2.121,0,0,0,.078-.941c-.386-1.84-3.333-1.44-6.787-3.011" transform="translate(167.337 105.721)"/>
    <path id="Path_70" data-name="Path 70" d="M83.691,41.724a48.993,48.993,0,0,0-10.23.492,29.658,29.658,0,0,0-6.161.241c-.467.124-.917.283-1.384.442A47.267,47.267,0,0,1,79.1,42.75a46.1,46.1,0,0,1,11.3,2.926,2.121,2.121,0,0,0,.078-.941c-.386-1.84-3.333-1.44-6.787-3.011" transform="translate(167.337 105.721)" fill="#fff0f9"/>
    <path id="Path_71" data-name="Path 71" d="M146.769,102.241a7.647,7.647,0,0,1,.057-1.451A55.369,55.369,0,0,1,152.374,83.3a60.248,60.248,0,0,1-17.23-6.893,58.552,58.552,0,0,1-14.487-12.392c-2.222.9-4.278,2.661-6.362,3.747a89.04,89.04,0,0,0-12.537,8.3c-2.544,1.9-4.452,4.151-7.028,6.005a30.688,30.688,0,0,0-5,4.335c-1.507,1.645-3.323,2.792-4.777,4.31a48.082,48.082,0,0,1-3.716,4.583,28.245,28.245,0,0,0-7.516,9.048c-1.069,1.982-2.074,3.779-4.391,3.447A3.425,3.425,0,0,1,67.553,107q.918,2.447,2.017,4.823A44.252,44.252,0,0,0,88.162,131.35a51.65,51.65,0,0,0,12.456,4.805c.4.092.821.156,1.221.241a33.645,33.645,0,0,1,2.229-2.919,31.612,31.612,0,0,1,4.887-4.466c1.787-1.256,3.57-2.442,5.255-3.691a57.117,57.117,0,0,1,20.952-9.264,60.209,60.209,0,0,1,6.982-1.012c.205-.46.407-.938.612-1.387a63.348,63.348,0,0,0,4.013-11.416" transform="translate(171.492 162.506)" fill="#ffdef2"/>
    <path id="Path_72" data-name="Path 72" d="M76.626,57.822a.451.451,0,0,0-.131.035c-.357.117-.683.276-1.037.4.4.05.825.088,1.224.138-.081.131-.18.248-.262.375l1.076-.488a1.939,1.939,0,0,1-.87-.46" transform="translate(191.56 146.789)" fill="#ffdef2"/>
    <path id="Path_73" data-name="Path 73" d="M67.206,94.795a35.045,35.045,0,0,1,3.666-10.637A52.426,52.426,0,0,1,76.8,74.048C80.621,69.685,83.679,64.09,87.953,60c-.517.3-1.03.612-1.529.917a49.136,49.136,0,0,0-9.837,9.006,44.511,44.511,0,0,0-9.855,25.22,23.357,23.357,0,0,0-.142,3.224c.216-1.207.446-2.4.616-3.567" transform="translate(169.029 152.308)" fill="#ffdef2"/>
    <path id="Path_74" data-name="Path 74" d="M108.3,152.176c-.41-.081-.825-.149-1.221-.241a51.549,51.549,0,0,1-12.456-4.8A44.225,44.225,0,0,1,76.03,127.607c-.736-1.582-1.4-3.192-2.021-4.823a8.079,8.079,0,0,1-1.607-2.07,16.778,16.778,0,0,1-3.072-8.362,50.974,50.974,0,0,1,1.221-8.4,23.4,23.4,0,0,1,.145-3.227A44.492,44.492,0,0,1,80.549,75.5a49.136,49.136,0,0,1,9.837-9.006c.513-.322,1.026-.609,1.529-.913a22.41,22.41,0,0,1,2.544-2.159,50.41,50.41,0,0,1,8.454-4.583c.085-.127.18-.244.258-.375-.386-.05-.817-.088-1.221-.138-.442-.053-.917-.1-1.359-.152a3.392,3.392,0,0,1-3.878.584,5.067,5.067,0,0,1,.577-.934c-.29-.021-.58-.025-.871-.028A55.969,55.969,0,0,0,72.732,78.774,51.133,51.133,0,0,0,65.814,96.3c-.081.382-.1.771-.159,1.15-.2,1.451-.3,2.9-.456,4.331v.453c-.085,1.674-.046,3.362-.184,5.089A54.431,54.431,0,0,0,94.4,154.989c1.808.9,3.6,1.911,5.464,2.895,1.327.552,2.658,1.221,4.048,1.709a59.341,59.341,0,0,1,4.384-7.417" transform="translate(165.047 146.725)"/>
    <path id="Path_75" data-name="Path 75" d="M82.408,57.605a6.825,6.825,0,0,1,1.929-.269,3.552,3.552,0,0,0-.98-.18c-.952.057-1.953.244-2.948.4-.375.06-.7.35-1.2.375-.556.021-1.118-.357-1.674-.336a3.71,3.71,0,0,0-1.723.541.4.4,0,0,0-.138.276.413.413,0,0,0,.088.3,1.033,1.033,0,0,0,.333.8,1.95,1.95,0,0,0,.86.456l.2-.088a44.317,44.317,0,0,1,5.258-2.275" transform="translate(192.094 145.098)"/>
    <path id="Path_76" data-name="Path 76" d="M80.168,59.843c-.152-.715-.3-1.408-.46-2.137-.088-.464-.145-.955-.209-1.437l-.067.446c-.1.658-.064,2.608-.563,3.114l.747.113a3.221,3.221,0,0,1,.552-.1" transform="translate(200.219 142.846)"/>
    <path id="Path_77" data-name="Path 77" d="M76.2,120.42a28.284,28.284,0,0,1,7.516-9.059,49.128,49.128,0,0,0,3.719-4.583c1.454-1.525,3.266-2.665,4.777-4.314a30.563,30.563,0,0,1,5-4.335c2.576-1.851,4.487-4.1,7.024-6.005a89.348,89.348,0,0,1,12.537-8.3c2.1-1.086,4.144-2.845,6.362-3.744-.715-.842-1.458-1.653-2.137-2.548-1.391-1.9-2.558-3.7-3.56-5.386-.888-1.755-1.833-3.284-2.47-4.855s-1.313-2.994-1.783-4.445l-1.338-4.289-.188-.878a58.347,58.347,0,0,0-7.19.676,9.272,9.272,0,0,1-4.445.269l-1.072.492a15.374,15.374,0,0,1-1.833,2.332,45.233,45.233,0,0,0-9.165,4.406C83.684,69.945,80.63,75.543,76.805,79.9a52.35,52.35,0,0,0-5.924,10.11,35.032,35.032,0,0,0-3.666,10.641c-.173,1.171-.4,2.367-.64,3.578,0,1.221.067,2.463.067,3.691a58,58,0,0,0,.984,6.847,47.87,47.87,0,0,0,2.4,8.3,3.4,3.4,0,0,0,1.776.793c2.328.329,3.333-1.458,4.4-3.44" transform="translate(169.01 146.428)" fill="#ffdef2"/>
    <path id="Path_78" data-name="Path 78" d="M76.2,120.42a28.284,28.284,0,0,1,7.516-9.059,49.128,49.128,0,0,0,3.719-4.583c1.454-1.525,3.266-2.665,4.777-4.314a30.563,30.563,0,0,1,5-4.335c2.576-1.851,4.487-4.1,7.024-6.005a89.348,89.348,0,0,1,12.537-8.3c2.1-1.086,4.144-2.845,6.362-3.744-.715-.842-1.458-1.653-2.137-2.548-1.391-1.9-2.558-3.7-3.56-5.386-.888-1.755-1.833-3.284-2.47-4.855s-1.313-2.994-1.783-4.445l-1.338-4.289-.188-.878a58.347,58.347,0,0,0-7.19.676,9.272,9.272,0,0,1-4.445.269l-1.072.492a15.374,15.374,0,0,1-1.833,2.332,45.233,45.233,0,0,0-9.165,4.406C83.684,69.945,80.63,75.543,76.805,79.9a52.35,52.35,0,0,0-5.924,10.11,35.032,35.032,0,0,0-3.666,10.641c-.173,1.171-.4,2.367-.64,3.578,0,1.221.067,2.463.067,3.691a58,58,0,0,0,.984,6.847,47.87,47.87,0,0,0,2.4,8.3,3.4,3.4,0,0,0,1.776.793c2.328.329,3.333-1.458,4.4-3.44" transform="translate(169.01 146.428)" fill="#fff0f9"/>
    <path id="Path_79" data-name="Path 79" d="M67.519,74.528c0-1.221-.053-2.459-.064-3.691a50.7,50.7,0,0,0-1.221,8.408A16.754,16.754,0,0,0,69.306,87.6a7.96,7.96,0,0,0,1.607,2.07,47.874,47.874,0,0,1-2.4-8.3,58.776,58.776,0,0,1-.994-6.847" transform="translate(168.144 179.829)"/>
    <path id="Path_80" data-name="Path 80" d="M67.519,74.528c0-1.221-.053-2.459-.064-3.691a50.7,50.7,0,0,0-1.221,8.408A16.754,16.754,0,0,0,69.306,87.6a7.96,7.96,0,0,0,1.607,2.07,47.874,47.874,0,0,1-2.4-8.3,58.776,58.776,0,0,1-.994-6.847" transform="translate(168.144 179.829)" fill="#fff0f9"/>
    <path id="Path_81" data-name="Path 81" d="M83.617,58.092a50.157,50.157,0,0,0-8.454,4.583,22.435,22.435,0,0,0-2.544,2.155,45.3,45.3,0,0,1,9.162-4.406,15.177,15.177,0,0,0,1.837-2.332" transform="translate(184.353 147.474)"/>
    <path id="Path_82" data-name="Path 82" d="M83.617,58.092a50.157,50.157,0,0,0-8.454,4.583,22.435,22.435,0,0,0-2.544,2.155,45.3,45.3,0,0,1,9.162-4.406,15.177,15.177,0,0,0,1.837-2.332" transform="translate(184.353 147.474)" fill="#fff0f9"/>
    <path id="Path_83" data-name="Path 83" d="M86.8,57.557l-.747-.11-.028.06c-.471.382-1.667-.035-2.615-.3a6.717,6.717,0,0,0-1.929.269,44.564,44.564,0,0,0-5.258,2.275l-.195.088a9.278,9.278,0,0,0,4.445-.272,58.925,58.925,0,0,1,7.187-.676c-.1-.471-.2-.955-.3-1.43a2.948,2.948,0,0,0-.556.1" transform="translate(193.017 145.217)"/>
    <path id="Path_84" data-name="Path 84" d="M86.8,57.557l-.747-.11-.028.06c-.471.382-1.667-.035-2.615-.3a6.717,6.717,0,0,0-1.929.269,44.564,44.564,0,0,0-5.258,2.275l-.195.088a9.278,9.278,0,0,0,4.445-.272,58.925,58.925,0,0,1,7.187-.676c-.1-.471-.2-.955-.3-1.43a2.948,2.948,0,0,0-.556.1" transform="translate(193.017 145.217)" fill="#fff0f9"/>
    <path id="Path_85" data-name="Path 85" d="M93.249,74.816a63.159,63.159,0,0,1-4.006,11.426c-.205.453-.407.917-.609,1.391a53.983,53.983,0,0,1,6.638-.226c-.354-1.359-.916-3.949-1.454-6.61-.29-2.219-.527-4.459-.57-5.98" transform="translate(225.012 189.93)"/>
    <path id="Path_86" data-name="Path 86" d="M228.117,100.813A75.538,75.538,0,0,1,230.346,90.5l-.418-2.509c-.028,3.326-6.019,7.905-8.072,10.078-2.293,2.417-3.992,5.265-6.055,7.87-6.2,6.345-13.73,11.271-20.16,17.371a42.6,42.6,0,0,1-14.356,8.818,134.7,134.7,0,0,1-70.139,10.386c-5.3-.573-9.774-3.432-14.6-5.35a78.182,78.182,0,0,1-30.8-18.139,24.2,24.2,0,0,1-4.275-6.812c-.18-.343-1.221-1.667-1.136-2.038.272-1.387,1-.612,1.9-1.207a8.186,8.186,0,0,0,3.514-3.567c.814-1.695,1.193-2.519.028-2.987a50.046,50.046,0,0,1-10.262,6.578,56.409,56.409,0,0,1-32.966,5.05l-.959-.612c-1.03-.786-1.967-1.553-2.934-2.332-.722.025-1.451.028-2.169.078-.046.354-.329.478-1.72.329-1.03.446-.7,1.285-.708,3.234,0,3.344.106,3.238,3.079,4.54,2.955,1.525,5.789.58,8.97,2.07a50.276,50.276,0,0,0,12.159-.028c3.036-.163,7.29-2.8,9.837.177.658.775.778,1.858,1.458,2.608.449.492,1.359.672,1.851,1.175.917.945,1.051,2.173,1.957,3.128a133.177,133.177,0,0,0,13.312,9.257,96.642,96.642,0,0,0,26.062,12.608,6.786,6.786,0,0,0,5.1,1.221c2.045,1.419,3.39.9,5.775,1.292,1.525.326,3.489,1.525,5.269,1.833,1.7.3,3.333-.272,5.043.173a12.3,12.3,0,0,0,3.026.807c5.12.05,9.823,1.444,15.131.984a57.27,57.27,0,0,0,12.162.053c1.43-1.362,3.149-.846,4.989-1.285a85.564,85.564,0,0,1,11.883-2.017c5.849-1.9,11.455-4.147,17.145-6.585,17.718-6.437,32.421-18.344,45.818-31.25a30.541,30.541,0,0,0,3.578-2.965c-.071-1.433-.067-2.923-.134-4.558.1-2.166.226-4.551.594-7.162" transform="translate(35.571 223.372)"/>
    <path id="Path_87" data-name="Path 87" d="M2.373,57.8c.308.149-.435-.449,0,0" transform="translate(5.667 146.293)"/>
    <path id="Path_88" data-name="Path 88" d="M5.185,58.345a9.2,9.2,0,0,0-1.663-1.7c-.3-.3-.825-.234-1.246-.361-.81.035-.938.081-1.267.439C.373,57.276-.239,58.1.093,58.61A70.77,70.77,0,0,0,5.026,64.6c1.277,1.507,3.11,2.474,4.37,4a32.387,32.387,0,0,1,3.684,3.723,35.432,35.432,0,0,1,2.8,2.558c.488.853,1.9,2.335,3.316,1.741.881-.488,1.3-1.341,1.03-1.95a2.651,2.651,0,0,0-.336-.888A8.187,8.187,0,0,0,17.7,71a6.617,6.617,0,0,1-1.755-1.953,37.818,37.818,0,0,1-4.345-4.5,16.348,16.348,0,0,0-2.93-2.75c-.336-.3-.51-.481-.626-.609a10.2,10.2,0,0,1-.867-.573,22.846,22.846,0,0,1-1.992-2.268" transform="translate(-0.001 142.897)"/>
    <path id="Path_89" data-name="Path 89" d="M13.6,50.644c.17.3-.127-.637,0,0" transform="translate(34.438 127.993)"/>
    <path id="Path_90" data-name="Path 90" d="M16.512,52.1a10.259,10.259,0,0,0-.5-2.442c-.092-.442-.577-.679-.863-1.037-.708-.435-.839-.467-1.309-.347-.835.11-1.8.485-1.776,1.129a77.557,77.557,0,0,0,.977,8.086c.276,2.059,1.313,3.974,1.568,6.019a36.7,36.7,0,0,1,1.136,5.386c.372,1.769.75,2.056.994,3.85-.042,1.03.357,3.142,1.875,3.436,1.012.081,1.833-.425,1.921-1.115a2.82,2.82,0,0,0,.184-.966,8.994,8.994,0,0,0-.354-3.7,7.282,7.282,0,0,1-.449-2.721,41.932,41.932,0,0,1-1.274-6.444,18.017,18.017,0,0,0-1.012-4.1c-.12-.467-.173-.715-.209-.885a10.446,10.446,0,0,1-.428-1,24.71,24.71,0,0,1-.478-3.139" transform="translate(30.616 122.395)"/>
    <path id="Path_91" data-name="Path 91" d="M32.97,54.076a9.652,9.652,0,0,0,.672-2.328c.117-.418-.2-.846-.3-1.281-.428-.7-.534-.789-1-.917-.793-.283-1.812-.407-2.091.156a72.514,72.514,0,0,0-2.834,7.385c-.7,1.893-.648,4-1.362,5.885a34.015,34.015,0,0,1-1.458,5.138q-.345,1.906-.878,3.765c-.51.863-1.122,2.856.088,3.811a1.684,1.684,0,0,0,2.215-.074,2.751,2.751,0,0,0,.609-.747A8.517,8.517,0,0,0,28,71.528a6.752,6.752,0,0,1,.849-2.537,39.44,39.44,0,0,1,1.815-6.108,16.739,16.739,0,0,0,.977-3.974c.11-.453.177-.694.223-.853A9.611,9.611,0,0,1,31.944,57a24.456,24.456,0,0,1,1.026-2.923" transform="translate(58.628 125.181)"/>
    <path id="Path_92" data-name="Path 92" d="M25.576,51.93c0,.336.177-.609,0,0" transform="translate(64.928 131.3)"/>
    <path id="Path_93" data-name="Path 93" d="M113.87,94.15a59.212,59.212,0,0,1,1.143,7.919,55.816,55.816,0,0,0,8.178-.028c1.507,0,3.018-.046,4.522,0,1.748.053,3.3.609,5.039.711a33.428,33.428,0,0,1,5.92.152c1.189.272,2.343.683,3.5,1.037,3.4,1.051,6.784,1.868,10.1,3.224a15.871,15.871,0,0,1,6.872,3.539c1.387,1.677,2.877,4.087,1.359,6.27-1.348,1.939-3.8,1.833-5.605,2.622-2.123.916-4.462,1.129-6.72,1.851a41,41,0,0,1-5.354,1.642c-1.6.28-3.164.938-4.745,1.224-1.122.2-2.381-.2-3.51-.081-2.236.241-4.37,1.274-6.582,1.377a22.64,22.64,0,0,0-4.038.676c-1.037.212-2.162-.117-3.213.106a9.338,9.338,0,0,1-2.505.513H115.2c-1.058,0-2.137-.046-3.227-.074-.188.517-.368,1.023-.6,1.568-2.272,5.8-4.356,12.495-8.946,17.29-.071.074-.145.134-.219.205.566.191,1.221.347,1.752.563a15.787,15.787,0,0,0,2.442.934c.888.212,1.776.846,2.65,1.051a17.028,17.028,0,0,0,3.4-.025c2.53,0,4.307.372,6.345-1.341a4.432,4.432,0,0,0,1.6-5.195c-.425-1.483-3.018-2.527-3.178-3.949-.17-1.568,4.713-.917,6.037-.917h3.358a12.616,12.616,0,0,0,3.026-.609,19.309,19.309,0,0,1,3.7-.046,10.818,10.818,0,0,0,3.358-.513c2.077-.531,4.345.184,6.447-.188,1.4-.248,2.951-.4,4.317-.75a10.994,10.994,0,0,1,1.737-.545c.754-.081,1.6.23,2.332.071,2.58-.559,5.145-1.408,7.792-1.946a26.056,26.056,0,0,0,9.016-3.57,10.617,10.617,0,0,0,2.7-3.054,6.5,6.5,0,0,0,1.281-2.5,20.151,20.151,0,0,0-2.084-13.645c-3.054-4.9-8.641-7.919-13.231-11.433a51.241,51.241,0,0,0-19.82-8.8,56.637,56.637,0,0,1-7.916,2.824,54.207,54.207,0,0,1-15.4,1.84" transform="translate(259.474 227.172)"/>
    <path id="Path_94" data-name="Path 94" d="M155.372,94.334a1.052,1.052,0,0,1-.064.442,1.036,1.036,0,0,1-.241.372c-.142.612-.517.591-4.558-.679-1.4-.534-2.565-1.221-3.85-1.833-.63-.3-1.263-.648-1.911-1.012q-.918-.626-1.883-1.408c-.488-.375-.991-.747-1.5-1.122-17.767-7.116-35.178.916-45.114,19.144C89.5,118.22,82.477,128.617,78.69,140.145a2.531,2.531,0,0,1-1.118,1.118,42.443,42.443,0,0,0,11.115,13.673,43.766,43.766,0,0,0,22.078,9.271,64.371,64.371,0,0,0,23.065-1.267A52.369,52.369,0,0,0,157.842,149.9a53.173,53.173,0,0,0,14.112-22.785c.754-3.156,1.766-4.547,2.626-4.848a.955.955,0,0,1,.028-.138c.06-.386.067-.764.12-1.146-.226.343-.456.722-.679,1.058a15.321,15.321,0,0,1-1.437-3.227,51.379,51.379,0,0,0,.117-12.467c-.265-1.617-.587-3.284-.962-4.965A55.4,55.4,0,0,1,160.2,98.973a9.467,9.467,0,0,1-.778-.775c-1.03-1.154-1.964-2.275-2.9-3.394-.336-.149-.69-.258-1.026-.414a.393.393,0,0,1-.124-.057" transform="translate(196.927 219.638)" fill="#ffdef2"/>
    <path id="Path_95" data-name="Path 95" d="M78.526,128.641A54.613,54.613,0,0,1,101.413,91.68a11.778,11.778,0,0,1,7.332-4.381c1.171-.173,2.888.135,3.935-.881-.354.039-.612.074-.874.11-1.079.343-2.028.265,0,0a4.147,4.147,0,0,0,.4-.145c3.861-2.052,14.5-8.2,19.611-6.812-.039-.2-.071-.386-.113-.609-.046-.156-.1-.354-.159-.577a54.712,54.712,0,0,0-6.638.223,60.208,60.208,0,0,0-6.982,1.012,57.1,57.1,0,0,0-20.952,9.254c-1.684,1.246-3.468,2.442-5.255,3.691a31.763,31.763,0,0,0-4.887,4.462A34.2,34.2,0,0,0,84.6,99.946a58.589,58.589,0,0,0-4.374,7.41c-.481.97-.945,1.96-1.362,2.98a42.055,42.055,0,0,0-1.691,4.583,75.958,75.958,0,0,0-2.229,10.315c-.364,2.611-.5,5-.594,7.166.064,1.631.06,3.125.134,4.558.025.474.025.973.081,1.43.244,1.833.35,3.535.665,5.135s.665,3.121.987,4.636l.053.166a40.03,40.03,0,0,1,2.254-19.682" transform="translate(188.747 198.941)"/>
    <path id="Path_96" data-name="Path 96" d="M179.231,110.321c.226-.548.407-1.055.594-1.571.085-.23.2-.478.272-.708l.471-2.2c.237-1.447.612-2.81.743-4.363.142-4.395.057-4.777-.566-4.742a1.009,1.009,0,0,0-.428-.131.978.978,0,0,0-.439.067c-.863.3-1.875,1.688-2.629,4.844A53.105,53.105,0,0,1,163.137,124.3a52.369,52.369,0,0,1-24.013,13.036,64.356,64.356,0,0,1-23.061,1.27,43.813,43.813,0,0,1-22.081-9.275A42.386,42.386,0,0,1,82.87,115.66c-1.224.517-2.339-1.306-3.309-2.445a15.262,15.262,0,0,1-4.077-4.887c.354.849.725,1.713,1.09,2.626.648,1.631,1.645,3.224,2.566,5.05,1.044,1.755,2.261,3.62,3.708,5.6a60.855,60.855,0,0,0,17.3,15.528c.46.272.916.481,1.384.74a63.248,63.248,0,0,0,16.716,6.433,69.926,69.926,0,0,0,7.9,1.108,60.194,60.194,0,0,0,7.909.138,26.029,26.029,0,0,0,12.088-3.11c2.926-1.493,5.754-3.026,6.72-3.666,2.265-1.125,4.243-2.137,6.129-3.153,1.012-.538,2-1.079,2.983-1.635,1.355-.863,2.8-1.653,4.161-2.7a45.193,45.193,0,0,0,3.917-3.482c.074-.074.152-.131.223-.209,4.593-4.781,6.677-11.458,8.953-17.272" transform="translate(191.629 245.238)"/>
    <path id="Path_97" data-name="Path 97" d="M105.038,108.16a15.494,15.494,0,0,0,1.433,3.227c.223-.333.453-.715.679-1.058.821-1.26,1.649-2.52,2.481-3.878a10.871,10.871,0,0,0,.534-1,56.972,56.972,0,0,0-.18-6.5,58.573,58.573,0,0,0-1.147-7.919q-2.288-.048-4.646-.308c.372,1.681.694,3.362.959,4.968a51.617,51.617,0,0,1-.113,12.474" transform="translate(264.505 230.3)"/>
    <path id="Path_98" data-name="Path 98" d="M74.891,98.139a20.615,20.615,0,0,0,2.1,6.292c-.28-.669-.548-1.331-.764-2Z" transform="translate(190.121 249.139)" fill="#fff0f9"/>
    <path id="Path_99" data-name="Path 99" d="M82.79,156.376c3.783-11.529,10.807-21.925,17.559-31.908,9.94-18.231,27.35-26.267,45.118-19.144A42.457,42.457,0,0,1,133.29,93.618a39.342,39.342,0,0,1-2.307-4.82,46.259,46.259,0,0,1-1.377-4.583c-.308-1.309-.6-2.626-.874-3.97-.612-.035-1.2-.085-1.8-.106a46.361,46.361,0,0,0-27.021,7.955A53.6,53.6,0,0,0,89.5,97.38,56.006,56.006,0,0,0,81.7,109.567a60.158,60.158,0,0,0-4.841,15.216,50.679,50.679,0,0,0-.368,16.9A49.419,49.419,0,0,0,81.672,157.5a2.511,2.511,0,0,0,1.118-1.125" transform="translate(192.827 203.415)" fill="#ffdef2"/>
    <path id="Path_100" data-name="Path 100" d="M82.79,156.376c3.783-11.529,10.807-21.925,17.559-31.908,9.94-18.231,27.35-26.267,45.118-19.144A42.457,42.457,0,0,1,133.29,93.618a39.342,39.342,0,0,1-2.307-4.82,46.259,46.259,0,0,1-1.377-4.583c-.308-1.309-.6-2.626-.874-3.97-.612-.035-1.2-.085-1.8-.106a46.361,46.361,0,0,0-27.021,7.955A53.6,53.6,0,0,0,89.5,97.38,56.006,56.006,0,0,0,81.7,109.567a60.158,60.158,0,0,0-4.841,15.216,50.679,50.679,0,0,0-.368,16.9A49.419,49.419,0,0,0,81.672,157.5a2.511,2.511,0,0,0,1.118-1.125" transform="translate(192.827 203.415)" fill="#fff0f9"/>
    <path id="Path_101" data-name="Path 101" d="M81.331,158.8c.973,1.139,2.077,2.962,3.309,2.442a49.359,49.359,0,0,1-5.177-15.814,50.6,50.6,0,0,1,.368-16.908,60.311,60.311,0,0,1,4.837-15.213,56.186,56.186,0,0,1,7.792-12.187,53.721,53.721,0,0,1,10.414-9.285,46.379,46.379,0,0,1,27.017-7.958c.612.021,1.2.074,1.808.106-.336-1.6-.658-3.287-1-5.131-5.11-1.391-15.75,4.759-19.611,6.812a4.158,4.158,0,0,1-.4.145c.255-.035.52-.071.874-.11-1.047,1.016-2.75.708-3.935.881a11.757,11.757,0,0,0-7.325,4.384A54.608,54.608,0,0,0,77.417,127.92a40.051,40.051,0,0,0-2.258,19.7l1.316,4.285c.219.669.488,1.331.764,2a15.343,15.343,0,0,0,4.091,4.9" transform="translate(189.863 199.655)"/>
    <path id="Path_102" data-name="Path 102" d="M81.331,158.8c.973,1.139,2.077,2.962,3.309,2.442a49.359,49.359,0,0,1-5.177-15.814,50.6,50.6,0,0,1,.368-16.908,60.311,60.311,0,0,1,4.837-15.213,56.186,56.186,0,0,1,7.792-12.187,53.721,53.721,0,0,1,10.414-9.285,46.379,46.379,0,0,1,27.017-7.958c.612.021,1.2.074,1.808.106-.336-1.6-.658-3.287-1-5.131-5.11-1.391-15.75,4.759-19.611,6.812a4.158,4.158,0,0,1-.4.145c.255-.035.52-.071.874-.11-1.047,1.016-2.75.708-3.935.881a11.757,11.757,0,0,0-7.325,4.384A54.608,54.608,0,0,0,77.417,127.92a40.051,40.051,0,0,0-2.258,19.7l1.316,4.285c.219.669.488,1.331.764,2a15.343,15.343,0,0,0,4.091,4.9" transform="translate(189.863 199.655)" fill="#fff0f9"/>
    <path id="Path_103" data-name="Path 103" d="M85.786,80.67c-2.028.265-1.079.347,0,0" transform="translate(214.757 204.792)"/>
    <path id="Path_104" data-name="Path 104" d="M85.786,80.67c-2.028.265-1.079.347,0,0" transform="translate(214.757 204.792)" fill="#fff0f9"/>
    <path id="Path_105" data-name="Path 105" d="M99.6,89.145c.262.471.548.9.8,1.38.665,1.274,1.267,2.626,1.851,4A55.673,55.673,0,0,1,119.21,80.691c2.888-6.416,6.939-14.53,11.327-22.191,6.985-12.194,7.527-13.854,27.092-28.185,17.265-12.651,41.236-11.147,41.236-11.147a7.189,7.189,0,0,0,2.4-8.96A96.9,96.9,0,0,0,197.452,0a121.048,121.048,0,0,0-29.894,8.51c-17.141,7.123-26.32,11.943-48.334,42.994A246.555,246.555,0,0,0,99.6,89.145" transform="translate(252.853)"/>
    <path id="Path_106" data-name="Path 106" d="M17.65,67.035A43.491,43.491,0,0,0,13.938,70.9,47.988,47.988,0,0,0,5.385,85.372,39.9,39.9,0,0,1,14.61,71.978a11.938,11.938,0,0,0,3.04-4.943" transform="translate(13.671 170.177)" fill="#ffdef2"/>
    <path id="Path_107" data-name="Path 107" d="M29.571,167.958c-.322-.258-.679-.531-1-.793a15.721,15.721,0,0,1,3.4-1.069,48.71,48.71,0,0,0,26.473-.888,43.042,43.042,0,0,0,22.562-17.332,50.006,50.006,0,0,0,3.524-6.345,51.935,51.935,0,0,0,2.343-6.876,20.2,20.2,0,0,0,.786-3.539c.166-1.2.435-2.364.541-3.578a66.729,66.729,0,0,0,.241-7.382,69.587,69.587,0,0,0-7.215-28.635A70.529,70.529,0,0,0,63.758,68.048c-1.161-.941-2.367-1.833-3.6-2.686-.244.088-.46.177-.715.265a88.545,88.545,0,0,0-35.4,38.486c-6.886,13.6-5.333,35.086-11.3,47.577a3.422,3.422,0,0,1-3.319,2.321,51.481,51.481,0,0,0,14.353,10.439c3.057,1.168,4.328,2.336,4.537,3.227.046,0,.088.035.138.046.357.088.736.142,1.118.234" transform="translate(23.929 165.93)" fill="#ffdef2"/>
    <path id="Path_108" data-name="Path 108" d="M28.1,63.95a2.383,2.383,0,0,1-.255.612,76.95,76.95,0,0,1,11.228,2.077,78.564,78.564,0,0,0,17.385,1.55,37.991,37.991,0,0,0-9.53-4.31,42.808,42.808,0,0,0-13.351-2.006l-5.29.4-4.752.917a55.811,55.811,0,0,0-9.268,3.227c-.531.244-1.079.52-1.624.789.2-.035.4-.081.609-.106,5.17-1.355,9.02-3.992,14.848-3.153" transform="translate(32.091 157.066)"/>
    <path id="Path_109" data-name="Path 109" d="M45.745,168.449v-.078a.982.982,0,0,0,.177-.414,1,1,0,0,0-.018-.446c-.212-.892-1.493-2.063-4.537-3.227a51.457,51.457,0,0,1-14.356-10.443c-4.583-.188-11.133-9.115-13.4-11.837-8.174-14-8.061-36.349-.888-52.538A48.013,48.013,0,0,1,21.279,75a43.957,43.957,0,0,1,3.708-3.864c.8-1.89,1.571-3.97,2.346-5.711A70.416,70.416,0,0,0,4.686,98.7a58.875,58.875,0,0,0-2,20.86A46.946,46.946,0,0,0,4.877,127L6.6,131.3c.591,1.224,1.058,2.226,1.263,2.749.64,1.833,1.3,3.486,1.907,5.057s1.086,3.125,1.762,4.583a39.3,39.3,0,0,0,5.064,9.218c4,5.308,10.22,8.656,15.69,11.932a16.829,16.829,0,0,0,4.3,2.088c1.437.46,2.75,1.026,4.31,1.4,1.444.226,2.424.372,3.139.446,1.38.149,1.663.025,1.709-.329" transform="translate(6.301 166.082)"/>
    <path id="Path_110" data-name="Path 110" d="M46.425,67.889c1.221.856,2.445,1.748,3.6,2.689a70.4,70.4,0,0,1,17.47,23.475,69.577,69.577,0,0,1,7.219,28.635,65.814,65.814,0,0,1-.244,7.378c-.106,1.224-.375,2.385-.538,3.581a20.415,20.415,0,0,1-.786,3.535,52.1,52.1,0,0,1-2.343,6.876,50.9,50.9,0,0,1-3.524,6.345,43.045,43.045,0,0,1-22.562,17.336,48.711,48.711,0,0,1-26.473.888,15.557,15.557,0,0,0-3.408,1.069c.308.258.676.531,1,.789.234.191.481.382.715.573.966.775,1.9,1.546,2.934,2.332l.959.609a56.405,56.405,0,0,0,32.966-5.05,50.031,50.031,0,0,0,10.262-6.575,37.627,37.627,0,0,0,5.538-5.595,63.711,63.711,0,0,0,6.394-9.834,47.861,47.861,0,0,0,5.166-18.772,81.774,81.774,0,0,0-8.585-40.556A73.5,73.5,0,0,0,66.3,76.028,57.447,57.447,0,0,0,55.35,64.86c-.226-.173-.46-.329-.69-.5a66.23,66.23,0,0,1-8.234,3.524" transform="translate(37.663 163.399)"/>
    <path id="Path_111" data-name="Path 111" d="M76.42,26.376a10.758,10.758,0,0,1,2.109-1.642,11.88,11.88,0,0,1,.226-1.369,3.488,3.488,0,0,1-1.2.683,3.545,3.545,0,0,1-1.373.17l-.1.1c-.241.287-.439.595-.676.881.364-.163.75-.354,1.108-.51a14.222,14.222,0,0,1-.1,1.691" transform="translate(191.443 59.315)" fill="#ffdef2"/>
    <path id="Path_112" data-name="Path 112" d="M108.994,90.979c1.727-1.221,3.45-2.346,5.071-3.542a54.719,54.719,0,0,1,19.066-8.61,14.38,14.38,0,0,0,3.149-2.19,59.811,59.811,0,0,0,8.2-10.627,63.757,63.757,0,0,1,4.848-7.767,12.311,12.311,0,0,0,2.382-4.409c.715-2.013,2.035-3.744,2.721-5.761a76.677,76.677,0,0,0,3.5-13.026q.7-4.581,1.415-9.165c-.633-.7-1.288-1.384-1.957-2.042-.064.053-.106.106-.18.159-1.461,1.012-3.832.3-5.612.878-1.716.559-3.694,1.242-5.425,1.967C139.4,29.693,134.348,34.9,128,38.359A21.013,21.013,0,0,1,116.393,40.9a33.453,33.453,0,0,0-5.5-.8,57.589,57.589,0,0,0-5.835,1.292,31.121,31.121,0,0,0-12.329,6.819,34.881,34.881,0,0,0-8.457,8.188c-1.773,2.53-3.4,4.986-4.986,7.573-1.093,1.791-3.277,6.847-5.733,8.45a43.159,43.159,0,0,0,1.833,4.038,55.659,55.659,0,0,0,3.517,5.959,58.332,58.332,0,0,0,4.4,5.343A54.792,54.792,0,0,0,93.895,96.69a41.878,41.878,0,0,0,6.8,3.6,42.168,42.168,0,0,1,3.588-5.032,29.849,29.849,0,0,1,4.713-4.275" transform="translate(186.737 60.521)" fill="#ffdef2"/>
    <path id="Path_113" data-name="Path 113" d="M75.743,26.834q-.679,1.253-1.334,2.555c-.283.69-.559,1.4-.835,2.113a25.406,25.406,0,0,0,1.189-2.311c.333-.761.658-1.553.98-2.357" transform="translate(186.777 68.122)" fill="#ffdef2"/>
    <path id="Path_114" data-name="Path 114" d="M77.533,32.173c-.18.35-.361.7-.531,1.055q-.658,1.354-1.221,2.707Q74.826,38.2,74.1,40.449a54.676,54.676,0,0,0-2.75,16.44c0,.531.025,1.023.032,1.525.1-.41.209-.81.308-1.221.34-1.7,1.221-3.1,1.447-4.862.428.159.612.1.687-.067.025-.276.067-.538.081-.817a2.541,2.541,0,0,1-.081.817,32.454,32.454,0,0,0-.534,7.916c.446,2.972.69,5.994,1.242,9.038a44.413,44.413,0,0,0,3.627,9.031c1.6,3.889,4.4,7.237,6.079,11.072a3.032,3.032,0,0,1-2.261-.481,49.975,49.975,0,0,0,9.735,10.1c2.2-2.845,3.408-1.1,4.062-.226a25.985,25.985,0,0,0,2.413,2.909,30.741,30.741,0,0,0,3.273,3.057c.4.3,1.26.672,1.929,1.1a56.088,56.088,0,0,1,2.905-5.244,41.993,41.993,0,0,1-6.794-3.6,54.813,54.813,0,0,1-10.588-8.921,58.776,58.776,0,0,1-4.4-5.333,57.077,57.077,0,0,1-3.517-5.948A43.639,43.639,0,0,1,79.161,72.7a2.4,2.4,0,0,1-.97.446,2.369,2.369,0,0,1-1.069-.021c-2.75-.828-2.247-3.489-2.187-5.563a19.2,19.2,0,0,0-.414-4.123,36.737,36.737,0,0,1,.846-12.116,40.7,40.7,0,0,1,1.292-6.89,29.788,29.788,0,0,1,2.562-5.06c.276-.711.552-1.423.835-2.109.439-.871.881-1.72,1.334-2.558a26.112,26.112,0,0,1,5.343-9.271,14.223,14.223,0,0,0,.1-1.691c-.357.156-.743.347-1.108.51-1.327.612-2.661,1.2-4.048,1.875a10.186,10.186,0,0,0-.955.541c-.428.637-.786,1.292-1.178,1.936q-1.088,1.773-2.01,3.57" transform="translate(181.134 60.267)"/>
    <path id="Path_115" data-name="Path 115" d="M78.906,38.321c1.147-6.936,7.686-9.65,9.6-10.669A45.655,45.655,0,0,1,98.574,23.36a39.209,39.209,0,0,1,13.67-1.943c2.162.241,3.938-.471,6.161-.1,2.332.386,4.671.715,7.007,1.076,3.97.609,8.079,1,12.01,1.829a25.594,25.594,0,0,1,10.492,6.5c2.042,1.748,8.5,6.486,4.943,9.292.672.662,1.323,1.341,1.957,2.045l.074-.485.067-.432-.067.432c2.643.722,2.987,3.97,4.774,6.546a27.783,27.783,0,0,0,2.527,3.464,3.525,3.525,0,0,0,.308.251c.4-.527.846-1.076,1.352-1.674-.584-1.366-1.185-2.721-1.854-4-.248-.481-.534-.917-.8-1.38a61.135,61.135,0,0,0-10.382-13.645A55.991,55.991,0,0,0,134.317,20.08a37.615,37.615,0,0,0-7.339-1.518c-3.156-.237-6.249-.4-7.357-.375-3.726-.336-6.776-.573-9.89-.7-1.546.014-3.132-.074-4.781.092a40.1,40.1,0,0,0-5.262.917c-6.193,1.617-11.246,6.111-16.037,9.721-.672.481-1.3.948-1.858,1.433-.531.527-1.019,1.051-1.49,1.571-.917,1.072-1.907,2-2.8,3.213-2.311,3.549-2.445,3.907-1.883,4.207a1.073,1.073,0,0,0,.294.336,1.105,1.105,0,0,0,.407.18,3.522,3.522,0,0,0,2.58-.835" transform="translate(191.279 44.362)"/>
    <path id="Path_116" data-name="Path 116" d="M136.077,57.813a20.948,20.948,0,0,1-11.55,2.551,33.452,33.452,0,0,0-5.5-.8,57,57,0,0,0-5.8,1.3,31.067,31.067,0,0,0-12.279,6.812,34.973,34.973,0,0,0-8.429,8.192c-1.773,2.534-3.394,4.989-4.975,7.58-1.224,2.01-3.839,8.185-6.66,8.886A43.688,43.688,0,0,0,95.464,115.85a41.771,41.771,0,0,0,21.2,8.857c1.635.223,3.259.329,4.887.4a59.113,59.113,0,0,1,9.137-10.966,58.428,58.428,0,0,1,11.784-8.457,50.827,50.827,0,0,0,5.722-8.532c2.006-4.384,3.921-8.857,5.867-13.309a118.726,118.726,0,0,0,5.8-14.855,87.212,87.212,0,0,0,2.87-10.825c.149-1.012.3-2.028.456-3.054a54.619,54.619,0,0,1-5.142-4.144,9.752,9.752,0,0,1-.389-1.03c-.453-1.476-.835-2.888-1.221-4.292a1.951,1.951,0,0,1-.145-.152c-.708.262-1.415.527-2.077.8-6.78,2.863-11.812,8.054-18.139,11.522" transform="translate(205.337 115.477)" fill="#ffdef2"/>
    <path id="Path_117" data-name="Path 117" d="M102.681,41.017l-.085-.195a15.327,15.327,0,0,0-3.149-.793,11.615,11.615,0,0,0-2.558-.428,2.389,2.389,0,0,0-.941.425c1.281.195,2.565.4,3.846.591.952.145,1.921.262,2.888.4" transform="translate(243.574 100.535)"/>
    <path id="Path_118" data-name="Path 118" d="M84.753,67.17c0,.485-.722.57-.856.963a8.614,8.614,0,0,0-.3,1.582c-.234,1.653-.51,3.3-.764,4.947L80.914,87.079q-.94,6.067-1.872,12.134c.064.485.12.973.209,1.437.159.736.308,1.43.46,2.137.1.478.205.963.3,1.433l.188.878,1.359,4.307c.471,1.451,1.161,2.877,1.783,4.445s1.582,3.1,2.466,4.851c1,1.688,2.173,3.482,3.563,5.389.679.9,1.419,1.706,2.137,2.548A58.83,58.83,0,0,0,106,139.029a60.341,60.341,0,0,0,17.23,6.89c.226-.464.421-.916.665-1.384.7-1.256,1.479-2.544,2.325-3.85-1.617-.067-3.241-.173-4.887-.4a41.76,41.76,0,0,1-21.2-8.857,43.673,43.673,0,0,1-14.583-23.518,2.022,2.022,0,0,1-1.086,0c-2.75-.824-2.24-3.489-2.18-5.563a19.414,19.414,0,0,0-.41-4.119,36.855,36.855,0,0,1,.849-12.12,40.309,40.309,0,0,1,1.292-6.886c.917-2.658,2.629-4.816,3.74-7.371,2.038-4.682,3.666-10.5,8.4-13.27.41-8,7.76-10.956,9.795-12.042a45.183,45.183,0,0,1,10.021-4.292A38.9,38.9,0,0,1,129.6,40.294a30.413,30.413,0,0,0,4.469-.2c-.085-.018-.18-.042-.262-.057a31.157,31.157,0,0,0-5.52-.694,37.378,37.378,0,0,0-5.8.916c-1.408.262-2.788.474-4.179.789A31.642,31.642,0,0,0,113.9,42.5c.612-.435,1.221-.881,1.833-1.331a12.074,12.074,0,0,1,2.212-1c.421-.219.842-.467,1.263-.7a54.8,54.8,0,0,0-19.063,8.613c-1.624,1.2-3.348,2.332-5.071,3.542a29.5,29.5,0,0,0-4.713,4.271A41.934,41.934,0,0,0,86.77,60.9a55.287,55.287,0,0,0-2.905,5.244c.5.326.888.669.888,1.026" transform="translate(200.659 99.885)"/>
    <path id="Path_119" data-name="Path 119" d="M81.64,75.452c1.589-2.59,3.213-5.046,4.989-7.576a34.916,34.916,0,0,1,8.45-8.188,31.094,31.094,0,0,1,12.318-6.8,56.646,56.646,0,0,1,5.835-1.292,33.078,33.078,0,0,1,5.5.8,21.043,21.043,0,0,0,11.607-2.544c6.348-3.457,11.4-8.666,18.171-11.515,1.73-.725,3.709-1.408,5.425-1.967,1.78-.58,4.151.134,5.612-.878.074-.053.117-.11.18-.159-1.058-1.04-2.137-2.038-3.277-2.962a62.305,62.305,0,0,0-19.48-10.513,50.288,50.288,0,0,0-26.136-1.444A51,51,0,0,0,87.854,31.9,15.073,15.073,0,0,1,85.8,33.636a10.625,10.625,0,0,0-.226,1.369,11.056,11.056,0,0,0-2.113,1.642,15.645,15.645,0,0,1-.3,1.713,43.145,43.145,0,0,0-5.032,7.551c-.326.8-.648,1.6-.98,2.36a25.343,25.343,0,0,1-1.189,2.307,43.849,43.849,0,0,0-.06,33.327c2.466-1.614,4.646-6.667,5.747-8.454" transform="translate(184.391 49.047)" fill="#ffdef2"/>
    <path id="Path_120" data-name="Path 120" d="M81.64,75.452c1.589-2.59,3.213-5.046,4.989-7.576a34.916,34.916,0,0,1,8.45-8.188,31.094,31.094,0,0,1,12.318-6.8,56.646,56.646,0,0,1,5.835-1.292,33.078,33.078,0,0,1,5.5.8,21.043,21.043,0,0,0,11.607-2.544c6.348-3.457,11.4-8.666,18.171-11.515,1.73-.725,3.709-1.408,5.425-1.967,1.78-.58,4.151.134,5.612-.878.074-.053.117-.11.18-.159-1.058-1.04-2.137-2.038-3.277-2.962a62.305,62.305,0,0,0-19.48-10.513,50.288,50.288,0,0,0-26.136-1.444A51,51,0,0,0,87.854,31.9,15.073,15.073,0,0,1,85.8,33.636a10.625,10.625,0,0,0-.226,1.369,11.056,11.056,0,0,0-2.113,1.642,15.645,15.645,0,0,1-.3,1.713,43.145,43.145,0,0,0-5.032,7.551c-.326.8-.648,1.6-.98,2.36a25.343,25.343,0,0,1-1.189,2.307,43.849,43.849,0,0,0-.06,33.327c2.466-1.614,4.646-6.667,5.747-8.454" transform="translate(184.391 49.047)" fill="#fff0f9"/>
    <path id="Path_121" data-name="Path 121" d="M79.216,25.924a16.619,16.619,0,0,0,.3-1.709,26.071,26.071,0,0,0-5.329,9.264,43.137,43.137,0,0,1,5.025-7.555" transform="translate(188.344 61.473)"/>
    <path id="Path_122" data-name="Path 122" d="M79.216,25.924a16.619,16.619,0,0,0,.3-1.709,26.071,26.071,0,0,0-5.329,9.264,43.137,43.137,0,0,1,5.025-7.555" transform="translate(188.344 61.473)" fill="#fff0f9"/>
    <path id="Path_123" data-name="Path 123" d="M101.4,22.418a50.288,50.288,0,0,1,26.136,1.444,62.287,62.287,0,0,1,19.477,10.513c1.136.917,2.222,1.921,3.28,2.962,3.556-2.806-2.9-7.544-4.947-9.3a25.588,25.588,0,0,0-10.488-6.493c-3.935-.828-8.04-1.221-12.014-1.833-2.332-.357-4.671-.686-7-1.076-2.222-.372-4,.336-6.161.1a39.13,39.13,0,0,0-13.67,1.946,45.474,45.474,0,0,0-10.067,4.3c-1.911,1.016-8.45,3.73-9.6,10.669A14.926,14.926,0,0,0,78.407,33.9a51,51,0,0,1,23-11.483" transform="translate(193.827 47.038)"/>
    <path id="Path_124" data-name="Path 124" d="M101.4,22.418a50.288,50.288,0,0,1,26.136,1.444,62.287,62.287,0,0,1,19.477,10.513c1.136.917,2.222,1.921,3.28,2.962,3.556-2.806-2.9-7.544-4.947-9.3a25.588,25.588,0,0,0-10.488-6.493c-3.935-.828-8.04-1.221-12.014-1.833-2.332-.357-4.671-.686-7-1.076-2.222-.372-4,.336-6.161.1a39.13,39.13,0,0,0-13.67,1.946,45.474,45.474,0,0,0-10.067,4.3c-1.911,1.016-8.45,3.73-9.6,10.669A14.926,14.926,0,0,0,78.407,33.9a51,51,0,0,1,23-11.483" transform="translate(193.827 47.038)" fill="#fff0f9"/>
    <path id="Path_125" data-name="Path 125" d="M74.166,38.844a44.457,44.457,0,0,1,2.9-10.69,29.756,29.756,0,0,0-2.562,5.057A40.388,40.388,0,0,0,73.214,40.1a36.729,36.729,0,0,0-.846,12.116,19.188,19.188,0,0,1,.414,4.119c-.06,2.074-.57,4.738,2.187,5.566a2.389,2.389,0,0,0,2.038-.425,44.338,44.338,0,0,1-2.842-22.637" transform="translate(183.284 71.473)"/>
    <path id="Path_126" data-name="Path 126" d="M74.166,38.844a44.457,44.457,0,0,1,2.9-10.69,29.756,29.756,0,0,0-2.562,5.057A40.388,40.388,0,0,0,73.214,40.1a36.729,36.729,0,0,0-.846,12.116,19.188,19.188,0,0,1,.414,4.119c-.06,2.074-.57,4.738,2.187,5.566a2.389,2.389,0,0,0,2.038-.425,44.338,44.338,0,0,1-2.842-22.637" transform="translate(183.284 71.473)" fill="#fff0f9"/>
    <path id="Path_127" data-name="Path 127" d="M156,57.474c-.379.492-.715.3-3.861-2.516-1.051-1.065-1.829-2.187-2.746-3.263-.442-.548-.881-1.115-1.32-1.72-.389-.633-.754-1.316-1.125-2.059-.824-1.546-1.716-3.132-2.587-4.756-.467-.142-.938-.28-1.419-.386a54.548,54.548,0,0,0-13.695-2.052A44.25,44.25,0,0,0,103.4,48.358a51.5,51.5,0,0,0-9.947,8.9A53.8,53.8,0,0,0,86.02,68.921a58.25,58.25,0,0,0-4.653,14.547,48.669,48.669,0,0,0-.41,16.189,46.117,46.117,0,0,0,.966,4.8c2.824-.7,5.428-6.872,6.66-8.886,1.585-2.59,3.206-5.046,4.975-7.576a34.919,34.919,0,0,1,8.433-8.192,31.034,31.034,0,0,1,12.276-6.812,56.284,56.284,0,0,1,5.8-1.3,33.115,33.115,0,0,1,5.5.793,20.875,20.875,0,0,0,11.564-2.551c6.327-3.457,11.363-8.67,18.114-11.518.658-.28,1.366-.541,2.074-.8-.2-.226-.425-.425-.612-.651-.032-.035-.057-.074-.085-.11a1.05,1.05,0,0,1-.241.375.99.99,0,0,1-.379.241" transform="translate(204.279 103.35)" fill="#ffdef2"/>
    <path id="Path_128" data-name="Path 128" d="M156,57.474c-.379.492-.715.3-3.861-2.516-1.051-1.065-1.829-2.187-2.746-3.263-.442-.548-.881-1.115-1.32-1.72-.389-.633-.754-1.316-1.125-2.059-.824-1.546-1.716-3.132-2.587-4.756-.467-.142-.938-.28-1.419-.386a54.548,54.548,0,0,0-13.695-2.052A44.25,44.25,0,0,0,103.4,48.358a51.5,51.5,0,0,0-9.947,8.9A53.8,53.8,0,0,0,86.02,68.921a58.25,58.25,0,0,0-4.653,14.547,48.669,48.669,0,0,0-.41,16.189,46.117,46.117,0,0,0,.966,4.8c2.824-.7,5.428-6.872,6.66-8.886,1.585-2.59,3.206-5.046,4.975-7.576a34.919,34.919,0,0,1,8.433-8.192,31.034,31.034,0,0,1,12.276-6.812,56.284,56.284,0,0,1,5.8-1.3,33.115,33.115,0,0,1,5.5.793,20.875,20.875,0,0,0,11.564-2.551c6.327-3.457,11.363-8.67,18.114-11.518.658-.28,1.366-.541,2.074-.8-.2-.226-.425-.425-.612-.651-.032-.035-.057-.074-.085-.11a1.05,1.05,0,0,1-.241.375.99.99,0,0,1-.379.241" transform="translate(204.279 103.35)" fill="#fff0f9"/>
    <path id="Path_129" data-name="Path 129" d="M127.685,39.77a38.95,38.95,0,0,0-13.624,1.953,45.22,45.22,0,0,0-10.021,4.3c-2.035,1.083-9.388,4.038-9.8,12.042-4.742,2.767-6.362,8.588-8.4,13.27C84.729,73.886,83,76.045,82.1,78.7a41.008,41.008,0,0,0-1.292,6.886,37.046,37.046,0,0,0-.849,12.12,19.415,19.415,0,0,1,.414,4.119c-.064,2.074-.573,4.738,2.176,5.563a2.023,2.023,0,0,0,1.086,0,46.305,46.305,0,0,1-.966-4.8A48.669,48.669,0,0,1,83.08,86.4a58.326,58.326,0,0,1,4.653-14.558,54.007,54.007,0,0,1,7.442-11.66,51.525,51.525,0,0,1,9.951-8.9,44.235,44.235,0,0,1,25.853-7.636,54.653,54.653,0,0,1,13.691,2.049c.481.11.952.248,1.419.389-.86-1.61-1.684-3.256-2.4-4.951-.966-.131-1.936-.255-2.888-.4-1.281-.195-2.566-.4-3.846-.591a1.08,1.08,0,0,1-.418.113,18.92,18.92,0,0,1-4.381-.7,30.468,30.468,0,0,1-4.473.212" transform="translate(202.565 100.423)"/>
    <path id="Path_130" data-name="Path 130" d="M127.685,39.77a38.95,38.95,0,0,0-13.624,1.953,45.22,45.22,0,0,0-10.021,4.3c-2.035,1.083-9.388,4.038-9.8,12.042-4.742,2.767-6.362,8.588-8.4,13.27C84.729,73.886,83,76.045,82.1,78.7a41.008,41.008,0,0,0-1.292,6.886,37.046,37.046,0,0,0-.849,12.12,19.415,19.415,0,0,1,.414,4.119c-.064,2.074-.573,4.738,2.176,5.563a2.023,2.023,0,0,0,1.086,0,46.305,46.305,0,0,1-.966-4.8A48.669,48.669,0,0,1,83.08,86.4a58.326,58.326,0,0,1,4.653-14.558,54.007,54.007,0,0,1,7.442-11.66,51.525,51.525,0,0,1,9.951-8.9,44.235,44.235,0,0,1,25.853-7.636,54.653,54.653,0,0,1,13.691,2.049c.481.11.952.248,1.419.389-.86-1.61-1.684-3.256-2.4-4.951-.966-.131-1.936-.255-2.888-.4-1.281-.195-2.566-.4-3.846-.591a1.08,1.08,0,0,1-.418.113,18.92,18.92,0,0,1-4.381-.7,30.468,30.468,0,0,1-4.473.212" transform="translate(202.565 100.423)" fill="#fff0f9"/>
    <path id="Path_131" data-name="Path 131" d="M135.208,75.894a33.115,33.115,0,0,0-5.5-.793,56.288,56.288,0,0,0-5.8,1.3,31.027,31.027,0,0,0-12.275,6.808,35,35,0,0,0-8.436,8.192c-1.769,2.534-3.39,4.989-4.972,7.58a32.545,32.545,0,0,1-5.368,8.217,46.7,46.7,0,0,0,2.75,6.228A50.94,50.94,0,0,0,112.84,132.47c2.711,1.529,3.712,2.859,3.747,3.765.039.018.081.046.12.064.34.156.69.262,1.03.41-.255-.3-.541-.609-.793-.917a15.053,15.053,0,0,1,3.386-.538,45.554,45.554,0,0,0,24.788,3.57,43.423,43.423,0,0,0,13.6-4.193c.534-.991,1.362-2.116,1.663-2.608a51.76,51.76,0,0,0,4.409-7.208,83.457,83.457,0,0,0,5.69-14.466c.5-2.417.725-4.936,1.1-7.378a72.755,72.755,0,0,0,1.323-8.949,70.225,70.225,0,0,0,.032-8.1c-.11-1.154-.6-2.47-.779-3.662A55.713,55.713,0,0,1,152.02,70.013a52.024,52.024,0,0,1-5.237,3.362,20.9,20.9,0,0,1-11.575,2.52" transform="translate(235.722 177.737)" fill="#ffdef2"/>
    <path id="Path_132" data-name="Path 132" d="M95.592,78.953a55.012,55.012,0,0,0-3.036,9.208,37.108,37.108,0,0,0,1.967-3.684c2.042-4.682,3.666-10.5,8.4-13.27a11.426,11.426,0,0,1,2.166-6.193,44.066,44.066,0,0,0-9.5,13.939" transform="translate(234.966 165.047)" fill="#ffdef2"/>
    <path id="Path_133" data-name="Path 133" d="M172.542,74.957c-.4,2.573-.793,5.145-1.193,7.718-.223,1.472-.379,2.983-.669,4.445a34.088,34.088,0,0,1-1.249,3.337,36.678,36.678,0,0,1-1.118,4.384,46.421,46.421,0,0,1-2.633,5.835c-1.688,2.806-3.762,5.336-5.556,8.082a56.639,56.639,0,0,1-13.971,14.731c-.917.637-4.887,3.436-5.191,1.4a2.841,2.841,0,0,1,.474-1.454,43.324,43.324,0,0,1-13.6,4.19,45.535,45.535,0,0,1-24.785-3.567,14.662,14.662,0,0,0-3.39.538c.251.3.538.609.793.917.931,1.118,1.865,2.24,2.895,3.394a10.059,10.059,0,0,0,.778.775A55.485,55.485,0,0,0,115.7,132.1c1.571.163,3.125.265,4.65.3a54.266,54.266,0,0,0,15.4-1.833,56.525,56.525,0,0,0,7.919-2.824,46.834,46.834,0,0,0,9.116-5.244c1.529-1.069,2.806-2.4,4.2-3.581,1.334-1.246,2.537-2.636,3.935-3.91A54.754,54.754,0,0,0,175.04,81.967a53.969,53.969,0,0,0-.088-7.527c-.74,0-1.511,0-2.353-.025-.025.188-.025.35-.057.541" transform="translate(253 188.915)"/>
    <path id="Path_134" data-name="Path 134" d="M94.124,128.968c.432,1.486.771,3.036,1.377,4.583a39.887,39.887,0,0,0,2.311,4.82,42.4,42.4,0,0,0,12.173,11.706c.51.375,1.012.75,1.5,1.125.644.52,1.267.987,1.883,1.4.648.364,1.281.7,1.911,1.012,1.285.612,2.445,1.3,3.85,1.833,4.041,1.27,4.416,1.288,4.558.683a1.052,1.052,0,0,0,.3-.817c-.035-.916-1.04-2.229-3.747-3.762A50.989,50.989,0,0,1,103,132.5a46.956,46.956,0,0,1-2.75-6.228,2.546,2.546,0,0,1-1.1.633,2.588,2.588,0,0,1-1.274.028c-2.75-.825-2.24-3.489-2.176-5.563a19.593,19.593,0,0,0-.414-4.115,36.841,36.841,0,0,1,.849-12.12,40.982,40.982,0,0,1,1.292-6.89A21.078,21.078,0,0,1,99.2,94.558a55.077,55.077,0,0,1,3.036-9.2,44.111,44.111,0,0,1,9.494-13.942,15.059,15.059,0,0,1,4.179-3.935c1.168-1.433,2.137-2.987,3.277-4.607.092-.127.188-.248.276-.372a58.176,58.176,0,0,0-11.784,8.454,59.154,59.154,0,0,0-9.14,10.97c-.846,1.3-1.624,2.594-2.325,3.846-.244.478-.439.917-.665,1.384A55.479,55.479,0,0,0,90,104.647a7.943,7.943,0,0,0-.057,1.451c.039,1.525.276,3.762.566,5.98.531,2.661,1.1,5.248,1.458,6.61.057.223.113.421.159.577.039.209.071.4.11.609.343,1.833.669,3.528,1,5.131.29,1.338.577,2.654.885,3.963" transform="translate(228.309 158.66)"/>
    <path id="Path_135" data-name="Path 135" d="M109.443,65.38a40.066,40.066,0,0,1,13.309-1.96l-.258-1.2c-.071-.375-.113-.779-.166-1.171a2.409,2.409,0,0,0-.892-.173c-.58.046-.807.442-1.373.524-4.954.722-10.181.651-14.661,3.337a46.66,46.66,0,0,0-6.079,4.614c-.5.421-1.016.8-1.529,1.175.662-.35,1.249-.644,1.624-.842a45.341,45.341,0,0,1,10.025-4.3" transform="translate(248.263 154.539)"/>
    <path id="Path_136" data-name="Path 136" d="M138.938,67.177c-.28-.916-.563-1.815-.842-2.711l-.573-2.689a43.526,43.526,0,0,0-26.228,7.537c-.694.471-1.359.98-2.017,1.5a13.559,13.559,0,0,1-1.132,1.03c.205-.241.432-.439.651-.655-.821.672-1.6,1.38-2.36,2.12a11.476,11.476,0,0,0-2.166,6.2c-4.738,2.767-6.359,8.588-8.4,13.27a37.8,37.8,0,0,1-1.967,3.68,69.3,69.3,0,0,0-1.833,12.382,51.2,51.2,0,0,0,2.9,19.335,32.483,32.483,0,0,0,5.368-8.217c1.582-2.59,3.2-5.046,4.975-7.576a34.794,34.794,0,0,1,8.433-8.192,31.023,31.023,0,0,1,12.279-6.812,57.972,57.972,0,0,1,5.8-1.3,33.078,33.078,0,0,1,5.5.8,20.935,20.935,0,0,0,11.564-2.551,54.158,54.158,0,0,0,5.237-3.362,58.988,58.988,0,0,1-6.872-7.534c-1.387-1.907-2.558-3.7-3.56-5.389-.885-1.752-1.833-3.284-2.47-4.851-.195-.488-.393-.945-.591-1.412-1.872-.871-1.791-2.831-1.7-4.6" transform="translate(233.617 156.744)" fill="#ffdef2"/>
    <path id="Path_137" data-name="Path 137" d="M138.938,67.177c-.28-.916-.563-1.815-.842-2.711l-.573-2.689a43.526,43.526,0,0,0-26.228,7.537c-.694.471-1.359.98-2.017,1.5a13.559,13.559,0,0,1-1.132,1.03c.205-.241.432-.439.651-.655-.821.672-1.6,1.38-2.36,2.12a11.476,11.476,0,0,0-2.166,6.2c-4.738,2.767-6.359,8.588-8.4,13.27a37.8,37.8,0,0,1-1.967,3.68,69.3,69.3,0,0,0-1.833,12.382,51.2,51.2,0,0,0,2.9,19.335,32.483,32.483,0,0,0,5.368-8.217c1.582-2.59,3.2-5.046,4.975-7.576a34.794,34.794,0,0,1,8.433-8.192,31.023,31.023,0,0,1,12.279-6.812,57.972,57.972,0,0,1,5.8-1.3,33.078,33.078,0,0,1,5.5.8,20.935,20.935,0,0,0,11.564-2.551,54.158,54.158,0,0,0,5.237-3.362,58.988,58.988,0,0,1-6.872-7.534c-1.387-1.907-2.558-3.7-3.56-5.389-.885-1.752-1.833-3.284-2.47-4.851-.195-.488-.393-.945-.591-1.412-1.872-.871-1.791-2.831-1.7-4.6" transform="translate(233.617 156.744)" fill="#fff0f9"/>
    <path id="Path_138" data-name="Path 138" d="M92.419,82.132a36.943,36.943,0,0,0-.849,12.12,19.649,19.649,0,0,1,.414,4.119c-.064,2.074-.573,4.735,2.176,5.559a2.567,2.567,0,0,0,2.378-.658,51.349,51.349,0,0,1-2.9-19.339,69.944,69.944,0,0,1,1.833-12.378A20.822,20.822,0,0,0,93.7,75.246a40.624,40.624,0,0,0-1.277,6.886" transform="translate(232.035 181.652)"/>
    <path id="Path_139" data-name="Path 139" d="M92.419,82.132a36.943,36.943,0,0,0-.849,12.12,19.649,19.649,0,0,1,.414,4.119c-.064,2.074-.573,4.735,2.176,5.559a2.567,2.567,0,0,0,2.378-.658,51.349,51.349,0,0,1-2.9-19.339,69.944,69.944,0,0,1,1.833-12.378A20.822,20.822,0,0,0,93.7,75.246a40.624,40.624,0,0,0-1.277,6.886" transform="translate(232.035 181.652)" fill="#fff0f9"/>
    <path id="Path_140" data-name="Path 140" d="M99.71,64.588c.2-.219.379-.456.566-.683A14.962,14.962,0,0,0,96.1,67.84c.757-.74,1.525-1.447,2.357-2.12a15.249,15.249,0,0,1,1.256-1.132" transform="translate(243.955 162.231)"/>
    <path id="Path_141" data-name="Path 141" d="M99.71,64.588c.2-.219.379-.456.566-.683A14.962,14.962,0,0,0,96.1,67.84c.757-.74,1.525-1.447,2.357-2.12a15.249,15.249,0,0,1,1.256-1.132" transform="translate(243.955 162.231)" fill="#fff0f9"/>
    <path id="Path_142" data-name="Path 142" d="M111.713,63.563a45.151,45.151,0,0,0-10.025,4.3c-.375.2-.966.492-1.624.839-.81.573-1.614,1.139-2.392,1.752-.237.265-.513.51-.771.761.655-.52,1.32-1.03,2.013-1.5a43.56,43.56,0,0,1,26.228-7.541l-.12-.566a40.053,40.053,0,0,0-13.309,1.96" transform="translate(245.994 156.36)"/>
    <path id="Path_143" data-name="Path 143" d="M111.713,63.563a45.151,45.151,0,0,0-10.025,4.3c-.375.2-.966.492-1.624.839-.81.573-1.614,1.139-2.392,1.752-.237.265-.513.51-.771.761.655-.52,1.32-1.03,2.013-1.5a43.56,43.56,0,0,1,26.228-7.541l-.12-.566a40.053,40.053,0,0,0-13.309,1.96" transform="translate(245.994 156.36)" fill="#fff0f9"/>
    <path id="Path_144" data-name="Path 144" d="M170.97,29.543c-6.748,2.849-11.787,8.065-18.111,11.525A20.909,20.909,0,0,1,141.3,43.617a32.8,32.8,0,0,0-5.5-.793,56.992,56.992,0,0,0-5.8,1.292,31.072,31.072,0,0,0-12.279,6.812,35,35,0,0,0-8.433,8.2c-1.773,2.53-3.39,4.986-4.972,7.573a47.13,47.13,0,0,1-4.469,7.332,55.944,55.944,0,0,0,5.768,12.9c1.833,2.523,2.187,4.144,1.833,4.979.032.035.057.078.088.11.195.23.418.425.609.651.046.053.1.1.149.152-.11-.382-.237-.793-.336-1.171a14.93,14.93,0,0,1,3.305.917,49.089,49.089,0,0,0,8.985,7.873,62.886,62.886,0,0,0,7.534,4.006c.241-.3.446-.548.609-.74a29.725,29.725,0,0,1,4.717-4.278c1.723-1.207,3.447-2.343,5.067-3.542a54.833,54.833,0,0,1,18.67-8.5c.786-.793,1.529-1.61,2.3-2.335a30.86,30.86,0,0,0,5.081-5.156c1.564-2.314,3.376-4.629,4.809-7.024,3.829-6.345,7-12.955,10.662-19.37a43.038,43.038,0,0,0,4.275-10.333c.633-2.523.849-5.173,1.246-7.743.12-.757.163-1.723.265-2.672a67.066,67.066,0,0,0-4.115-5.846c-1.454.563-3.436.138-4.993.648-1.7.584-3.673,1.267-5.4,2" transform="translate(253.457 68.289)" fill="#ffdef2"/>
    <path id="Path_145" data-name="Path 145" d="M104.093,41.645c-.5.594-.945,1.147-1.352,1.67.725.612,1.476.9,1.3,1.985-.127.757-1.189,1.755-1.49,2.495-.435,1.065-.771,2.194-1.185,3.27-.333.86-.23,1.752-.517,2.6A20.574,20.574,0,0,0,99.7,56.351c-.35,1.706-.591,3.447-.825,5.191.948-2.307,2.42-4.3,3.418-6.6,2.038-4.685,3.666-10.5,8.4-13.27.41-8.008,7.76-10.956,9.795-12.046a45.518,45.518,0,0,1,10.021-4.292,39.035,39.035,0,0,1,13.624-1.957c2.141.241,3.924-.467,6.14-.1,2.318.389,4.653.715,6.982,1.076,3.97.609,8.047.994,11.964,1.829a25.472,25.472,0,0,1,10.453,6.458c2.07,1.783,8.733,6.663,4.742,9.452a2.733,2.733,0,0,1-.612.234,67.055,67.055,0,0,1,4.119,5.842,7.512,7.512,0,0,1,.676-2.682l.563.018c2.095-.5,2.095-.64,2.095-.782a47.641,47.641,0,0,1,7.8,15.128c.131.364.35.793.559,1.221.732-.474,1.476-.938,2.258-1.391a51.612,51.612,0,0,0-3.164-7.771,59.031,59.031,0,0,0-8.454-12.176c-1.681-1.9-3.337-3.489-4.862-4.919-1.642-1.3-3.033-2.608-4.512-3.588s-2.8-1.953-4.165-2.721l-4-2.18-4.13-1.776c-1.408-.587-2.937-.991-4.533-1.529s-3.383-.81-5.294-1.281c-1.929-.34-4.055-.612-6.412-.8a58.715,58.715,0,0,0-22.162,2.895,57.556,57.556,0,0,0-9.162,3.97,55.673,55.673,0,0,0-16.957,13.829Z" transform="translate(251.012 52.876)"/>
    <path id="Path_146" data-name="Path 146" d="M104.071,51.687a54.611,54.611,0,0,0,5.142,4.144c.18-1.182.354-2.367.534-3.549a75.976,75.976,0,0,1,7.827,5.633,27.039,27.039,0,0,0,2.958,2.013c.534-.757,1.026-1.43,1.423-1.932a63.434,63.434,0,0,1-7.534-4.006,49.323,49.323,0,0,1-8.985-7.873,14.85,14.85,0,0,0-3.3-.916c.1.379.226.789.333,1.171.379,1.4.764,2.817,1.221,4.292a10.435,10.435,0,0,0,.382,1.023" transform="translate(259.283 114.749)"/>
    <path id="Path_147" data-name="Path 147" d="M100.3,45.1c.867,1.621,1.759,3.206,2.583,4.756.375.743.736,1.426,1.125,2.059.439.609.881,1.168,1.32,1.72.913,1.072,1.681,2.194,2.75,3.259,3.142,2.838,3.478,3.011,3.857,2.519a1.02,1.02,0,0,0,.375-.241,1.052,1.052,0,0,0,.241-.372c.343-.835,0-2.442-1.837-4.979a55.953,55.953,0,0,1-5.772-12.9c-1.033,1.161-2.13,1.879-3.277,1.529a2.8,2.8,0,0,1-1.246-.669,2.728,2.728,0,0,1-.754-1.2,5.111,5.111,0,0,1-.92-.276c-.322-.138-.609-.258-.916-.364.028.064.057.127.085.195A52.834,52.834,0,0,0,100.3,45.1" transform="translate(248.357 101.406)"/>
    <path id="Path_148" data-name="Path 148" d="M148.341,60.068a33.112,33.112,0,0,0-5.5-.793,57.2,57.2,0,0,0-5.8,1.292,31.115,31.115,0,0,0-12.279,6.812,35,35,0,0,0-8.433,8.2c-1.769,2.53-3.39,4.986-4.972,7.576a45.448,45.448,0,0,1-4.54,7.417A42.807,42.807,0,0,0,120.471,110.8a41.8,41.8,0,0,0,21.2,8.857,62.344,62.344,0,0,0,22.1-1.256,52.085,52.085,0,0,0,11.26-4.176,62.7,62.7,0,0,0,8.988-15.517c.9-2.619,2.332-5.05,3.2-7.7a47.288,47.288,0,0,0,1.03-6.932,25.474,25.474,0,0,0,.021-7.863c-.2-1.267-.29-2.512-.609-3.776-.018-.064-.039-.127-.06-.191a48.761,48.761,0,0,1-8.691-4.3,29.709,29.709,0,0,1-4.851-4.13c-1.415-1.553-2.767-3.118-4.161-4.579a54.923,54.923,0,0,1-4.324-5.382,56.655,56.655,0,0,1-5.662,3.666,20.894,20.894,0,0,1-11.564,2.537" transform="translate(271.164 136.743)" fill="#ffdef2"/>
    <path id="Path_149" data-name="Path 149" d="M116.744,46.527a24.131,24.131,0,0,1,6.787-.357c2.137.244,3.921-.467,6.14-.1.191.035.379.06.57.088,0-.237-.021-.481-.025-.718-.733-.046-1.465-.1-2.2-.131a42.457,42.457,0,0,0-11.274,1.217" transform="translate(296.37 114.987)" fill="#ffdef2"/>
    <path id="Path_150" data-name="Path 150" d="M198.957,78.881a28.566,28.566,0,0,1-2.834,4.172,40.265,40.265,0,0,0-3.245,3.7,29.746,29.746,0,0,1-4.678,4.639c-1.607,1.327-3.125,2.693-4.71,4.041a28.111,28.111,0,0,1-3.97,2.746c-1.366.8-3.146,2.141-4.724,1.175.931-1.451,1.918-2.866,2.912-4.278a52.2,52.2,0,0,1-11.264,4.179,62.427,62.427,0,0,1-22.1,1.256,41.834,41.834,0,0,1-21.2-8.857,42.824,42.824,0,0,1-13.656-20.234c-1.016,1.111-2.105,1.791-3.21,1.461a3.474,3.474,0,0,1-.524-.234c.2.467.4.917.587,1.412.612,1.571,1.585,3.1,2.474,4.851,1,1.688,2.169,3.482,3.56,5.389a59.255,59.255,0,0,0,6.868,7.537,55.782,55.782,0,0,0,20.142,12.247,5.114,5.114,0,0,1-.064-1.09l-.517-.212c1.8-1.833,1.578-1.691,1.61-1.263a13.147,13.147,0,0,0,5.913.917,65.334,65.334,0,0,0,6.861-.265c1.992-.382,3.33-3.057,3.7.336a20.3,20.3,0,0,1,.223,4.943c.839.028,1.614.032,2.353.025a41.222,41.222,0,0,0,6.794-.527,37.054,37.054,0,0,0,7-2.537c2.813-1.447,5.531-2.93,6.465-3.535,3.358-1.663,6.072-3.054,8.79-4.579,1.306-.825,2.7-1.582,4.02-2.587a40.078,40.078,0,0,0,4-3.549c4.423-4.621,6.38-11.09,8.553-16.685.322-.764.609-1.486.828-2.194.177-.725.308-1.426.449-2.12.219-1.394.573-2.7.7-4.2.046-1.815.053-2.891,0-3.56a56.416,56.416,0,0,1-2.424,7.718,41.007,41.007,0,0,1-5.687,9.76" transform="translate(268.486 155.882)"/>
    <path id="Path_151" data-name="Path 151" d="M104.727,60.926c.053.389.092.8.166,1.171l.258,1.2.12.566.573,2.693c.283.9.563,1.8.846,2.707.014-.244.025-.485.032-.715a19.422,19.422,0,0,0-.41-4.123,16.888,16.888,0,0,1-.234-3.432,2.459,2.459,0,0,1-.527.092,2.192,2.192,0,0,1-.825-.159" transform="translate(265.863 154.669)"/>
    <path id="Path_152" data-name="Path 152" d="M157.286,46.017a10.388,10.388,0,0,1-3.086.205c-1.331-.117-2.463.244-3.769.117a33.989,33.989,0,0,0-3.638-.527,19.032,19.032,0,0,0-4.579,1.115c-1.009.272-3.086,1.224-4.055.955a11.118,11.118,0,0,0,5.127-3.362,54.833,54.833,0,0,0-18.67,8.5c-1.621,1.2-3.344,2.335-5.067,3.542a30.07,30.07,0,0,0-4.717,4.278c-.17.191-.379.442-.609.743-.4.5-.892,1.171-1.423,1.929.283.173.531.393.821.559a29.77,29.77,0,0,0,3.256.994c0,.711-1.851,2.5-2.3,3.248-.867,1.43-1.263,2.852-2.028,4.3a56.507,56.507,0,0,0-5.775,13.956,49.817,49.817,0,0,0-1.553,14.374c.227-1.691.524-3.4.793-5.142a40.7,40.7,0,0,1,1.292-6.89c.9-2.658,2.633-4.816,3.74-7.367,2.042-4.685,3.666-10.5,8.4-13.27.41-8.008,7.764-10.959,9.795-12.046a45.483,45.483,0,0,1,10.025-4.3c2.173-.57,4.494-1.185,6.837-1.6a42.419,42.419,0,0,1,11.271-1.221c.736.032,1.469.085,2.2.131,0-.354-.039-.743-.032-1.09-.021-1.557.035-3,.131-4.374a2.881,2.881,0,0,1-.757,1.861c-.962.824-.481.131-1.624.364" transform="translate(267.021 111.169)"/>
    <path id="Path_153" data-name="Path 153" d="M105.311,63.283c-.092,1.769-.177,3.73,1.684,4.611-.435-1.03-.867-2.031-1.193-3.033Z" transform="translate(267.247 160.652)" fill="#ffdef2"/>
    <path id="Path_154" data-name="Path 154" d="M105.311,63.283c-.092,1.769-.177,3.73,1.684,4.611-.435-1.03-.867-2.031-1.193-3.033Z" transform="translate(267.247 160.652)" fill="#fff0f9"/>
    <path id="Path_155" data-name="Path 155" d="M105.311,63.283c-.092,1.769-.177,3.73,1.684,4.611-.435-1.03-.867-2.031-1.193-3.033Z" transform="translate(267.247 160.652)" fill="#fff0f9"/>
    <path id="Path_156" data-name="Path 156" d="M150.451,45.685a24.124,24.124,0,0,0-6.787.357,46.025,46.025,0,0,0-14.583,6.416,51.5,51.5,0,0,0-9.947,8.9,53.951,53.951,0,0,0-7.445,11.656,58.462,58.462,0,0,0-4.65,14.551,48.667,48.667,0,0,0-.41,16.189,46.548,46.548,0,0,0,1.893,8.082,45.471,45.471,0,0,0,4.544-7.417c1.582-2.59,3.2-5.046,4.972-7.576a35,35,0,0,1,8.433-8.2,31.023,31.023,0,0,1,12.279-6.812,56.992,56.992,0,0,1,5.8-1.292,33.166,33.166,0,0,1,5.5.793,20.908,20.908,0,0,0,11.564-2.548,56.841,56.841,0,0,0,5.662-3.666A54.906,54.906,0,0,1,160.2,61.687a52.962,52.962,0,0,1-3.054-15.995c-.191-.032-.379-.057-.57-.088-2.2-.386-3.974.326-6.122.081" transform="translate(269.45 115.475)" fill="#ffdef2"/>
    <path id="Path_157" data-name="Path 157" d="M150.451,45.685a24.124,24.124,0,0,0-6.787.357,46.025,46.025,0,0,0-14.583,6.416,51.5,51.5,0,0,0-9.947,8.9,53.951,53.951,0,0,0-7.445,11.656,58.462,58.462,0,0,0-4.65,14.551,48.667,48.667,0,0,0-.41,16.189,46.548,46.548,0,0,0,1.893,8.082,45.471,45.471,0,0,0,4.544-7.417c1.582-2.59,3.2-5.046,4.972-7.576a35,35,0,0,1,8.433-8.2,31.023,31.023,0,0,1,12.279-6.812,56.992,56.992,0,0,1,5.8-1.292,33.166,33.166,0,0,1,5.5.793,20.908,20.908,0,0,0,11.564-2.548,56.841,56.841,0,0,0,5.662-3.666A54.906,54.906,0,0,1,160.2,61.687a52.962,52.962,0,0,1-3.054-15.995c-.191-.032-.379-.057-.57-.088-2.2-.386-3.974.326-6.122.081" transform="translate(269.45 115.475)" fill="#fff0f9"/>
    <path id="Path_158" data-name="Path 158" d="M109.252,103.356a48.575,48.575,0,0,1,.41-16.189,58.389,58.389,0,0,1,4.65-14.547,53.974,53.974,0,0,1,7.445-11.66,51.621,51.621,0,0,1,9.947-8.9,46.105,46.105,0,0,1,14.583-6.416c-2.339.41-4.66,1.026-6.837,1.6a45.306,45.306,0,0,0-10.025,4.292c-2.031,1.09-9.384,4.041-9.795,12.046-4.742,2.767-6.359,8.585-8.4,13.27-1.108,2.551-2.842,4.71-3.74,7.367a41.091,41.091,0,0,0-1.292,6.893c-.269,1.737-.566,3.447-.793,5.138.032.347,0,.711.06,1.047.163,1.185.708,2.183-.35,2.5a17.184,17.184,0,0,0,.234,3.432,19.411,19.411,0,0,1,.41,4.119c0,.234-.018.474-.032.718l.5,1.578c.322,1,.754,2,1.189,3.033a3.677,3.677,0,0,0,.527.234c1.1.329,2.19-.347,3.206-1.461a46.344,46.344,0,0,1-1.893-8.093" transform="translate(266.827 115.873)"/>
    <path id="Path_159" data-name="Path 159" d="M109.252,103.356a48.575,48.575,0,0,1,.41-16.189,58.389,58.389,0,0,1,4.65-14.547,53.974,53.974,0,0,1,7.445-11.66,51.621,51.621,0,0,1,9.947-8.9,46.105,46.105,0,0,1,14.583-6.416c-2.339.41-4.66,1.026-6.837,1.6a45.306,45.306,0,0,0-10.025,4.292c-2.031,1.09-9.384,4.041-9.795,12.046-4.742,2.767-6.359,8.585-8.4,13.27-1.108,2.551-2.842,4.71-3.74,7.367a41.091,41.091,0,0,0-1.292,6.893c-.269,1.737-.566,3.447-.793,5.138.032.347,0,.711.06,1.047.163,1.185.708,2.183-.35,2.5a17.184,17.184,0,0,0,.234,3.432,19.411,19.411,0,0,1,.41,4.119c0,.234-.018.474-.032.718l.5,1.578c.322,1,.754,2,1.189,3.033a3.677,3.677,0,0,0,.527.234c1.1.329,2.19-.347,3.206-1.461a46.344,46.344,0,0,1-1.893-8.093" transform="translate(266.827 115.873)" fill="#fff0f9"/>
    <path id="Path_160" data-name="Path 160" d="M170.416,28.878A44.525,44.525,0,0,0,138.8,22.254a41.77,41.77,0,0,0-20.517,10.329,62.453,62.453,0,0,0-13.44,17.6,50.269,50.269,0,0,0-5.517,25.588A45.992,45.992,0,0,0,101.3,87.375a47.1,47.1,0,0,0,4.469-7.329c1.582-2.59,3.2-5.046,4.972-7.576a35,35,0,0,1,8.433-8.2,31.072,31.072,0,0,1,12.279-6.812,56.993,56.993,0,0,1,5.8-1.292,33.167,33.167,0,0,1,5.5.793,20.9,20.9,0,0,0,11.564-2.548c6.324-3.461,11.363-8.673,18.111-11.525,1.727-.725,3.7-1.412,5.407-1.967,1.557-.513,3.539-.088,4.99-.648-.134-.18-.262-.357-.4-.538a48.718,48.718,0,0,0-12.01-10.86" transform="translate(251.983 54.963)" fill="#ffdef2"/>
    <path id="Path_161" data-name="Path 161" d="M170.416,28.878A44.525,44.525,0,0,0,138.8,22.254a41.77,41.77,0,0,0-20.517,10.329,62.453,62.453,0,0,0-13.44,17.6,50.269,50.269,0,0,0-5.517,25.588A45.992,45.992,0,0,0,101.3,87.375a47.1,47.1,0,0,0,4.469-7.329c1.582-2.59,3.2-5.046,4.972-7.576a35,35,0,0,1,8.433-8.2,31.072,31.072,0,0,1,12.279-6.812,56.993,56.993,0,0,1,5.8-1.292,33.167,33.167,0,0,1,5.5.793,20.9,20.9,0,0,0,11.564-2.548c6.324-3.461,11.363-8.673,18.111-11.525,1.727-.725,3.7-1.412,5.407-1.967,1.557-.513,3.539-.088,4.99-.648-.134-.18-.262-.357-.4-.538a48.718,48.718,0,0,0-12.01-10.86" transform="translate(251.983 54.963)" fill="#fff0f9"/>
    <path id="Path_162" data-name="Path 162" d="M99.132,67.073c-.205,1.833.138,3.666-.124,5.5a25.434,25.434,0,0,0,2.926,15.881,9.887,9.887,0,0,0-3.585-.977,2.789,2.789,0,0,0,.757,1.2,2.727,2.727,0,0,0,1.246.669c1.129.34,2.247-.379,3.28-1.525a46.013,46.013,0,0,1-1.971-11.607,50.25,50.25,0,0,1,5.513-25.591,62.386,62.386,0,0,1,13.44-17.594,41.776,41.776,0,0,1,20.517-10.333A44.527,44.527,0,0,1,172.75,29.32a48.64,48.64,0,0,1,12,10.825c.142.177.265.357.4.534a2.742,2.742,0,0,0,.612-.237c3.992-2.788-2.672-7.665-4.742-9.448a25.458,25.458,0,0,0-10.453-6.49c-3.917-.824-8.008-1.221-11.968-1.833-2.325-.361-4.66-.683-6.978-1.076-2.219-.368-3.988.34-6.14.1a39.115,39.115,0,0,0-13.624,1.953,45.384,45.384,0,0,0-10.021,4.3c-2.035,1.086-9.384,4.038-9.8,12.046-4.742,2.767-6.363,8.585-8.4,13.27-1,2.3-2.47,4.292-3.418,6.6-.12.917-.241,1.833-.379,2.721-.237,1.5-.559,3-.711,4.494" transform="translate(249.675 54.546)"/>
    <path id="Path_163" data-name="Path 163" d="M99.132,67.073c-.205,1.833.138,3.666-.124,5.5a25.434,25.434,0,0,0,2.926,15.881,9.887,9.887,0,0,0-3.585-.977,2.789,2.789,0,0,0,.757,1.2,2.727,2.727,0,0,0,1.246.669c1.129.34,2.247-.379,3.28-1.525a46.013,46.013,0,0,1-1.971-11.607,50.25,50.25,0,0,1,5.513-25.591,62.386,62.386,0,0,1,13.44-17.594,41.776,41.776,0,0,1,20.517-10.333A44.527,44.527,0,0,1,172.75,29.32a48.64,48.64,0,0,1,12,10.825c.142.177.265.357.4.534a2.742,2.742,0,0,0,.612-.237c3.992-2.788-2.672-7.665-4.742-9.448a25.458,25.458,0,0,0-10.453-6.49c-3.917-.824-8.008-1.221-11.968-1.833-2.325-.361-4.66-.683-6.978-1.076-2.219-.368-3.988.34-6.14.1a39.115,39.115,0,0,0-13.624,1.953,45.384,45.384,0,0,0-10.021,4.3c-2.035,1.086-9.384,4.038-9.8,12.046-4.742,2.767-6.363,8.585-8.4,13.27-1,2.3-2.47,4.292-3.418,6.6-.12.917-.241,1.833-.379,2.721-.237,1.5-.559,3-.711,4.494" transform="translate(249.675 54.546)" fill="#fff0f9"/>
    <path id="Path_164" data-name="Path 164" d="M195.409,38.487c-6.752,2.849-11.787,8.061-18.114,11.522a20.966,20.966,0,0,1-11.564,2.551,32.713,32.713,0,0,0-5.5-.8,56.078,56.078,0,0,0-5.8,1.3,30.98,30.98,0,0,0-12.279,6.812,34.841,34.841,0,0,0-8.429,8.192c-1.773,2.53-3.394,4.986-4.979,7.576a30.257,30.257,0,0,1-5.559,8.348,46.14,46.14,0,0,0,7.994,13.036,51.327,51.327,0,0,0,10.1,8.726,53.786,53.786,0,0,0,12.523,5.892,58.041,58.041,0,0,0,15.021,2.75,48.585,48.585,0,0,0,16.1-1.66,44.531,44.531,0,0,0,26.1-19.045,41.781,41.781,0,0,0,6.065-22.155,62.281,62.281,0,0,0-4.069-21.756,51.535,51.535,0,0,0-7.817-13.67,36.324,36.324,0,0,0-4.377.4c-1.723.563-3.694,1.249-5.418,1.978" transform="translate(312.722 91.66)" fill="#ffdef2"/>
    <path id="Path_165" data-name="Path 165" d="M136.473,31.324c.474-.05.963-.081,1.451-.113a2.151,2.151,0,0,1-.793-.81h-.138c-.372,0-.736.032-1.1.032.354.177.743.357,1.093.538-.166.12-.343.23-.51.354" transform="translate(344.972 77.174)" fill="#ffdef2"/>
    <path id="Path_166" data-name="Path 166" d="M133.876,38.215a11.747,11.747,0,0,1,.679-3.305,44.823,44.823,0,0,0-9,13.376,55.6,55.6,0,0,0-2.413,6.476c-.131.63-.283,1.249-.432,1.868.892-1.727,1.978-3.34,2.764-5.145,2.038-4.685,3.655-10.5,8.4-13.27" transform="translate(311.528 88.624)" fill="#ffdef2"/>
    <path id="Path_167" data-name="Path 167" d="M144.907,40.723c-.665,1.026-2.735,1.387-3.666,2.279a16.211,16.211,0,0,0-1.338,1.872c-.556.7-1.313.881-1.886,1.447-.439.439-.612,1.076-1.04,1.529-.474.5-1.076.548-1.557,1.047a51.462,51.462,0,0,0-6.631,10.382,71.593,71.593,0,0,0-8.008,19.579c-.042.188-.074.389-.1.591-.1,1.377-.156,2.817-.134,4.374,0,.347.032.736.035,1.09,0,.237.018.481.025.722a52.963,52.963,0,0,0,3.054,15.995,57.578,57.578,0,0,0,11.405,18.854c1.394,1.454,2.749,3.018,4.161,4.583a29.66,29.66,0,0,0,4.851,4.126,49.166,49.166,0,0,0,8.694,4.3,5.02,5.02,0,0,1-.467-3.008c2.566,1.263,2.573,1.454,2.583,1.642A25.951,25.951,0,0,0,162.4,133.4c1.38.212,2.781.524,4.169.658.916.088,3.2-.729,3.882-.074.421.4.34,1.631.12,2.969.8.028,1.468.042,1.907.064,2.537.025,4.827-.145,6.907-.3,2.067-.354,3.97-.51,5.687-.952s3.326-.768,4.813-1.27l4.3-1.511,4.084-1.875c1.384-.655,2.707-1.529,4.183-2.339s2.873-1.964,4.5-3.054c1.543-1.221,3.174-2.6,4.887-4.222a58.693,58.693,0,0,0,12.69-18.394,60.574,60.574,0,0,0,4.657-18.146,55.835,55.835,0,0,0-1.78-19.8,37.183,37.183,0,0,0-3.411-6.621c-1.8-2.6-3.62-5.11-4.335-5.959-2.077-3.11-3.815-5.634-5.669-8.132-.987-1.193-1.914-2.481-3.082-3.662a39.988,39.988,0,0,0-4.027-3.514c-5.149-3.8-11.816-4.912-17.644-6.355-.8-.223-1.55-.41-2.282-.545-.74-.078-1.454-.134-2.159-.173-1.412-.042-2.75-.219-4.257-.152-4.211.435-4.565.57-4.452,1.182a.977.977,0,0,0-.078.439,1.035,1.035,0,0,0,.117.432,2.108,2.108,0,0,0,.789.807,9,9,0,0,1,2.091.074c2.321.389,4.653.711,6.982,1.072,3.97.612,8.043,1,11.968,1.833a25.424,25.424,0,0,1,10.45,6.486c2.074,1.783,8.733,6.66,4.742,9.448a3.115,3.115,0,0,1-1.221.478,51.725,51.725,0,0,1,7.817,13.67A62.36,62.36,0,0,1,223.8,87.716a41.781,41.781,0,0,1-6.065,22.155,44.542,44.542,0,0,1-26.1,19.045,48.6,48.6,0,0,1-16.1,1.66,58.014,58.014,0,0,1-15.021-2.75,53.85,53.85,0,0,1-12.523-5.888,51.483,51.483,0,0,1-10.1-8.73,46.221,46.221,0,0,1-7.994-13.036,2.473,2.473,0,0,1-2.183.531c-2.75-.825-2.24-3.493-2.176-5.563a19.16,19.16,0,0,0-.414-4.119,36.826,36.826,0,0,1,.849-12.116,41.09,41.09,0,0,1,1.292-6.893,15.931,15.931,0,0,1,.98-2.222c.149-.612.3-1.242.428-1.868a56.253,56.253,0,0,1,2.413-6.476,44.957,44.957,0,0,1,9-13.376,16.643,16.643,0,0,1,9.123-8.74,45.445,45.445,0,0,1,10.021-4.292,39.024,39.024,0,0,1,13.62-1.953,12.061,12.061,0,0,0,2.6-.057c.166-.127.343-.234.51-.368-.347-.18-.74-.361-1.093-.538-1.3-.655-2.6-1.316-4.006-1.967a8.765,8.765,0,0,0-1.023-.4,56.3,56.3,0,0,0-22.944,7.36c-.782.453-1.525.917-2.258,1.391a2.293,2.293,0,0,1,.276,2.222" transform="translate(306.004 75.524)"/>
    <path id="Path_168" data-name="Path 168" d="M168.642,32.205a45.6,45.6,0,0,0-24.172,6.55,43.063,43.063,0,0,0-8.808,7.028,11.715,11.715,0,0,0-.676,3.305c-4.742,2.767-6.359,8.585-8.4,13.27-.786,1.8-1.872,3.418-2.764,5.145a33.086,33.086,0,0,0-.955,4.912,54.77,54.77,0,0,0-.283,13.843,42.4,42.4,0,0,0,2.895,11.628,30.143,30.143,0,0,0,5.559-8.351c1.585-2.59,3.206-5.046,4.979-7.573a34.84,34.84,0,0,1,8.429-8.192,30.98,30.98,0,0,1,12.279-6.812,56.07,56.07,0,0,1,5.8-1.3,33.071,33.071,0,0,1,5.5.793,20.932,20.932,0,0,0,11.564-2.548c6.327-3.461,11.363-8.673,18.114-11.522,1.723-.729,3.694-1.415,5.407-1.975A36.926,36.926,0,0,1,207.489,50a47.959,47.959,0,0,0-7.5-7.562,50.988,50.988,0,0,0-23.38-10.655,9.769,9.769,0,0,1-4.14-1.161c-.488.028-.973.064-1.451.113a15.336,15.336,0,0,1-2.378,1.465" transform="translate(310.418 77.751)" fill="#ffdef2"/>
    <path id="Path_169" data-name="Path 169" d="M168.642,32.205a45.6,45.6,0,0,0-24.172,6.55,43.063,43.063,0,0,0-8.808,7.028,11.715,11.715,0,0,0-.676,3.305c-4.742,2.767-6.359,8.585-8.4,13.27-.786,1.8-1.872,3.418-2.764,5.145a33.086,33.086,0,0,0-.955,4.912,54.77,54.77,0,0,0-.283,13.843,42.4,42.4,0,0,0,2.895,11.628,30.143,30.143,0,0,0,5.559-8.351c1.585-2.59,3.206-5.046,4.979-7.573a34.84,34.84,0,0,1,8.429-8.192,30.98,30.98,0,0,1,12.279-6.812,56.07,56.07,0,0,1,5.8-1.3,33.071,33.071,0,0,1,5.5.793,20.932,20.932,0,0,0,11.564-2.548c6.327-3.461,11.363-8.673,18.114-11.522,1.723-.729,3.694-1.415,5.407-1.975A36.926,36.926,0,0,1,207.489,50a47.959,47.959,0,0,0-7.5-7.562,50.988,50.988,0,0,0-23.38-10.655,9.769,9.769,0,0,1-4.14-1.161c-.488.028-.973.064-1.451.113a15.336,15.336,0,0,1-2.378,1.465" transform="translate(310.418 77.751)" fill="#fff0f9"/>
    <path id="Path_170" data-name="Path 170" d="M163.979,42.471a47.636,47.636,0,0,1,7.495,7.562,3.1,3.1,0,0,0,1.224-.474c3.992-2.792-2.672-7.668-4.745-9.452a25.378,25.378,0,0,0-10.45-6.486c-3.921-.828-8.008-1.221-11.964-1.833-2.328-.357-4.664-.683-6.985-1.072a9.157,9.157,0,0,0-2.088-.071,9.754,9.754,0,0,0,4.14,1.161,50.963,50.963,0,0,1,23.373,10.665" transform="translate(346.437 77.722)"/>
    <path id="Path_171" data-name="Path 171" d="M163.979,42.471a47.636,47.636,0,0,1,7.495,7.562,3.1,3.1,0,0,0,1.224-.474c3.992-2.792-2.672-7.668-4.745-9.452a25.378,25.378,0,0,0-10.45-6.486c-3.921-.828-8.008-1.221-11.964-1.833-2.328-.357-4.664-.683-6.985-1.072a9.157,9.157,0,0,0-2.088-.071,9.754,9.754,0,0,0,4.14,1.161,50.963,50.963,0,0,1,23.373,10.665" transform="translate(346.437 77.722)" fill="#fff0f9"/>
    <path id="Path_172" data-name="Path 172" d="M134.865,38.68a45.578,45.578,0,0,1,24.172-6.554,15.256,15.256,0,0,0,2.385-1.469,12.03,12.03,0,0,1-2.6.06,39.029,39.029,0,0,0-13.624,1.95,45.529,45.529,0,0,0-10.021,4.3,16.63,16.63,0,0,0-9.119,8.737,42.915,42.915,0,0,1,8.8-7.021" transform="translate(320.023 77.829)"/>
    <path id="Path_173" data-name="Path 173" d="M134.865,38.68a45.578,45.578,0,0,1,24.172-6.554,15.256,15.256,0,0,0,2.385-1.469,12.03,12.03,0,0,1-2.6.06,39.029,39.029,0,0,0-13.624,1.95,45.529,45.529,0,0,0-10.021,4.3,16.63,16.63,0,0,0-9.119,8.737,42.915,42.915,0,0,1,8.8-7.021" transform="translate(320.023 77.829)" fill="#fff0f9"/>
    <path id="Path_174" data-name="Path 174" d="M123.837,59.81a54.6,54.6,0,0,1,.28-13.843,33.221,33.221,0,0,1,.955-4.915,15.963,15.963,0,0,0-.977,2.226,40.35,40.35,0,0,0-1.292,6.89,36.826,36.826,0,0,0-.849,12.116,19.418,19.418,0,0,1,.41,4.123c-.064,2.07-.573,4.735,2.18,5.559a2.445,2.445,0,0,0,2.183-.531,42.273,42.273,0,0,1-2.891-11.624" transform="translate(309.171 104.216)"/>
    <path id="Path_175" data-name="Path 175" d="M123.837,59.81a54.6,54.6,0,0,1,.28-13.843,33.221,33.221,0,0,1,.955-4.915,15.963,15.963,0,0,0-.977,2.226,40.35,40.35,0,0,0-1.292,6.89,36.826,36.826,0,0,0-.849,12.116,19.418,19.418,0,0,1,.41,4.123c-.064,2.07-.573,4.735,2.18,5.559a2.445,2.445,0,0,0,2.183-.531,42.273,42.273,0,0,1-2.891-11.624" transform="translate(309.171 104.216)" fill="#fff0f9"/>
    <path id="Path_176" data-name="Path 176" d="M158.425,61.709c-.679-.655-2.976.166-3.878.078-1.391-.134-2.788-.446-4.169-.662a25.834,25.834,0,0,1-7.516-1.274c0-.188-.018-.379-2.583-1.642a5.074,5.074,0,0,0,.467,3.008c.018.064.042.127.06.191.3,1.263.4,2.509.609,3.776a25.473,25.473,0,0,1-.021,7.863,47.278,47.278,0,0,1-1.033,6.932c-.863,2.647-2.3,5.078-3.2,7.7a62.812,62.812,0,0,1-8.988,15.517c-.991,1.408-1.978,2.824-2.909,4.275,1.578.98,3.358-.372,4.724-1.175a28.112,28.112,0,0,0,3.97-2.746c1.582-1.348,3.1-2.714,4.71-4.038a29.767,29.767,0,0,0,4.678-4.643,40.224,40.224,0,0,1,3.241-3.7,28.026,28.026,0,0,0,2.834-4.172,40.751,40.751,0,0,0,5.687-9.756,55.941,55.941,0,0,0,2.428-7.718c.053-.265.124-.52.166-.793.117-.754.577-2.477.839-4.045.23-1.341.3-2.569-.12-2.972" transform="translate(318.01 147.771)"/>
    <path id="Path_177" data-name="Path 177" d="M125.991,87.589a73.323,73.323,0,0,1-1.32,8.949c-.379,2.442-.612,4.961-1.1,7.378a83.161,83.161,0,0,1-5.687,14.466,52.114,52.114,0,0,1-4.413,7.208c-.3.492-1.129,1.617-1.663,2.612a2.872,2.872,0,0,0-.474,1.451c.308,2.031,4.3-.764,5.195-1.4A56.688,56.688,0,0,0,130.5,113.52c1.791-2.75,3.864-5.276,5.556-8.086a46.653,46.653,0,0,0,2.633-5.832,38.32,38.32,0,0,0,1.118-4.388q.706-1.635,1.249-3.333c.287-1.461.442-2.972.669-4.445.4-2.573.786-5.149,1.189-7.718.032-.195.032-.357.053-.534a20.282,20.282,0,0,0-.223-4.943c-.368-3.39-1.706-.722-3.7-.34a65.335,65.335,0,0,1-6.861.265,13.1,13.1,0,0,1-5.913-.917c-.032-.428.195-.563-1.61,1.267l.517.212a5.065,5.065,0,0,0,.064,1.086c.184,1.2.672,2.519.779,3.666a69.622,69.622,0,0,1-.025,8.107" transform="translate(282.626 184.16)"/>
    <path id="Path_178" data-name="Path 178" d="M81.818,89.6c.556-.021,1.115.357,1.677.333a6.661,6.661,0,0,0,1.2-.372c1-.156,2-.347,2.951-.4a3.288,3.288,0,0,1,.98.18c.945.258,2.134.676,2.612.3a.232.232,0,0,1,.035-.06c.5-.51.457-2.445.556-3.118l.071-.446q.913-6.067,1.875-12.134L95.686,61.47c.251-1.649.527-3.294.761-4.947a8.274,8.274,0,0,1,.3-1.582c.134-.4.86-.478.86-.963,0-.357-.4-.7-.892-1.016-.672-.428-1.525-.807-1.932-1.1a31.392,31.392,0,0,1-3.27-3.054,26.929,26.929,0,0,1-2.424-2.926c-.658-.871-1.858-2.619-4.062.226-.134.17-.276.375-.41.58s-.219.28-.336.471c.113.8.7,1.306.881,2.137.184.878.06,1.893.212,2.792a34.212,34.212,0,0,1,.3,8.266c-.241,2.831-.913,5.7-1.348,8.514a31.387,31.387,0,0,1-1.023,5.779c-.471,1.32-1.246,2.505-1.755,3.8a9.683,9.683,0,0,1-.892,2.194A7.714,7.714,0,0,0,79.483,82.5a20.224,20.224,0,0,1-1.228,3.91c-.541.98-1.345,1.953-2,2.909-.449.662-1.154,1.415-1.7,2.137a4.9,4.9,0,0,0-.58.934,3.392,3.392,0,0,0,3.878-.584,21.025,21.025,0,0,1,2.247-1.66,3.652,3.652,0,0,1,1.713-.549" transform="translate(187.808 113.094)"/>
    <path id="Path_179" data-name="Path 179" d="M146.758,41.456a42.9,42.9,0,0,1-4.278,10.333c-3.662,6.416-6.83,13.026-10.658,19.371-1.433,2.381-3.245,4.7-4.809,7.024a30.861,30.861,0,0,1-5.082,5.156c-.764.725-1.525,1.543-2.3,2.335a11.084,11.084,0,0,1-5.127,3.358c.97.269,3.054-.679,4.055-.952a19.033,19.033,0,0,1,4.579-1.115,35.031,35.031,0,0,1,3.638.524c1.306.131,2.445-.23,3.769-.113a10.39,10.39,0,0,0,3.086-.205c1.143-.234.662.46,1.617-.368A2.852,2.852,0,0,0,136,84.942c.028-.2.06-.4.1-.591a71.593,71.593,0,0,1,8.008-19.579,51.369,51.369,0,0,1,6.631-10.382c.485-.5,1.083-.552,1.561-1.051.425-.439.609-1.076,1.037-1.525.573-.57,1.331-.75,1.886-1.447a16.23,16.23,0,0,1,1.341-1.872c.931-.892,3-1.253,3.662-2.279.421-.648.1-1.49-.276-2.275-.209-.442-.428-.867-.559-1.224a47.716,47.716,0,0,0-7.8-15.128c0,.142,0,.283-2.095.782l-.563-.018a7.512,7.512,0,0,0-.676,2.686c-.106.948-.149,1.914-.269,2.672-.386,2.555-.6,5.212-1.235,7.746" transform="translate(290.674 70.036)"/>
    <path id="Path_180" data-name="Path 180" d="M98.487,64.1a15.246,15.246,0,0,0-1.256,1.132c-.216.219-.446.414-.651.655a13.608,13.608,0,0,0,1.136-1.03c.258-.251.538-.5.771-.757" transform="translate(245.181 162.721)"/>
    <path id="Path_181" data-name="Path 181" d="M130.313,52.838a75.972,75.972,0,0,0-7.827-5.633c-.18,1.182-.354,2.367-.534,3.549-.152,1.016-.308,2.028-.457,3.054a86.6,86.6,0,0,1-2.87,10.825,118.724,118.724,0,0,1-5.8,14.855c-1.946,4.441-3.857,8.924-5.863,13.309a51.258,51.258,0,0,1-5.722,8.532c-.088.127-.184.248-.276.375-1.136,1.617-2.109,3.174-3.277,4.6-.188.23-.364.467-.566.686.778-.612,1.582-1.178,2.392-1.755.517-.368,1.033-.75,1.529-1.171a47,47,0,0,1,6.086-4.607c4.473-2.686,9.7-2.615,14.661-3.333.566-.085.793-.481,1.373-.527a2.409,2.409,0,0,1,.892.173,2.192,2.192,0,0,0,.825.159,2.459,2.459,0,0,0,.527-.092c1.058-.3.513-1.309.35-2.495-.05-.34-.028-.7-.06-1.047a49.817,49.817,0,0,1,1.553-14.374,56.509,56.509,0,0,1,5.775-13.956c.768-1.451,1.161-2.873,2.028-4.3.456-.747,2.318-2.537,2.3-3.245a30.588,30.588,0,0,1-3.256-1c-.29-.163-.538-.386-.821-.559a27.182,27.182,0,0,1-2.962-2.024" transform="translate(246.544 119.836)"/>
    <path id="Path_182" data-name="Path 182" d="M69.124,41.26a4.714,4.714,0,0,0-2.558,1.2,9.243,9.243,0,0,0,2.558-1.2" transform="translate(168.987 104.744)"/>
    <path id="Path_183" data-name="Path 183" d="M72.127,31.568c0,.276-.057.538-.078.814a2.631,2.631,0,0,0,.078-.814" transform="translate(182.906 80.14)"/>
    <path id="Path_184" data-name="Path 184" d="M94.558,68.858c-1.684-3.836-4.483-7.187-6.079-11.076a44.213,44.213,0,0,1-3.638-9.027c-.552-3.054-.8-6.069-1.242-9.038a32.483,32.483,0,0,1,.534-7.919c-.081.166-.258.226-.687.067-.226,1.762-1.108,3.164-1.447,4.862-.085.425-.195.824-.308,1.224-.18.8-.375,1.61-.591,2.4s-.456,1.628-.7,2.445a58.424,58.424,0,0,1-4.915,10.793,47.532,47.532,0,0,1-5.761,9.593,12.284,12.284,0,0,1-2.445,2.084c1.437-.205,2.919.163,4.519.11,1.26-.042,2.576-.435,3.825-.559a16.413,16.413,0,0,1,4.023.488c1.221.188,2.445.389,3.666.566a17.583,17.583,0,0,1,3.549,1.26c1.242.421,2.75.127,4,.548a8.613,8.613,0,0,1,1.43.7,3.073,3.073,0,0,0,2.265.481" transform="translate(170.804 80.723)"/>
    <path id="Path_185" data-name="Path 185" d="M97.821,24.6l.067-.435Z" transform="translate(248.332 61.338)"/>
    <path id="Path_186" data-name="Path 186" d="M127.789,34.291a27.885,27.885,0,0,1-2.527-3.464c-1.787-2.569-2.137-5.825-4.774-6.543l-.074.481Q119.7,29.346,119,33.927a76.819,76.819,0,0,1-3.5,13.029c-.687,2.013-2.006,3.747-2.721,5.761a12.213,12.213,0,0,1-2.382,4.406,64.026,64.026,0,0,0-4.848,7.767,59.831,59.831,0,0,1-8.2,10.627,14.247,14.247,0,0,1-3.153,2.19c-.425.234-.842.481-1.267.7a12.3,12.3,0,0,0-2.208,1c-.612.449-1.224.9-1.833,1.331A30.991,30.991,0,0,1,93.3,79.3c1.394-.3,2.771-.527,4.179-.793a37.8,37.8,0,0,1,5.8-.917,31.244,31.244,0,0,1,5.524.7,1.516,1.516,0,0,1,.262.057,18.758,18.758,0,0,0,4.381.694,1.075,1.075,0,0,0,.418-.11,2.34,2.34,0,0,1,.945-.428,11.831,11.831,0,0,1,2.555.428,15.329,15.329,0,0,1,3.149.793c.29.106.587.226.916.364a5.161,5.161,0,0,0,.916.276,9.887,9.887,0,0,1,3.585.977A25.434,25.434,0,0,1,123,65.452c.262-1.833-.081-3.666.124-5.5.166-1.5.488-2.994.718-4.483.134-.9.255-1.812.379-2.721.234-1.737.471-3.478.825-5.191a21.047,21.047,0,0,1,1.143-2.682c.29-.853.188-1.748.517-2.6.418-1.076.754-2.208,1.185-3.273.308-.74,1.366-1.734,1.49-2.491.18-1.086-.573-1.38-1.3-1.985a3.217,3.217,0,0,1-.3-.23" transform="translate(225.664 61.648)"/>
    <path id="Path_187" data-name="Path 187" d="M25.023,63.654c1.263.757,2.534,1.6,3.776,2.523,3.457-1.953.863-2.353-3.776-2.523" transform="translate(63.524 161.594)" fill="#fff0f9"/>
    <path id="Path_188" data-name="Path 188" d="M20.579,63.373a46.048,46.048,0,0,0-9.048,3.91,10.373,10.373,0,0,0-2.017,3.333c.648-.531,1.253-1.093,1.929-1.61a60.56,60.56,0,0,1,9.137-5.633" transform="translate(24.153 160.881)" fill="#fff0f9"/>
    <path id="Path_189" data-name="Path 189" d="M25.479,156.67c5.984-12.488,4.43-33.981,11.3-47.577A88.524,88.524,0,0,1,72.2,70.621c.255-.092.467-.177.711-.269a39.234,39.234,0,0,0-9.873-5.1A37.914,37.914,0,0,0,46.389,63.71,47.826,47.826,0,0,0,20.143,76.283a11.887,11.887,0,0,1-3.054,4.943A39.884,39.884,0,0,0,7.864,94.62a54.477,54.477,0,0,0-2.254,7.431,58.644,58.644,0,0,0-.053,23.394,63.689,63.689,0,0,0,10.538,26.062,52.14,52.14,0,0,0,6.062,7.477,3.416,3.416,0,0,0,3.323-2.314" transform="translate(11.181 160.929)" fill="#ffdef2"/>
    <path id="Path_190" data-name="Path 190" d="M25.479,156.67c5.984-12.488,4.43-33.981,11.3-47.577A88.524,88.524,0,0,1,72.2,70.621c.255-.092.467-.177.711-.269a39.234,39.234,0,0,0-9.873-5.1A37.914,37.914,0,0,0,46.389,63.71,47.826,47.826,0,0,0,20.143,76.283a11.887,11.887,0,0,1-3.054,4.943A39.884,39.884,0,0,0,7.864,94.62a54.477,54.477,0,0,0-2.254,7.431,58.644,58.644,0,0,0-.053,23.394,63.689,63.689,0,0,0,10.538,26.062,52.14,52.14,0,0,0,6.062,7.477,3.416,3.416,0,0,0,3.323-2.314" transform="translate(11.181 160.929)" fill="#fff0f9"/>
    <path id="Path_191" data-name="Path 191" d="M10.729,116.742a67.331,67.331,0,0,1-3.839-13.691,58.6,58.6,0,0,1,.05-23.4A53.477,53.477,0,0,1,9.2,72.215c-7.176,16.189-7.29,38.532.885,52.535,2.265,2.721,8.815,11.649,13.4,11.84a52.334,52.334,0,0,1-6.062-7.477,67.371,67.371,0,0,1-6.7-12.371" transform="translate(9.856 183.327)"/>
    <path id="Path_192" data-name="Path 192" d="M10.729,116.742a67.331,67.331,0,0,1-3.839-13.691,58.6,58.6,0,0,1,.05-23.4A53.477,53.477,0,0,1,9.2,72.215c-7.176,16.189-7.29,38.532.885,52.535,2.265,2.721,8.815,11.649,13.4,11.84a52.334,52.334,0,0,1-6.062-7.477,67.371,67.371,0,0,1-6.7-12.371" transform="translate(9.856 183.327)" fill="#fff0f9"/>
    <path id="Path_193" data-name="Path 193" d="M8.851,78.785A47.8,47.8,0,0,1,35.1,66.209a38,38,0,0,1,16.642,1.546,39.137,39.137,0,0,1,9.883,5.1,66.351,66.351,0,0,0,8.245-3.521c-1.242-.916-2.512-1.766-3.776-2.523a78.371,78.371,0,0,1-17.385-1.546,76.956,76.956,0,0,0-11.228-2.081,2.383,2.383,0,0,0,.255-.612c-5.835-.839-9.678,1.8-14.855,3.146-.205.021-.4.071-.612.106a60.558,60.558,0,0,0-9.137,5.634c-.676.517-1.281,1.079-1.929,1.61-.779,1.745-1.553,3.829-2.35,5.718" transform="translate(22.469 158.435)"/>
    <path id="Path_194" data-name="Path 194" d="M8.851,78.785A47.8,47.8,0,0,1,35.1,66.209a38,38,0,0,1,16.642,1.546,39.137,39.137,0,0,1,9.883,5.1,66.351,66.351,0,0,0,8.245-3.521c-1.242-.916-2.512-1.766-3.776-2.523a78.371,78.371,0,0,1-17.385-1.546,76.956,76.956,0,0,0-11.228-2.081,2.383,2.383,0,0,0,.255-.612c-5.835-.839-9.678,1.8-14.855,3.146-.205.021-.4.071-.612.106a60.558,60.558,0,0,0-9.137,5.634c-.676.517-1.281,1.079-1.929,1.61-.779,1.745-1.553,3.829-2.35,5.718" transform="translate(22.469 158.435)" fill="#fff0f9"/>
    <path id="Path_195" data-name="Path 195" d="M177.874,152.268c-2.01,0-3.97.035-5.924.078-14.59.3-27.541,1.4-42.219,1.373h-.347c-16.292-.05-32.226,1.95-47.534,1.745-8.05-.106-15.022-.35-21.572-.612a10.688,10.688,0,0,0-2.442,1.759q2.033,1.316,4.062,2.643l.771.5c19.01-.064,34.346.584,39.643.382,2.884-.057,5.651-.35,8.581-.216,1.893,0,21.129,0,45.673.06,3.142,0,6.366.849,9.657.81,3.171-.039,19.827-1.345,23.09-1.454,15.966-.538,19.342-.506,34.328-.474,25.241.053,45.333,2.668,47.648,2.718,1.709.039,9.554-1.221,11.26-1.221,5.772.028,9.363,1.589,15.156,1.723,4.706.113,9.533-1.585,14.229-1.723a55.083,55.083,0,0,0,6.769-.8c3.259-.754,3.574-.916,3.464-1.525.329-1.051-.648-2.321-4.278-2.445-14.459-.747-29.569-1.221-45.082-1.529-12.693-.244-25.659,2.233-38.762,2.176-6.854-.032-14.155-.644-21.561-1.38-11.653-1.157-23.571-2.615-34.456-2.58Z" transform="translate(146.824 386.553)"/>
    <path id="Path_196" data-name="Path 196" d="M78.586,72.758a1.93,1.93,0,0,0-.832-.188c-.18,0-.375.021-.556.028a3.739,3.739,0,0,0-.729.212,3.272,3.272,0,0,0-1.221.747,7.1,7.1,0,0,0-1.224,1.32,8.942,8.942,0,0,0-1.43,4.052c-.205,1.292-.173,2.594-.326,3.889a2.536,2.536,0,0,0-.032.694c.028.191.1.368.124.559a7.907,7.907,0,0,1,.152,1.111,4.608,4.608,0,0,0,.534,1.752,2.406,2.406,0,0,0,.917.938,4.713,4.713,0,0,0,.545.364,2.328,2.328,0,0,0,.669.205,4.244,4.244,0,0,0,1.465.025c.195-.025.4-.021.612-.06a3.389,3.389,0,0,0,.722-.166,1.551,1.551,0,0,0,.563-.361,6.372,6.372,0,0,0,.57-1.019c.237-.432.393-.9.63-1.323a7.649,7.649,0,0,0,.527-1.224c.251-.782.382-1.589.573-2.389.18-.757.343-1.529.471-2.3.106-.609.3-1.221.4-1.833.078-.446.188-.913.23-1.348a1.745,1.745,0,0,0-.039-.3,2.012,2.012,0,0,1,0-.357,3.589,3.589,0,0,0-.085-.612,1.707,1.707,0,0,0-.234-.51c-.067-.127-.074-.276-.195-.368s-.191-.074-.272-.131-.159-.166-.265-.234a1.892,1.892,0,0,0-.3-.156l-.573-.308c-.2-.1-.287-.241-.5-.347a1.973,1.973,0,0,0-.269-.145,1.169,1.169,0,0,1-.623-.216" transform="translate(183.358 184.229)"/>
    <path id="Path_197" data-name="Path 197" d="M114.853,94.7a14.754,14.754,0,0,1-1.794,3.309,21.413,21.413,0,0,1-5.881,5.375,28.408,28.408,0,0,1-2.52,1.352,19.762,19.762,0,0,1-2.42.917,15.428,15.428,0,0,1-5.789.446,27.981,27.981,0,0,1-8.429-2.813,14.365,14.365,0,0,1-7.166-9.469,10.862,10.862,0,0,1-.336-2.923c-.071-2.137.771-3.075,1.38-2.2.464.856.835,2.764,1.543,4.66a16.551,16.551,0,0,0,2.686,4.774,13.926,13.926,0,0,0,6.256,4.013,17.055,17.055,0,0,0,7.424,1.016,13.243,13.243,0,0,0,6.646-2.622,27.261,27.261,0,0,0,6.27-6.681c1.016-1.525,1.829-1.617,2.318-1.221.322.1.375.333-.188,2.074" transform="translate(204.395 224.318)"/>
    <path id="Path_198" data-name="Path 198" d="M49.722,78.245a22.05,22.05,0,0,1-.368,4.7,40.584,40.584,0,0,1-3.238,9.406c-.9,1.833-1.058,1.985-1.663,3.156a25.421,25.421,0,0,1-1.769,2.75,15.216,15.216,0,0,1-5.991,4.862,18.232,18.232,0,0,1-3.121.725H30.578c-1-.17-2.006-.3-3-.524a23.854,23.854,0,0,1-2.895-1.076,14.4,14.4,0,0,1-5.874-5.5,24.31,24.31,0,0,1-2.926-6.978,19.3,19.3,0,0,1-.612-3.62c-.326-2.633.5-3.988,1.582-3.054A29.254,29.254,0,0,1,19.509,89a38.285,38.285,0,0,0,3.2,6.341A10.6,10.6,0,0,0,30.079,99.8a9.323,9.323,0,0,0,7.941-2.5,20.923,20.923,0,0,0,5.032-7.679A70.567,70.567,0,0,0,46.484,78.2c.5-2.321,1.585-2.792,2.4-2.481.481-.014.623.219.835,2.527" transform="translate(38.592 192.004)"/>
    <path id="Path_199" data-name="Path 199" d="M20.582,85.83A8.815,8.815,0,0,1,20.625,83a18.26,18.26,0,0,1,2.226-5.527l1.185-1.833a13.066,13.066,0,0,1,1.309-1.589,8.6,8.6,0,0,1,4.307-2.47,13.235,13.235,0,0,1,7.329,1.373A11.053,11.053,0,0,1,42.3,80.568a8.44,8.44,0,0,1,.255,2.187c.127,1.592-.729,2.413-1.762,1.939a7.989,7.989,0,0,1-2.042-3.089c-.612-1.313-1.3-2.6-1.766-3.39a6.2,6.2,0,0,0-3.825-2.495,6.633,6.633,0,0,0-2.3-.092,2.739,2.739,0,0,0-.959.258,2.89,2.89,0,0,0-.913.478,7.479,7.479,0,0,0-3.022,3.606,37.918,37.918,0,0,0-2.212,6.221,1.624,1.624,0,0,1-.294.651,1.668,1.668,0,0,1-1.228.676,1.725,1.725,0,0,1-.708-.106c-.471-.032-.6-.184-.941-1.582" transform="translate(52.013 181.556)"/>
    <path id="Path_200" data-name="Path 200" d="M12.978,86.5a8.815,8.815,0,0,1,.042-2.827,18.281,18.281,0,0,1,2.226-5.531l1.189-1.833a12.224,12.224,0,0,1,1.306-1.589,8.586,8.586,0,0,1,4.31-2.473A13.207,13.207,0,0,1,29.38,73.62,11.062,11.062,0,0,1,34.7,81.232a8.44,8.44,0,0,1,.255,2.187c.127,1.592-.729,2.413-1.762,1.939a8.06,8.06,0,0,1-2.038-3.089c-.612-1.316-1.306-2.6-1.769-3.394a6.235,6.235,0,0,0-3.825-2.495,6.633,6.633,0,0,0-2.3-.088,2.834,2.834,0,0,0-.959.255,2.883,2.883,0,0,0-.917.481,7.472,7.472,0,0,0-3.018,3.606,37.906,37.906,0,0,0-2.208,6.21,1.661,1.661,0,0,1-.294.655,1.713,1.713,0,0,1-.538.471,1.676,1.676,0,0,1-.686.2,1.657,1.657,0,0,1-.708-.1c-.478-.021-.609-.17-.948-1.571" transform="translate(32.709 183.231)"/>
    <path id="Path_201" data-name="Path 201" d="M101.764,76.358a1.931,1.931,0,0,0-.832-.188c-.18,0-.375.018-.556.028a3.456,3.456,0,0,0-.729.216,3.174,3.174,0,0,0-1.221.747A7.325,7.325,0,0,0,97.2,78.477a8.984,8.984,0,0,0-1.43,4.048c-.205,1.3-.173,2.6-.326,3.9a2.54,2.54,0,0,0-.035.694c.032.188.1.368.127.559a8.341,8.341,0,0,1,.156,1.108,4.577,4.577,0,0,0,.531,1.755,2.456,2.456,0,0,0,.916.938,4.006,4.006,0,0,0,.541.361,2.329,2.329,0,0,0,.669.205,4.161,4.161,0,0,0,1.465.025c.2-.025.4-.018.612-.06a3.38,3.38,0,0,0,.722-.163,1.721,1.721,0,0,0,.563-.361,6.563,6.563,0,0,0,.57-1.023c.237-.428.393-.9.626-1.323a7.076,7.076,0,0,0,.531-1.224c.255-.786.382-1.592.573-2.392s.343-1.525.474-2.293a50.068,50.068,0,0,0-.177-5.5c-.106-.067-.474-.336-.573-.389-.191-.1-.379-.2-.573-.3s-.287-.244-.5-.35a1.5,1.5,0,0,0-.269-.142,1.255,1.255,0,0,1-.633-.184" transform="translate(242.191 193.368)"/>
  </g>
</svg>
